<?xml version="1.0" encoding="utf-8"?>
<!-- Generator: Adobe Illustrator 24.3.0, SVG Export Plug-In . SVG Version: 6.00 Build 0)  -->
<svg version="1.1" id="Layer_1" xmlns="http://www.w3.org/2000/svg" xmlns:xlink="http://www.w3.org/1999/xlink" x="0px" y="0px"
	 viewBox="0 0 1000 1500" style="enable-background:new 0 0 1000 1500;" xml:space="preserve">
<style type="text/css">
	.st0{fill:url(#SVGID_1_);stroke:url(#SVGID_2_);stroke-miterlimit:10;}
	.st1{fill:#FFFFFF;}
	.st2{fill:#58595B;}
	.st3{font-family:'ArialMT';}
	.st4{font-size:234.3192px;}
	.st5{fill:none;stroke:#000000;stroke-miterlimit:10;}
</style>
<g id="batbackground">
	
		<linearGradient id="SVGID_1_" gradientUnits="userSpaceOnUse" x1="499.52" y1="1499.5" x2="499.52" y2="-0.5" gradientTransform="matrix(1 0 0 -1 0 1500)">
		<stop  offset="0" style="stop-color:#ED1C24"/>
		<stop  offset="0.1174" style="stop-color:#DB382A"/>
		<stop  offset="0.3637" style="stop-color:#B1543D"/>
		<stop  offset="0.7147" style="stop-color:#6F5248"/>
		<stop  offset="1" style="stop-color:#000000"/>
	</linearGradient>
	
		<linearGradient id="SVGID_2_" gradientUnits="userSpaceOnUse" x1="-0.98" y1="749.5" x2="1000.02" y2="749.5" gradientTransform="matrix(1 0 0 -1 0 1500)">
		<stop  offset="0.3522" style="stop-color:#ED1C24"/>
		<stop  offset="0.6191" style="stop-color:#2B2827"/>
		<stop  offset="0.6739" style="stop-color:#2E2A2A"/>
		<stop  offset="1" style="stop-color:#000000"/>
	</linearGradient>
	<polygon class="st0" points="-0.48,1500.5 -0.48,0.5 999.52,0.5 999.52,1500.5 	"/>
</g>
<g id="Layer_1_1_">
</g>
<g id="batman">
	<path d="M541.83,524.86c8.69-45.32,17.38-90.65,26.08-135.97c1.36-7.09,2.72-14.17,4.08-21.26c2.71,9.44,5.41,18.89,8.12,28.33
		c4.81-3.16,15.3-9.1,29.83-9.94c19.52-1.13,33.6,7.68,38.11,10.77c3.31-8.01,6.63-16.02,9.94-24.03
		c7.36,42.83,15.87,86.49,25.68,130.91c1.9,8.61,3.84,17.17,5.8,25.68c47.25,21.35,100.1,51.46,152.45,94.45
		c12.38,10.17,23.97,20.43,34.8,30.66c9.34,35.22,7.17,57.1,3.16,70.79c-0.86,2.92-2.42,7.6-3.68,14.71
		c-3.76,21.2-0.19,37.88,1.23,45.37c2.86,15.09,5.59,37.98,4.9,72.34c12.46,16.7,18.68,29.96,22.07,39.24
		c2.53,6.92,9.81,27.79,7.36,20.84c3.21,1.75,6.43,3.5,9.64,5.24c0.58,15.01,1.16,30.01,1.74,45.02c2.33,0.81,4.65,1.63,6.98,2.44
		c5.47-3.72,10.93-7.44,16.4-11.17c-0.58,13.73-1.16,27.45-1.74,41.18c-5.12,6.4-10.24,12.8-15.35,19.19
		c0.23,2.91,0.47,5.82,0.7,8.72c4.54-3.02,9.07-6.05,13.61-9.07c0.93,0.7,1.86,1.4,2.79,2.09c-0.23,11.4-0.47,22.8-0.7,34.2
		c-5.12,6.17-10.24,12.33-15.35,18.5c-0.12,3.02-0.23,6.05-0.35,9.07c5-2.91,10-5.82,15.01-8.72c-0.47,11.75-0.93,23.5-1.4,35.25
		c-4.19,4.89-8.38,9.77-12.56,14.66c0.7,15.01,1.4,30.01,2.09,45.02c-2.56,2.56-5.12,5.12-7.68,7.68
		c-0.35,15.12-0.7,30.24-1.05,45.37c-11.63,6.05-23.26,12.1-34.9,18.15c-21.4,1.16-42.81,2.33-64.21,3.49
		c-6.51-10.35-13.03-20.71-19.54-31.06c3.39-18.49,6.78-36.98,10.17-55.46c9.24-5,18.48-10.01,27.71-15.01c0-14.63,0-29.25,0-43.88
		c-12.32-32.91-24.63-65.82-36.95-98.73c2.31-2.89,4.62-5.77,6.93-8.66c-0.58-5.2-1.15-10.39-1.73-15.59
		c0.77-5.97,1.54-11.93,2.31-17.9c-4.43-7.89-8.85-15.78-13.28-23.67c-0.19-3.46-0.38-6.93-0.58-10.39
		c-6.93-6.54-13.86-13.09-20.79-19.63c-7.51-16.74-15.01-33.49-22.52-50.23c-12.33,23.28-18.56,43.23-21.94,57.16
		c-4.73,19.44-3.9,27.11,0.58,31.18c5.74,5.21,15.78,2.99,20.21,1.73c7.62,29.18,13.79,61.21,17.32,95.84
		c0.7,6.83,1.27,13.57,1.73,20.21c-0.28,3.59-1.79,17.59-13.28,27.14c-4.09,3.4-8.29,5.28-11.55,6.35
		c9.52,36.22,18.42,86.37,16.17,146.08c-3.39,89.75-30.4,159.38-50.23,200.35c-2.88,9.49-6.29,25.82-2.31,45.04
		c1.44,6.93,3.56,12.93,5.77,17.9c-38.3,0-76.6,0-114.9,0c-1.34-23.77-2.69-47.54-4.03-71.31c-2.04-6.12-4.08-12.24-6.12-18.36
		c0.68-17.34,1.36-34.68,2.04-52.03c1.36-8.84,2.72-17.68,4.08-26.52c-2.35-15.25-4.43-31.25-6.12-47.95
		c-1.32-12.97-2.32-25.56-3.06-37.75c-0.17,38.38-5.16,58.75-10.2,70.39c-0.96,2.22-3.81,8.46-5.1,17.34
		c-1.88,12.9,0.58,24.05,3.06,31.62c2.97,9.99,7.64,31.14,0,55.09c-2.79,8.74-6.59,15.88-10.2,21.42
		c-0.76,7.41-1.05,17.66,1.02,29.58c2.1,12.12,5.91,21.8,9.18,28.56c-36.73,0.34-73.45,0.68-110.18,1.02
		c1.36-16.66,2.72-33.32,4.08-49.99c-7.48-25.5-14.96-51.01-22.44-76.51c-10.91,27.54-29.37,63.15-61.21,96.91
		c-9.59,10.17-19.24,18.95-28.56,26.52c-19.04,1.02-38.09,2.04-57.13,3.06c5.1-17.34,10.2-34.68,15.3-52.03
		c-24.82,16.66-49.65,33.32-74.47,49.99c21.42-35.7,42.85-71.41,64.27-107.11c-60.75,13.36-131.67,36.33-205.05,76.51
		c-18.13,9.93-35.12,20.2-51.01,30.6c-12.92,0.68-25.84,1.36-38.77,2.04c63.31-70.55,91.54-109.65,84.67-117.32
		c-6.05-6.75-39.38,10.93-99.97,53.05c-0.34-33.66-0.68-67.33-1.02-100.99c10.15-15.5,92.36-142.8,58.15-177.5
		c-6.28-6.37-20.56-13.75-57.13-4.08c0-89.09,0-178.18,0-267.28c39.89-11.51,89.17-30.37,140.78-62.23
		c108-66.67,168.34-154.58,197.91-206.07C405.61,589.28,473.72,557.07,541.83,524.86z"/>
	<polygon id="eye" class="st1" points="578.22,464.27 600.11,480.07 594.03,487.98 	"/>
	<polygon id="eye_1_" class="st1" points="652.88,465.18 630.99,480.99 637.07,488.89 	"/>
	<text transform="matrix(1 0 0 1 20.8124 250.4034)" class="st2 st3 st4">BATMAN</text>
	<text transform="matrix(1 0 0 1 20.8124 250.4034)" class="st5 st3 st4">BATMAN</text>
</g>
</svg>
