<?xml version="1.0" encoding="utf-8"?>
<!-- Generator: Adobe Illustrator 24.3.0, SVG Export Plug-In . SVG Version: 6.00 Build 0)  -->
<svg version="1.1" id="Layer_1" xmlns="http://www.w3.org/2000/svg" xmlns:xlink="http://www.w3.org/1999/xlink" x="0px" y="0px"
	 viewBox="0 1 1000 1333" style="enable-background:new 0 0 1000 1500;" xml:space="preserve">
<style type="text/css">
  @font-face{font-family: ArialMT; src: url('/fonts/ArialMT.woff');}
	.st0{fill:url(#SVGID_1_);stroke:url(#SVGID_2_);stroke-miterlimit:10;}
	.st1{fill:#C0EDA4;}
	.st2{fill:#D5E8BF;}
	.st3{fill:#FFFFFF;}
	.st4{fill:#58595B;}
	.st5{font-family:ArialMT;}
	.st6{font-size:234.3192px;}
	.st7{fill:none;stroke:#000000;stroke-miterlimit:10;}
</style>
<g id="batbackground">
	<linearGradient id="SVGID_1_" gradientUnits="userSpaceOnUse" x1="499.52" y1="0.5" x2="499.52" y2="1500.5">
		<stop  offset="0" style="stop-color:#ED1C24"/>
		<stop  offset="0.1174" style="stop-color:#DB382A"/>
		<stop  offset="0.3637" style="stop-color:#B1543D"/>
		<stop  offset="0.7147" style="stop-color:#6F5248"/>
		<stop  offset="1" style="stop-color:#000000"/>
	</linearGradient>
	<linearGradient id="SVGID_2_" gradientUnits="userSpaceOnUse" x1="-0.98" y1="750.5" x2="1000.02" y2="750.5">
		<stop  offset="0.3522" style="stop-color:#ED1C24"/>
		<stop  offset="0.6191" style="stop-color:#2B2827"/>
		<stop  offset="0.6739" style="stop-color:#2E2A2A"/>
		<stop  offset="1" style="stop-color:#000000"/>
	</linearGradient>
	<polygon class="st0" points="-0.5,1500.5 -0.5,0.5 999.5,0.5 999.5,1500.5 	"/>
</g>
<g id="Layer_1_1_">
</g>
<g id="lightning1">
	<path class="st1" opacity="0" d="M965.7,533.6c-2.3-2.5-2.4-8.9-2.1-9.8c1.1,1.3,0.4,0.2,2.6,3.9c0.7-1.2-0.3-2.3-0.9-3.2
		c-1.5-2.2-1.3-5-3.3-6.9c-1.3-1.2,1.2-2.7,4.3,1.8c2.5,3.6,7.7,5.5,7.9,10.7c0.1,3.3,10.3,1.2,7,5.9c-2.5,3.5-0.7,6.7,0.5,10.1l0,0
		c1-2.6-2.1-5.4,0.4-8.8c2.1-2.9,0.5-5.7-3.4-6.2c-2.3-0.3-3.5-1-3.4-3.4c0.1-1.5-18.8-22.5-24.2-22.8c-9.9-0.6-4.4-8.3-4-11.3
		c1.5-11.3-11.7-11.9-16-18c-16-22.7-14.9,8-24.8-6.8c-7-10.6-17-5.4-25.9-13.5c-4.1-3.7-4.3-10.4-10-12.9
		c-10.3-4.5,4-10.5-1.2-21.8c-0.5-1.1-0.3-1.9,0.4-2.9c5.3-8.8-5.6-9-7.2-15.1c-1.7-6.2-11.2-12.9-11.2-12.9c0.1-3.3-1.7-6.9,0-9.7
		c4.7-7.6-3.2-13.1-1.5-17.1c3.1-7.4-3.8-21.4-6.5-22.7c-6.4-2.9-9.4-8-11.3-14c-6-19.2-25.3-18.4-14.1-29.5
		c5.5-5.5,7.9-18.2-0.3-21c-4-1.4-9.5-9-9.7-15.2c-0.9-28.4-5.7-24.6-11.3-31.2c-3.5-4.2-9.1-7.3-8.3-13.7c0.2-1.6-1-3.2-2.1-4.6
		c-8.1-10.1,6.9-10.8-0.3-24c-8.5-15.4-12.2-13.1-11.9-24.5c0.2-6.9-5-6.5-5.8-16.1c-0.5-6,0.4-12-0.7-18c-1-5.1,5.1-1.8,6.3-10
		c0.5-3.7,3.3-6.7,2.9-10.8c-0.1-1.1,1.7-2,3.2-2.4c6.9-2,5-6.4,6.3-7.7c5.5-5.8,0.4-10.4,6.8-17.8c3.5-4.1,2.7-12-1.7-15.7
		c-3.5-3-5.5-7.1-9.4-9.9c-5.2-3.8,7.1-10.4-2.2-21.7c-2.8-3.5-2.5-7.5-3.2-11.4c-3.5-20.2,8.9-28.3-3.9-44.9
		c-6.6-8.5-9.2-10.3-9.8-16c-0.3-2.6-2.6-4.9-2.6-7.1c0-2.2,4.6-2.1,5.3-4.6c1.8-6,5.3-10.9,9.7-15.4c2.2-2.2-1-4.6,2.2-9
		c2.8-3.8,2.6-8.5,4.5-12.6c1.1-2.5,1-5.8-1.6-8.5c-3.3-3.4,3-9.6-6.8-15.9c-6.1-3.9-9.1,3.2-11.4,0.4c-2.8-3.4,0.5-3.6,0.6-4.9
		c0.6-8.5,12.7-10.4,8.8-23.7c-3.3-11.3,8.3-7,7-18.7c-0.1-0.9-0.1-1.8,0.8-2.2c3.7-1.4,4.7-4.8,6.4-7.7c3-5.2,2.6-8.7-1.8-13.4
		c-5.9-6.3,0-6.4-6.4-11.6c-5-4-0.9-6.7-0.7-7.3c4.5-15,0.9-17.1-2.8-18.8c-16.2-7.3,10.9-22.6,10.9-30.3c0-8.1,5.1-15.2,2.9-23.8
		c-0.7-2.7,2.7-4.9,4.5-7.1c7.7-9.3,6.9-16.8,6.4-17.6c-5.1-9,9.5-2.3,12.1-20c0.3-1.7,0.9-3,1.8-4.4c9.7-14.6,0.5-16,1.3-27.2
		c0.8-10.8,16.7-10.8,12.5-31c-0.3-1.4,0.3-2.3,0.8-3.3c5-12.2-14.9-15-13.8-33c0.7-10.2-3-11.6,0.5-17.1
		c10.9-17.2-0.4-23.6,0.6-29.1c1-5.4-7-17.4-16.7-21.4c-9.5-3.9-3.5-27.6-16.6-37.3c-2.1-1.6-7.4-10.6-7.4-10.7
		c2.7-4.1,0.9-9,1.6-13.3c2.1-12.7-4.7-19.8-7.8-28c-1.6-4.2-3.9-8.1-8-10.7c-4.5-2.9-5.7-8.2-9.9-11.3c-0.8-0.6-0.3-1.3-0.1-1.9
		c2.1-6,1.7-11.5-4.1-16.4c-6.4-5.4,3.2-10.1-15.7-20.6c-5.8-3.2-12.3-0.2-16.9-17.6c-2-7.6-4.8-15-11.8-20.4
		c-3.1-2.4,1-21.3-18.5-31.3c-1.9-1-2.8-2.6-2.7-4.5c0.7-14.1-10.7-18.9-10.4-23.9c0.6-8.9-7-4.8,3.3-23.3c1.9-3.4,3-6.7,1.7-10.8
		c-0.8-2.5-0.2-5.3-1.1-7.8c-5.5-14.4-4.3-23.7-16.4-23.9c-11.1-0.2-14.9,13.1-8.3,23.8c4.9,8.1-2,11.6-6.7,30.3
		c-2.2,8.7,4,11.6,4,14.6c0,11.6,11.3,14.6,10.8,20.6c-0.6,7.3,5.7,19.3,14.9,23.3c9.8,4.2-0.2,14.4,13.3,27.2
		c6,5.6,5.4,19.3,14.1,30.7c10.2,13.5,21.6,7.7,21.7,15.2c0,4,5.3,2.5,4.2,14.5c-0.4,4.8,0.4,10.7,4.6,14.2
		c4.6,3.8,7.9,8.8,12.8,12.1c3.7,2.5,5.5,5.5,6.3,9.2c0.8,3.4,4.7,5.4,4.4,9.2c-0.2,4.5,0.6,9-1.9,13.2c-8.5,14,14.5,20.6,19.1,50.4
		c0.9,5.6,7.3,11.5,2.6,14.6c-13.7,9.2-4.6,36.1-4.4,36.9c0.9,4.2,0.7,22.3,5.9,28.5c0.8,1,0.5,2.1,0.5,3.1
		c-0.2,7.9,5.8,9.3,1.2,15.3c-4.4,5.8,3.2,12-5.1,15.3c-4.6,1.9-3.6,4.8-5.6,6c-9.4,5.3,0.2,12.8-5.3,21.7c-3.6,5.9-0.7,17.2-4,25.5
		c-2.9,7.3,2.4,14.3-0.2,16.4c-13.8,10.7-5.4,25.3-7.3,32.3c-2,7.6,8,12.6,2.8,19.5c-0.8,1.1-3,6.4-3.3,6.5
		c-9.5,2.9-2.7,12.4-6.5,13.2c-4.4,0.9-6.4,4.2-8.1,7.5c-3.8,7.5-6,0.9-14.2,11.1c-3.2,4.1-7.9,4-5.2,14c0.9,3.5-2.7,8.7-7.1,9.4
		c-2.4,0.4-3.4,1.5-4.1,3.4c-2.7,7.1-6.4,4.8-9.4,16.5c-1.5,5.7-0.5,12.3-6,16.9c-6.5,5.4,0.7,7.3-3.6,9.8c-8.2,4.8,2.1,11.1-4,12.7
		c-4.1,1.1-5.3,4.5-7.4,7.2c-0.6,0.7-0.6,1.9-1.9,1.8c-5-0.4-9,4.2-9.5,6.6c-1.9,8.4-11.1-4-15,9.1c-1.1,3.9-10.7,18.7-18.3,11.8
		c-2.5-2.3-6-2.3-8.8-3.8c-1.2-0.6-0.8,0.8-0.1,0.9c5.6,0.7,9.5,6.6,15.6,5.6c0.5-0.1,1.8-0.1,1.3,0.6c-1.9,2.3-0.3,5.4-2.2,7.9
		c-2.1,2.7-2.4,6.5-4,9.7c-1.8,3.7,3.9,4,9.5,15c0.8,1.5,1.7,2.8,3.5,3.8c3.7,1.9,4.4,10.4,5.4,11.5c2.8,3,2,6.1,1.3,9.3
		c-1.3,5.4,4.5,6.4-6.3,13.9c-2.2,1.5-5.5,6.4-11,4.9c-11.2-2.9,1.1,13.9-2.1,19.2c0.2,1.8,0.4,3.6-1.2,4.9c0,3.1-1.4,3.1-0.7,4.6
		c3.2-4.9,6.2-11.8,4-17.5c-1.6-4.1,7.1-7.5,5.6-3.5c-2,5.4-1,2.2,3.4,9.3c0.8,1.3-3,11.4-3.6,12.6c0,0-9.9,8.7-12.7,12.7
		c-3.4,4.9,5,10.5,6.5,14.2c2.6,6.6,0.5,13.8-1.2,19.8c2.1-1.3,8.8-14.6-2.4-27.2c-6.2-6.9,4.4-7.9,5.7-13.1c1-4.1,10.6-4,8-9.7
		c-1.5-3.2,6.6-5.3,1.8-11c-2-2.3-5.7-9.2,1.1-8.1c13.8,2.3,7.1-4.5,16.9-8.2c0.5,2.3,1.5,5.2,1.2,6.9c-1.3,6.9,5.5,15.9-1.7,23.1
		c-2.8,2.8-1.7,3.1-0.6,8.1c0.1,0.6-1.3,0.9-0.2,1.5c0.1,0,1.1-1,1.1-1.6c0.5-3.6-3.3-5.1,0.5-7c1.4-0.7,8.7,11.5,1.6,18
		c0.1,0.2,0.1,0.4,0.2,0.5c2-0.7,2.7-4.3,3.8-3.4c0.2,0.2,0.2,1.2,0,1.3c-3.6,1.6-4,11.8-13.1,9.5c-0.5-0.1-1.4-0.8-1.5,0.1
		c-0.3,1.7,5.8-0.1,6.2,3.5c0.1,0.8,0.5,0.3,0.7-0.1c2.8-6.2,13.9-12.1,7.9-21.9c-1.7-2.7-1.1-5.8-3.1-8.4c-0.2-0.3-0.3-0.8-0.1-1
		c6.5-8.3-6-28.1,2.7-39.1c2.4-3.1,1-5.1,2.7-6.6c5.4-4.9-0.2-9.8,4.2-18c2.9-5.4,3-11.1,3.1-17c0-3.2-0.9-0.7-4.1-8.1
		c-6.2-14.2-10.9-14.3-6.7-18.1c6.5-5.8-8.6-10.8,1.4-14c7.7-2.5,7.4-11.8,10.5-10.9c2.7,0.8,5.3,0.4,7.7-0.7
		c0.5-0.2,0.8-0.8,1.5-0.3c-0.3,0.3-0.5,0.9-0.8,1c-9.5,4-0.3,14.5-4.3,19.1c-0.3,0.4-0.5,1.1,0,1.6c7.5-14.1-8.5-8.7,10.1-23.7
		c5.3-4.3,0.7-5.1,1.6-7.7c3.2-9.8-3.4-13.9,0.3-15.8c4.1-2.1,7-5.9,12.6-6c8.1-0.1,4.9-10.1,5.8-11.5c2.7-4.1,2.2-8.6,1.1-13.4
		c-0.6-2.5,1.2-5.2-1.7-7.5c-1.6-1.3,3.3-3.9,5.8-5.5c8.3-5.5-2.9-15.9,4.2-18c2.2-0.7,2.7-2.8,4-4.3c3-3.5,10.6-4.2,12.4-8.6
		c2.8-7,7.3-6.9,10.9-9.3c0,0.8,0,1.6,0,2.5c0.7,9-3.9,12.1-3.1,17.8c0.3,1.9-0.3,40.5-0.3,41.2c-0.2,3,4.9,12.1-1,13
		c-3.1,0.5-6,1.6-8.3,3.7c-6.1,5.6,2.6,2.3-8.5,18c-1.7,2.4,1,5.5-10.9,11.5c-12.8,6.4-14.7,27.1-2.7,31.9
		c10.5,4.2-0.8,14.1,15.2,28c8.7,7.6,11.7,14.5,9,15.7c-5.2,2.3-9.7,5.7-14.7,8.2c-10.4,5.3-17.2,6.3-14.7,14
		c2.9,9.3-10.7,8.4-7.3,23.9c0.7,3.1-9.9,8.8,0,18.7c0.4,0.4,1.1,1,1.1,1.5c-0.2,4.9,4,8.6,4.8,13.3c0.8,4.7-7.6,1.3-7.5,9.7
		c0,0.8-0.9,1.6-1.5,2.3c-4.1,5.2,0.9,14.1,7.6,14.5c2.7,0.2,10.9,3.7,8.9,6.8c-8.5,12.7,8,15.8,2.1,18.8c-4.4,2.2-0.3,5.7-10.3,7.8
		c-1.2,0.2-2.3,1-3.1,1.8c-5.9,6.1-28.2,5-15.3,19.3c13.8,15.2,5.1,3.9,7,22.5c0.6,5.6,4.8,10.4,4.4,16.1c-0.3,4.4,2.1,7.9,6,10.9
		c3.4,2.6,1.8,15.7-5.9,21.6c-2.6,2-2.3,7.4,0.1,9.9c3.6,3.8,3.4,8.3,4.5,12.5c0.4,1.5-0.9,1.4-1.8,1.7c-9.5,3.6-0.5,7.5-6.6,15.7
		c-4.3,5.7,0.1,10.4-6.1,11.1c-4.3,0.5-2.3,2.3-7.2,7.2c-6.3,6.2-0.2,8.6-4.1,9.7c-6.1,1.8-7.6,8.3-9.5,9.5
		c-2.5,1.6-4.6,3.4-3.4,6.8c0.1,0.4-0.1,1-0.4,1.3c-2.8,2.6-4.7,5.5-2.8,9.6c0.1,0.2,0,0.6-0.2,0.6c-4.2,1.8-3.1,6.2-4.7,9.2
		c-3.5,6.9,11,10.5,3.3,14.2c-7.7,3.7-7.8,11-8.7,17.9c-0.2,1.4,0.5,2.8-1.4,3.5c-0.4,0.1-0.9,0.7-0.9,1c0.3,4.6-3.8,8.2-2.3,13.1
		c2.2,7.2-9,2.8-6.6,11.6c1.8,6.7-5.9,9.2-1.2,14.8c4.3,5.2-6.2,0.3-3.5,10.5c0.7,2.6-0.1,3.9-2.4,4.9c-3,1.3-3.5,5-6.8,6.1
		c2.1,1.8-0.4,3.1-0.2,4.7c0,0.2,0.2,0.5,0.2,0.5c3.5-0.9,1.1,1.7,1.6,2.4c0.9,1.7,0.1,3.7,1,5.6c1.6,3.5-5.2,5.1-5,8.7
		c0.6,0,4.5-3.5,5.1-4c0.1,0.3,1,4.4,0.8,4.7c-4.5,4.5,1.8,12.8-10.1,17.9c-0.1,0-7,4-7.1,4.1c0.7,0.2,2,0.7,4.4-1
		c6.7-4.6,11.4-0.8,11.7-7.4c0.4-9.2,6.4-18.2,3.2-23.6c-1-1.7-0.3-2.9,1.3-3.8c6.4-3.8,8-18.7,7.5-22.9c-0.3-2.5,6-2.1,1.6-8.5
		c-2.6-3.8,4.2-7.7,1.9-13.7c-0.5-1.4-0.1-2.5,1.3-2.8c9.7-2.1,3-12.9,7.3-11.7c0,0,0.1-9.9,5.1-13.9c4.7-3.8,3.2,1.1,4.8,2.7
		c7.1,7.2,2.6,18.2,3.4,24.6c0.5,3.7-5.6,4.2-9.4,10.8c-1.7,3-11.8,16.1-10,17.8c1.4,1.4,4.3-9.3,8.5-12c2.1-1.3,2-3.9,3.7-5.7
		c5.2-5.5,9.9-7.6,9.3-11.4c-0.4-2.3,0.9-13.9,1.7-13.9c0.3,0,0.8,0.5,0.8,0.7c-0.3,3.4,2.6,6,3.2,9.2c1.1,6.4-4.1,3.8-4.1,6.7
		c0.1,8.5-3,7.7-3.3,11.5c1-0.1,4.8-13.7,6.4,14.1c0.1,1.9-4.2,2.7-2.6,6c4.9,9.9,8.2,10.7,6.5,8.4c-9.7-13.1,4.2-8.2,9-8.6
		c10.2-1,1.1-14.6,10-16.8c4.8-1.2,3-8-2.3-10.7c-7.7-3.9-10.3-3.9-13.5-11.3c-1-2.3-6.7-2.5,1.8-8c3.3-2.1,2.8,1.1,3.8,4.7
		c0.5-0.9,0.6-2.1,0.4-2.7c-1.9-6.4,6.8-6.8,7.1-7.4c2.8-5.1,14.8-11.6,8.9-18.6c-6-7.1,2.2-8.2-0.4-11.4c-2.1-2.6-1.2-4.7,0.2-6.9
		c1.7-2.7,0.2-5.8,0-8.6c-0.3-4.7-7-1.8-9.6-6.5c-3.8-7,4.1-0.6,8.2-16.9c0.1-0.4,0.3-1.1,0-1.3c-5.2-5.6,1-15.8-2.4-22.4
		c-1.4-2.7,5-5.9,4.2-12.6c-0.5-4.3,5.3-3.8,3.4,0.6c-2.8,6.6,1.6,8.6,4,21.8c2.9,16.4,22.6,11.5,17.9,18c-2.1,2.9,2.4,5.2,3.8,11.4
		c3,13.2,17.7,17.8,11.2,19.9c-5.8,1.9-6.7,7.2-7.3,12.2c-0.8,6.4-3,0.7-7.3,5.6c-4.1,4.6-7.7,0.4-13.7,15.6
		c-0.5,1.4-16.4,9.7-5.2,29.6c3.5,6.3-4.5,11.4,0.6,17.6c1.8,2.2,0.1,6.1-0.6,6.5c-3.5,1.7-3.3,7-8.7,6.9
		c-8.1-0.2-7.2,13.9,0.9,17.9c5.5,2.7-3.6,5,3.2,15.3c9.4,14.3,12.3,3.1,11.2,25.6c-0.3,5-3.1,6.8-5.5,9.9
		c-6.9,8.7-8.3-8.9-23.7,0.5c-13.2,8.1-15.8,23.5-0.9,31.4c5,2.7,6.7,11,7.2,11.8c1.9,3.1-1.9,0.7-4.6,6.1c-1.5,3.1-4.5,3.8-7.9,3.1
		c-9.8-2.1-9.7,16.2-11.3,25c-0.8,4.8-3.5,9.8-0.4,15.1c0.4,0.6,0.5,1.2-0.2,1.9c-10.3,10.5,12.4,14.9-0.4,24.2
		c-5.9,4.3,3.3,15.7-6.9,19.2c-14.8,5-1.6,14.4-8.3,18.7c-2.8,1.8-3.6,5.7-7.5,6.8c-8.6,2.4-10-8.5-20.2-6.5
		c-7.4,1.5-7.9,10.8-2.6,17.1c1.3,1.5-0.3,5.9-2.5,6.2c-1.9,0.3-3.2,0.9-3.9,2.7c-1.1,2.9-9.6-1.2-9.9,6.6c-0.2,5.8-6.4,5.4-7.1,7.2
		c-1.1,3.1-3.3,6.6-2.4,9.4c1.8,5.3,0,11.2,4.9,16c2.4,2.3-0.6,10.4-4.5,12.4c-4.1,2.1-5.4,4.9-4.4,9.2c1.1,4.5-3.9,14.7-7.6,16.2
		c-4.9,2,0.7,8.6-3,11.2c-4.9,3.5-6.6,8.7-8.4,14.2c-2.8,8.5,2.2,10.6,2.3,14.2c0.2,7.6-7.8,1.5-7.8,8.8c0,6.6-11.7,6.7-8.6,18.7
		c1.2,4.7-6.8,2.6-4.1,7.7c1,1.8,0.3,7.2-0.2,8.5c-0.3,0.8-1.8,0.6-1.6,1.8c0.1,0.6,3.9-0.6,3.5-2.2c-0.7-2.7,1.2-5,0.1-7.7
		c-0.8-1.8,0.6-3.7,2.2-3c5.8,2.7-2.2-10.9,7.4-16.5c6-3.6,2.3-8.3,7.2-9.1c4.8-0.8,7.3-6.5,4.7-10.4c-1.8-2.7-3.6-4.7-1.1-8
		c1.6-2-1.3-8.4,8.4-15.1c1.9-1.3,3.2-3.2,1.7-6.2c-2.9-5.6,6.5-3.6,6.2-10.6c0-0.7,0.3-1.5,0.7-1.9c6-6.1-0.1-13.1,4.7-15.7
		c6-3.2,10.6-11.7,7.5-17.6c-2.2-4.1-2.9-8-4-12.1c-1.3-5.1,1.8-2.7,0.9-6c-1.3-4.9,6.9-3,8-11.4c0.6-4.3,5.8,0.6,9.3-4.9
		c0.4-0.7,1.1-0.9,1.8-1.1c4.6-1.3,5.6-5.6,7.3-8.9c3.4-6.4-9.5-6.8-4.4-13.2c1.2-1.5,4.4-0.6,4.5,1.1c0.4,4.7,18.9,9.8,25.8-1.5
		c0.5-0.8,1.1-1.7,1.9-2.1c10.1-4.4-2.7-13.7,6.5-17c9-3.2,10.9-13.3,8.8-17.6c-0.2-0.5,0.2-1.6,0.7-1.8c3.9-1.9,4.1-5.7,5.4-9
		c1.8-4.6-1.3-8-3.8-11.5c-4.6-6.4,4.1-4.1,0.3-12.5c-1.4-3.1,0.8-6.4,0.8-6.4c-1.6-4.4,2.2-8,0.9-12.3c-0.4-1.5,0.5-2.5,1-3.6
		c2.3-5.2-2.8-7.9,3-8.5c4.4-0.4,8.9-0.9,11.8-4.4c0.6-0.7,1.2-1.1,1.1,0.3c-0.5,4.8,3.4,4.7,12.4,19.7c3.9,6.5-3.9,3.7-2.1,9.8
		c3.3,11-4.4,15.8-15.8,18.9c-13.8,3.7,0.9,14.1-6.1,20.7c-0.5,0.5-0.1,1.4,0.4,1.5c0.9,0.3,0.3-0.8,0.8-1.2
		c2.8-2.3,1.2-3.6,2.5-5.2c0.7-0.8,2.1,0.7,2.7-0.5c-6.9-3.3-7.2-13.6,1.3-14.6c2.8-0.3,5.2-1.4,7.7-2.4c0.8-0.7,1.7-1.3,2.5-2
		c0.1,0.1,0.2,0.3,0.3,0.4c-0.9,0.5-1.9,1-2.8,1.5c-5.3,11.7,1.8,9.4,1,12.9c-1.7,7.9-3.9,7.4-1.1,10.9c6.2,7.9-3,5.4-5,10.3
		c-2.9,7-11.3,7.7-7.6,13.6c2.9,4.5,0.9,10.7-4,12.4c-11.2,3.9,1.7,11.8-6,12.4c-4.5,0.4-3.3,3-2.7,5.6c1.3,6.2,1.4,11.3,1.4,11.3
		c2.3-0.3,0.7-8.5,0.2-10.6c-2-8.4,5-2.4,5.2-8.7c0.2-10.8,15.1-12.1,7.9-23.5c-1-1.7-0.4-2.7,0.8-3.7c10.7-9,4.9-8.4,10.5-10.1
		c10.2-3-1.6-9,2.6-15.6c5.8-9.2-7.6-7.1,0-15.5c2.2-2.5,10.5-4.3,7.1-16.5c-0.7-2.3-1.1-4.1,1.6-5.7c3.1-1.9,2.4-6.2-0.8-8.8
		c0,0-3.5-6.4-8-11.3c-5.6-6-2.7-12,1.3-12.5c5.5-0.7,6.6-5.9,1.9-9.2c-5-3.4,0.4-5.7-2.7-10.1c-1-1.4,0.4-2.3,1.5-3.1
		c7.6-5.3,0.9-8.5,1-12.4c0.2-9.3,2.6,0.9,15.6,0.5c13.3-0.5,7.9-20,4.5-23.7c-0.9-1,0.3-1.3,0.9-1.8c4.9-4,5-6.4,0.6-11.8
		c-3.4-4,2.2-5.5-7.8-12.2c-0.7-0.5-8.7-6.4-6.1-10.9c6.5-11.3-6.9-11.9-7.1-15.1c0,0,12.7-5.2,13.9-15.6c0.3-2.2,3.1-4.8,1.8-6.6
		c-3.5-4.7-0.2-8.7-0.2-13c0.1-11.4-6-9.4-4.7-14.2c0.8-2.9-1.5-6.2,1.3-8.9c1.7-1.7,4.2-2.1,5.6-4.2c4.3-6,0.4-8.7,13.7-15
		c5.2-2.5,9.7-5,9.2-11.6c-0.3-3.7,3.9-6.3,7.4-2.3c3.8,4.4,6.1,2.2,7.2,4.8c3.5,8.1,15.5,7.9,12.5,15.4
		c-4.3,10.5,6.1,10.7,2.6,17.8c-3,6.1-5,16.9,1.2,21.3c3.7,2.7-3.2,3-5.1,12.8c-1.4,7.2,4.4,9.7,1.4,15.4c-1.6,3,1.5,8.7-0.3,10.2
		c-4.5,3.7-6,9.3-8.9,14c-1.3,2.1-0.5,5.2,0.6,7.7c4.7,10.7-12.7,19.8-10.7,27.4c1.5,5.9,0.3,21.2,5.7,26.7
		c3.5,3.6-3.8,9.4-3.4,13.7c0.2,2.6-1.7,4.2-3.5,5.6c-0.8,0.6-2,0.9-1.7,2c1.4,5.1-0.3,11.4,5,15.1c5.5,3.9,6.6,9.5,7.8,14.3
		c3.1,12.4-1.1,10.3-2.1,13.5c1.7-0.2,4.8-1.7,4.3-3.6c-1.2-5.3,2.1-10.8-2.4-15.8c-0.4-0.4-0.6-1.2-0.5-1.7c1.7-5.8-5.3-4-8.1-14.8
		c-2-7.9,5.9-10.4,5.1-13.5c-0.3-1.1-0.4-2.5,0.5-3c3.1-2,2.3-5.6,3.7-8.4c2.4-5.1-3.3-4-3.8-13.6c-1-19.5-3.1-17.3-0.8-19.3
		c20.2-18.4,1.8-30.1,18.4-43.1c4.8-3.8-1-7.1,2.2-12.5c4.3-7.4-7.9-10.4,1.9-21.7c9.3-10.8-5.5-6.9-1.1-21.9
		c0.7-2.3,5.4-12.1,0.4-16.3c-2.1-1.7-2.2-3.6-1.2-5.8c1.7-3.7,0-11.1-3.2-14.1c-0.7-0.6-8.1-3.3-8.8-5.5c-2.3-7.7-11.9-5.9-7.9-9.2
		c3.6-2.9,5.4-3.9,5.2-7c-1.4-16.9,5-6.1,0-32.8c-0.1-0.3,0.2-8.2,0.5-8.2c4.1,0.2,6.8-3.3,10.9-3.2c4.4,0.1,8.3-0.6,10.9-4.1
		c1.4-1.9,2.3,0.1,2.3,0.8c-0.3,5.9,2.4,11.7,1.4,17.6c-1.4,8.5,4.5,9.4,6.3,14.2c3.5,9.2,10.2,6.2,4.7,13.3
		c-13.9,17.7,11.9,30.5,14.7,39.5c2.3,7.3,5.6,14,12.7,18.6c1.8,1.2,6,7.9,5.3,8.9c-3.4,4.8-1.7,9.6,0.7,14.5c1.9,4-4,21.1,5.8,29.4
		c0.9,0.7,0.6,1.2,0,1.7c-2.5,2-3,5.2-5,7.6c-3.9,4.5,0.2,7.9-4.8,13.6c-0.9,1-2,2.3-1.6,3.4c3.2,7.9-7.7,4.8-17.1,22.4
		c-4.1,7.7,3.3,8.7-7.3,10.6c-7.3,1.3-30.2,12-33.8,37.5c-0.9,6,11.3,13.9,1.9,26.9c-1.5,2.1,0.3,12.4,1.2,14.2c1,2.1-0.5,3.4-2,4.4
		c-6.4,4.4,2.2,7.7-1.9,19.4c-2,5.7,6.5,13.3,10.3,16.1c8.2,5.9,0,10.2,2.9,19.2c2.1,6.7-2.9,6.3-3.9,17.2c-0.4,4.2,3.3,7.9,1.9,12
		c-0.3,0.9,0.4,1.9,1.1,2.7c15.5,16.4-8.2,35.6,14.5,44.4c9.6,3.7-19.7,7.7-19.8,20.1c-0.1,7.5-9.5,6.4-9.8,14.2
		c-0.2,4.7-3.5,8.2-4.7,12.6c-3.3,12.1-6.5,10.5-8.9,16c-3,6.7-3.8,10.2-10.5,11.2c-0.9,0.1-2.3,0.6-2.5,1.3c-1.4,3.6-5.4,5-7.3,8
		c-4.6,7.1-7.4-0.7-18.6,10c-7.1,6.9-1.4,11.5-6,15.5c-3.7,3.2,4,12.5-7.4,11.3c-9.3-1-8,8.4-12.6,10.8c-14.4,7.5-2.2,9.7-8.7,15.6
		c-2.1,1.9-2.1,5-1.7,7.6c1,6.6-4.9,8-6.3,12.4c-1.3,3.9-4.6,6.4-6.3,10c-1,2.1-3.4,1.1-5,1.2c-9.5,0.7-5.9,6.3-10.8,7
		c-6.9,1,1.1,5.6-9,21.8c-2.4,3.8-5.6,7.8-3.5,13.1c0.8,2.2-3.9,6.7,1,12.6c0.7,0.8,1.4,2.1,1.3,3c-0.7,7.1,7.7,12.7,6.1,17.6
		c-0.4,1.1,2.9,9.3-0.1,13.9c-0.5,0.7-0.6,2-0.2,2.7c2.5,5.3,0,9.3-3,13.1c-2,2.5-1.3,10.9-4.3,12.7c-4.6,2.8-2.9,8.8-6.9,10.3
		c-2.9,1.1-5.1,2.7-6.2,5.5c-1.6,4.4-5.6,7.5-6.3,12.4c-0.3,2.2-2.5,3.6-3.2,5.3c-3.1,6.8-11.2,7.6-15.7,12.5
		c-2.4,2.6-5.2,10.9-4.9,11.6c0.3-0.1,0.8-0.1,0.9-0.3c2.2-2.6,0.7-9.1,15.3-15.5c10.6-4.6,13-23.1,19-26
		c10.9-5.3,16.5-25.3,16.5-25.3c4.1-2.2,5.2-10.7,5-15.5c-0.4-8.1,3.3-11.1,0.9-14.2c-0.4-0.6-1-1.5-0.8-2c1.4-4.4-1.4-7.8-3.4-11.5
		c-4.7-8.6,0.4-5.8-2.7-10.2c-1-1.4-2.8-3.1-2.6-4.4c1.2-11.2-0.5-12.4,8.4-24.4c2.9-3.9,2.7-20.7,15.2-18.7c4.5,0.7,3.7-3.8,10-9.4
		c3.2-2.9,0.2-4.3,4.1-7.5c4.6-3.8,6.7-8.4,6.2-14.5c-0.2-2.9,2.4-5.2,2.9-8.2c0.5-3.6,0.7-7.6,5.8-8.4c3-0.4,3-7.3,6.1-7.5
		c6.1-0.4,13.8-1.8,14.2-7.4c0.4-6.7,3.9-12.5,4.4-19.2c0.4-5.5,6.2-6.4,10.8-7.4c9.6-2.2,13.4-12.7,21.4-14.1
		c8.1-1.4,5.7-9.7,13.3-16.8c7-6.5,4-14.3,10.2-19.8c0.4-0.4,0.8-1.1,0.7-1.5c-1.8-8.7,8.8-8.9,11-18.7c1.9-8.5,5-4,9.7-8.2
		c3.9-3.5,12.5-8.5,11-4.4c-0.7,2,0.3,2.9,1.9,4.1c4.8,3.8,4.1,12.1-1.1,15.2c-11.5,6.8-2.4,16.5-2.7,17.1c-2.1,3.5-1,8.4-4.4,11.2
		c-3.5,3-4.5,5.6-1.8,9.7c4.8,7.4-1.3,14,12.3,16.6c8.2,1.6-2.9,3.1,1.2,10.7c1.9,3.6,0.7,6.7-2.6,8.6c-3.2,1.8-2.9,6.4,0.8,8.5
		c8.5,4.9,4.5,16.8,5.3,19.9c0.4,1.5-0.7,2.4-1.7,3.3c-5.9,5.6-2.9,4.5-1.3,16.2c0.7,5-25.7-8.6-21.4,5.7c2.6,8.7,6.8,16-1.9,19.2
		c-2.8,1,1.5,1.3,3.1,0c0.7-0.5,1.1-1.7,2.1-1.4c0.9,0.4,2.1,4-1,4.4c-2.8,0.3-10.5,4.8-9.3,10.8c1.4-1.5,1-7.7,10.8-10
		c3.9-0.9,0.2-18.5-2-22.5c-4.2-7.9,9.5-5.8,8.8-3.7c-1.8,6,4.9,8.3,5.4,12.1c1.2,9,5.7,12.8,11.3,17c1.6,1.2,2.3,3.4,4.7,3.6
		c-7.6-8.2-8.2-5.5-13.6-15.9c-0.2-0.4-0.9-0.9-0.8-1.2c1.6-7-8.1-10.8-5.4-15.7c0.8-1.5,2.4,0,3.7,0c5,0.2,6.1,0.6,6,4.3
		c-0.2,5.1,4.4,9.1,7.6,12.9c3.4,4,4.5,9.1,8.6,12.5c0.9,0.7,1.7,2.4-1.2,1.9c-2.6-0.4-3.2,2.2-3.2,3.9c0,3.9-2.8,7-2.2,11.1
		c0.8,5.3-10.4,3.4-6.8,14.4c0.9,2.9,2.1,5.8,1.3,8.8c-0.7,2.4,3.2,4.1,0,6c-9.3,5.5,1.3,19-5.6,18.8c-1.6-0.1-11.6,3.6-6.1,9.3
		c7.6,7.8-5,4.7-3.7,12c1.3-0.3,1-1.6,1.6-2.4c0.9-1.1,2.1-1.5,3.3-2.1c6.8-3.3-1.3-8.5-1.3-11.1c0-2.1,2.3-2.8,3.2-2.7
		c2,0.2,0.3,1.5,0.1,2.3c-0.2,0.8,0,1.8,0.6,1.9c1.3,0.2,0.2-0.9,0.4-1.4c0.9-2,0.7-4.5,4-4.9c5.9-0.8-3.2-13.4,4.9-18.3
		c1.8-1.1,3.1-3.1,1.3-5.5c-1.3-1.7-0.2-3.2,0.2-4.7c0.1-0.5,1.3,0.2,2,0.4c4.5,1.1,0.8,8,1.4,8.9c0.4-0.7,0.8-1.4,1.2-2.1
		c1-1.5-0.2-4.7,1.3-4.7c2.4,0,1.5,3.2,2.7,4.7c1.2,1.5,3.3,3,1.3,4.9c-1.7,1.6-3.7,1.7-5.9,0.4c-4.2-2.4-6.1,7.2-3.9,9.5
		c0.7-1.7-0.6-3.4,1.8-5c-2.3-2.5,2-3.5-0.1,0c0.8,0.8,0,1.6,0.1,2.3c2.6-1.1-0.4-5.6,3.4-4.8c1.8,0.4,4.3-0.8,4.5,2.4
		c0,0.3-0.1,1,0.6,1c0.6,0-0.1-2.7,0.1-3c3.5-5-2.1-14.8-7.9-16.2c-6.2-1.5-5.8-10.4-1.6-13c3.2-1.9,4.4-4.6,4.4-8.2
		c0-3,2.1-5.7,2.2-8.8c0-0.5,0.6-1,0.9-0.8c2.5,1.4,6.4,0.6,7.6,4.2c1.3,3.9,18.5,10,17.9,26.1c-0.1,3.4,3.1,5.8,4.8,8.7
		c3.2,5.7-7.6,3.6-2.4,11.9c4,6.2,7.9,7.6,6.2,8.9c-1.6,1.2-1.5,3-1.3,4.5c1.2,9.1-3.5,15.8-9.1,21.6c-3.6,3.7-6.6,14.2-0.3,16.8
		c2.6,1,3.6,2.8,3.1,5.6c-2.2,14.7,7.5,7.3,5.5,14.9c-3.3,12.7,6.4,6.8,7.2,17.6c0.2,2.3,1.4,3.9,3.4,4.4c6.7,1.7,9.6,8,15,11.2
		c0.6,0.4,3.6,9.5,10.6,5.1c1.1-0.7-1-1-2-0.7c-7.5,1.9-4.7-3.2-8.7-6.2c-7.1-5.4-5.6-8.5-11.2-9.7c-8.5-1.9-3.1-10.6-9.2-12.4
		c-4.3-1.2-3.9-6.8-2.2-9.7c4-6.9-7.5-1.9-5.6-14.2c0.5-2.9,0.8-5.4-2.1-7.6c-1-0.8-0.7-2.1-0.3-2.4c3.4-2.8,5.3-14.6,9.1-9.8
		c5,6.3,11.1,4,11.4,7.7c0.6,7.2-7.9,3.9-7,11.2c0.2,1.4,1.2,1.9,0.9,0.2c-0.4-2.3,0.4-3.8,2.8-4.6c2.2-0.7,3.2-2.8,5-4l0.1,0
		c0.6-3.6-1.3-5.9-4.9-6.8c-6-1.4-8.2-6.6-12.2-10c-1.4-1.2,0.6-1.7,1.3-2.2c9.9-6.2,0-13.7,4.4-19.1c1.6-1.9,2.1-4.5-1.4-6.3
		c-2.3-1.2-3.5-3.6-5.1-5.5c-3.7-4.6,8.6-2.4,2.3-12.6c-7.5-12,0.2-14-9.3-22.7c-4-3.7-6.7-8.5-12.1-11c-4.3-1.9,2.7-8.7-0.8-21.1
		c-1.5-5.4,4.4-3-0.4-10.5c-4.6-7.2,8.4-4.6,2.2-15c-4.7-8-7.4-5.2-10.1-10.8c-5.2-10.6-10.4-6.9-8.6-16.2
		c0.8-4.1,11.6-0.2,10.4-10.5c-1.6-13-16.9-12.1-10.7-23.4c2.3-4.1-5.8-6.2-2.5-9.1c3.4-3,0.1-5.5,4.5-15.1
		c2.6-5.6-0.8-11.3-7.7-11.4c-3.6-0.1-6.1-0.6-6.6-4.8c-0.2-1.8-4.7-6.6-0.8-9.2c19.5-12.6-0.9-23,4.6-31.2
		c3.7-5.4-7.9-23.5,3.7-26.1c5.8-1.3,0.7-4.1,3.5-7.2c4.1-4.6-0.7-5.9,7.1-9c1.7-0.7,3.1,1.3,4.2,2.6c5.5,6,10.5,5.2,9.1,8.9
		c-1.4,3.5-0.9,7.4-2.7,10.9c-4.2,8.5-2.1,10.6,1.1,16.8c0.7-2.2-1.1-3.9-1.7-5.8c-2.7-8.7,9.2-4.1,4.6-0.2
		c-4.4,3.8,2.3,8.3-2.1,8.7c0.3,1.3-1.4,3,1.2,3.7c0.1-3.1,2.2-5.9,0.5-9.2c-1-1.9,3.4-3.3,2.4,0.3c-0.5,1.9-1,3.8,0.6,5.7
		c2,1.2,1.5,2.7,0.1,4.2c-1.5,1.6-2.5-0.3-3.6-1.1c-1,2,3.5,2.6,1.8,4.9c-1.1,1.5-3.6,1.4-4.6,2.8c-5.3,7.4-2.8,9.3,0.4,11.1
		c2.7,1.5,2.8,4.3,6.3,5.3c-0.5-0.8-4.6-5.8-6.7-7.1c-6.3-3.8,7.6-12.2,8.4-13.2c-1.9-1.8,2.7-5.3,0.4-0.8c6.5-0.7,0.6,7,0.4,10.5
		c0,0.7,0.6,2.3,1.1,0.3c1.5-6.8,5.2-7.7,0.8-14c-13.4-19.1,9.5-9.6-4.6-30.7c-4.3-6.4,2-3.5-7.1-9.9c-29-20-13.1-24.8-16.7-28.3
		c-2.6-2.6-2.8-6.2-5-9.1c-3.1-4,5.2-4.6,9.3-12.4c0.9-1.7,4,1.9,3.1,2.7c-2.9,2.7,0.6,1.2-1.5,21.8c-0.6,5.4,2.7,9.1,8.5,10.4
		c8,1.7,14.8,18.7,15.1,20.7c0.9,5.1,8.5,0.7,9.8,10.9c0.9,7.1,7.4,13.6,14.7,14.6c2.1,0.3,2.9,1,3.5,2.8c3.3,10.9,8.9,4.6,3.2,14.1
		c-1.1,1.9-8.7,1.8-5.4,7.5c3.7,6.3-0.8,14.3,7.2,17.8c1.2,0.5,1,2.3,2.6,2.4c-1.5-4.8-8-5.3-6-8.6c1.1-1.8-2.2-11.2-2.5-12.1
		c-2.4-5.7,5.2-1.9,8-10.1c1.6-4.8,7.4,4.9,6.7,6.8c-2.3,6-3,13.6,3.8,15.4c9.9,2.7,2.9,6.6,5.5,10.3c0.8,1.1,0.5,2.5-0.2,3
		c-3.8,2.3-1.5,5.7-0.6,8.2c6.4,16.9,5.8,7.6,1,16.5c-0.4,0.7-1.7,0.5-1.6,1.6c1-0.1,2.2-0.2,2.6-1.1c2.1-3.7,5.7-3.9,3.5-8.4
		c-5.7-11.3-6.4-14-3.5-16.1c0.7-0.5,1.5-2,0.9-2.9c-2-3.1,1.3-6.9-0.3-8.9c-3.3-3.9,3.7-1.7,2,2.4c-0.8,2,0,5.5,1.5,6.8
		c0.9-1.2-0.4-2.1-0.7-3.1c-0.2-0.8,0.2-7.8,2.5-5c1,1.2,2.2,1.9,3.7,2c0.2-0.1,0.3-0.1,0.5-0.2c4.3-0.5,7.1,1.6,10.1-3.1
		c-2.6,0.8-3.9,3.9-10.5,1.4c-21.3-8.1-20.3-8.9-19.2-15c1.4-8.3,1-10.3-6.8-15.2c-8.5-5.4-2.7-11.4-11.3-11.7
		c-4.5-0.2-11.8-5.4-12.5-15.6c-0.6-8.1-10.5-4.2-9.7-11.7c0.3-2.6-3.1-3.1-3.5-5.4c-0.9-4.7-4.5-8-7.8-11.5
		c-3.7-3.8-12-2.1-10.9-9.4c0.9-6,1.3-12.1,0.7-18.3c-0.5-4.5,5.1,2.3-3.7-15.4c-3.9-7.8,4.8-4.7,2.4-13.7c-2.3-8.7-8.1-8-4-18.1
		c4.1-10.1-7.5-9.5-2.3-16.7c5.3-7.3,2.6-12.5,2.6-12.5c5.7-2.3,2.9-9.7,8.9-12.5c5.7-2.6,5.7-10.9,3.2-17.1
		c-5.7-14.2,1.8-6.1,1.9-23.3c0.1-6.2,0.1,2.1,6-10.4c2.1-4.4,4.5,6.3,3,9.3c-1.4,2.8,0.8,6.1,1.4,9.2c0.7,3.5-0.7,6.6-0.3,10
		c0.2,1.6-10.6,3.2-4.8,12c4,6.1-9.5,12.4-2.3,21.1c1.6,1.9,0.2,3.5-2.9,9.3l0-0.1c1.1,0.1,2-0.4,2.3-1.3c1.4-4,5.3-6.5,6.3-10.8
		c0.5-2.1,5.1-2.8,7.6-1.5l-0.1,0c-1.5-2.6-0.6-5.3-0.5-7.9c0.3-6,6.5,7.6,16.3,12.8c1.4,0.7,1.2,1.8,1,2.8c-0.8,4.2-0.5-1.3,3.4,11
		c4.4,13.8-13.4,26.1-4.7,37c-2.2-13.7,6.3-20,7.6-32.5c0.2-1.8-4.5-7.6,1.1-8.7c9-1.7,7,12.8,14.6,21.7c2.8,3.2,2.7,8.1,4.7,12.2
		c0.9-0.4-2.5-10.5-1.1-10.7c0.5-0.1,1.4,0.3,1.6,0.8c4.8,8.2,11,2.8,8.8,14.8c-0.9,4.7,2.1,8.9,2.3,13.4c0,0.8,3.4,3.1,4.9,2.9
		c-1-0.7-3.9-2.6-3.9-3.4c0-4-2.7-7.8-1.8-12c0.3-1.4,0.9-9.4-1.6-10.2c-6-1.8-8-7.7-13-10.8c-2.8-1.8-5-5.5-5.1-9.5
		c-0.1-3.2-3-5.7-3.8-9c-0.7-3.1-8.8-0.5-9.3-3.1c-0.5-2.6-4.8-5.1-1-7.9l0,0c-2.3,0.4-2.5-0.8-2.3-2.5c0.8-6.6-2.9-11.9-2.3-14.6
		c0.4-1.9-0.1-3.7-0.9-5.5c2.4,1.2,3.8,3.3,5.9,4.8c5.1,3.6-6.1,4.8,0.7,10.9c0.2-0.1,0.3-0.2,0.5-0.2c-1.2-2.2-2.8-4.1,0.1-6.2
		c2.1-1.5,3.3-0.8,4.1,1c1.5,3.7,4.6,6.5,6.3,10.1c1.2,2.6,4.7,3.4,7.7,3.7c7.8,0.6,2.3,6.2,1.7,10.6c-1.6,10.8,9.1,9.6,10.3,12.3
		c2.7,5.6,10.8,6.5,8.9,13.4c-2.9,10.4,8.3,25.6,18.5,42.4c2.1,3.4,1.2,7.8,5.1,10.7c1.5,1.2,0.1,3.3-1.3,4.2
		c-4.1,2.6-1,6.8-1.6,8.3c-1.3,3.7,0.4,6,4.1,7.3c1.1,0.4,2.3,2.2,2.5,1.6c0.8-1.8-5.9-3.5-5.1-4.8c0.6-0.9,1.1,0.6,2,0.7
		c5.9,0.8,7.8-1,13.9-2.9c5.5-1.7,3.9,4.6,9.9,5.3c4.7,0.5,6,2.1,5.1,6.3c-0.4,2.1-2.7,4.9-2.7,5.2c7.9-6.5,3.1-11.8-2.3-12.9
		c-1.4-0.3-2.8-0.8-3.5-2.1c-3.8-7.1-8.9-1-12.5-3.3c1.3,2.4-0.5,2.3-2.1,2.3c-2.1,1.2-9.7,1.5-5.4-2.9c1-1,1.3,0.7,2.1,0.8
		c-1.3-2.8,1.5-5.7-0.6-8.5c-0.4-0.6-0.9-1.5-0.1-1.9c2.9-1.6,5.8,9.5,6.1,10.4c0.3-3,0.2-5.9-2.1-8.5c-6.1-6.9-1.2-7.3-6.6-11.7
		c-6.5-5.3-0.8-10.3-8.4-15.2c-3.3-2.1-6.6-11.3-5.2-14.5c1.4-3.3-0.6-7.7-4.2-9.3c-2-0.9-2.9-1.6-1.6-3.7c1.2-2.1-0.9-8.8-3-10.6
		c-9.6-8.3-7.4-9-11.6-10.1c-10.3-2.7-4.3-15.1-1.5-13.9c4.9,2,1.6,7.6,2.3,8.3c1-1.7,1.9-4.3,1.2-5.3c-3.5-4.5-4.9-10.9-12.6-11.8
		c-7.8-0.8-4-5.5-5.8-6.2c-4.1-1.7-4.3-6.5-8-8.7c-7.2-4.3,8.8-10.2-2.1-20c-4.4-4-1.9-6.3-6.7-8.2c-2.4-1-1.6-3.8-3.2-5.2
		c-3.9-3.6,4-5.7-0.1-9.4c-1.9-1.8-2.3-8-1.3-8.2c1.7-0.4,1.2,2.2,2.2,3.1c12.4,11.4,22.1,4.4,28.9,16.3c4.3,7.5,10.7-0.6,10.4,3.3
		c-0.5,5.6,2.3,9,8.4,9.5c6.2,0.5,5.3,2.2,10.7,5.2c0.4,0.2,1.3,0.3,1.4,0.5c1.2,4.2,4.7,7.5,5.8,11.6c0.3,1.1,0,2.3,1.2,3.2
		c4,2.9,18.5,17.3,19,21.9c0.3,2.8,0.8,5.3,2.3,7.8l-0.1,0C965,534.2,965.4,533.8,965.7,533.6L965.7,533.6z M850.7,520.5
		c-5.3,2.2-1.8-12.6,1-14.1c0.7-0.4,1.3-0.4,1.4,0.4C854,520.2,851.4,512.9,850.7,520.5c3.3-5.2,2,1.9,0,2
		C850.7,521.8,850.7,521.1,850.7,520.5z M705.4-184.6c0.5,4.2-3,7.4-2.9,11.4c0.1,3.2-2.5,4.9-2.8,7.6c-0.1,0.8-1.5,1.7-2.8,1.1
		c-2.3-1,2.6-7,2.1-8.9c-1.7-6.9,4.5-7.4,7.4-13.3c0.3-0.6,0.6-1.2,0.9-1.8C710.8-185.5,706.3-184.9,705.4-184.6z M881.4,484
		c-5.7-3.9-8.8-1.4-12.7-9.4c-1.5-3,1.3-5.1,2.3-4.8c3.7,1.4,1.2,5.1,4.7,6.7C879,478.2,879.9,481.2,881.4,484c5.7,4,6,6.3,1.8,11.4
		c-1.6,1.9,0.8,4.2-1.1,4.7c-1.1,0.3-2-1.4-2.9-2.1c-1.9-1.5-1.5-3-0.9-4.8C879.2,490,881.8,487.5,881.4,484z M660.9-116.4
		c-7.2,11.4,5.3,11.9-0.4,15.7c-10,6.8-6.4,8.9-12.1,8.4c-3.7-0.3-2.6-3.1-4.8-5.2c-4.2-4,3.2-9.1,3.9-15.2
		C648.2-118.8,654.4-114.1,660.9-116.4c3.3-10.6,11.2-9.5,9.3-6.5C668.1-119.5,666.1-116.1,660.9-116.4z M713.2,46.5
		c-1.2-0.6-3.5-0.5-3.5-1.8c0.3-6.5,15.3-1.7,8.6-18c-5.7-14-2-15.5-6.9-18.4c-4.8-2.8,7.5-4.8,3.3-11.9c-2.3-3.8-2.7-7.9,5.4-13.5
		c8.3-5.7-1.6-11.9,4.9-13c7.8-1.3,6.1-3.5,14.8-8c8.1-4.2,3,9.7,14,18.2c11.4,8.8,2.5,18,3.8,33c1.3,14.4,0.7,19.2,5.5,25.2
		c0.5,0.6,1.1,1.9,0.8,2.3c-2.8,4.3-0.5,9.1-0.7,13.6c-0.3,8.8,5.9,9.3,11,15.6c2,2.5,0,1.6-2.1,10.9c-2.1,9.5-1.1,6.8-9.7,15
		c-8.9,8.5,0.4,9.7-7.4,18c-3.2,3.4-5.9,7.7-5.1,12.3c1,5.1-0.7,9.9,0.4,14.8c0.3,1.3-0.7,1.2-1.5,1.5c-4.2,1.7-6.4,7.1-3.5,10.6
		c3.1,3.7,0.7,5.9-2.5,13c-3.8,8.3,0.5,11.2,8.1,29.2c1.4,3.2,2.5,6.2,5.2,8.7c12.5,11.5-0.4,21.9,13.9,31.5
		c0.5,0.3,1.8,1.2,1.2,1.4c-2.6,0.6-3.7,4-7.3,3c-17.7-5-6.3,28.4-7.8,35.4c-1,4.7-2.8,9.4-1.8,14.5c0.3,1.6-1.5,2.4-2.3,0.4
		c-2.4-5.7-13.4-11.4-12.6-20.2c0.4-4.9-2.9-2-2.1-6.6c0.8-4.5-1.6-9.4-5.1-10.4c-2.9-0.8-5.3-2.8-8.6-3.1c-1.9-0.1-4.6-1.7-4.7-3.9
		c-0.6-8-6.3-15.7-3.7-24c0.7-2.3-6.1-9.9,1.1-14.7c2.7-1.8,3.2-17.3,1-21.9c4.4-5.8-4.4-10.5,1.5-26.3c1-2.8-3.2-8.2-6.4-8
		c-7.4,0.4-0.7-10.2-3.9-12.4c-4-2.6-2.2-7-4.4-10.1c-0.8-1.1,8.2-10.9-5-20.7c-6.4-4.7,3.4-2.1,8.4-7.4c4.2-4.4,12.9-2.8,15.5-9.1
		c1.1-2.6,11.8-11.8,2.7-20.6c-3.3-3.2,4-5.5,0.9-11.8C724,52.9,719.1,49.2,713.2,46.5z M849.2,418.6c2.1-4.7,6.1-6.9,8.6-10.3
		c1.4-2,6.8,7.6-1.3,9.2c-5.4,1.1-7.2,3.5-7.9,8.7c-0.9,6.6,6.8,9.4,4.1,11.2c-3.7,2.5-13.8,8.7-7.8,17c5.1,7.1-3.6,7.6-4.4,11.5
		c-0.6,3.2,0.7,7-2.2,9.6c-0.2,0.2,1.1,3.2,0.3,4c-7.8,7.6,5.5,18.7,1.5,21.9c-2,1.6-1,4.4-3.1,5.7c-3.8,2.2-6.7,4.8-6.1,9.7
		c0.3,2.6-6.1,0.8-4.1,5.8c3.3,8.4-9.3,14.3-0.2,23.6c3.1,3.1-5.6,11.1,3,21c5.9,6.6-5.6,8.1-3,14.1c8.7,20.1-18.5,10.5-4,32
		c3.4,5.1-2.4,4.1,0.3,10.7c1.6,3.9,3,7.9,7.2,10.4c1.4,0.8,1.6,2.1-0.3,3c-7.7,3.8-4.5,14.9-10,15.7c-2.5,0.4-2.1,7.1-7.4,1.2
		c-3.2-3.6-2.1-6.5-5.3-8.7c-4.2-2.9,3.4-9.2-0.7-16.5c-0.5-0.9,0-1.5,0.7-2.2c8.4-7.7,13-26.5,6.4-36.6
		c-11.5-17.7-8.8-21.9-15.5-24.7c-18.6-7.7-1.9-45-9.5-63.1c-6.2-14.9,16.9-32.4,29.1-29.1c10.6,2.8,6.1-13.5,10.5-20.4
		c7-10.8,16.9-5.5,17.7-19C846.1,428.2,849.7,423.5,849.2,418.6z M694.5,281.2c5.5-0.2,6.2,6.9,2.5,10.6c-2.8,2.7-1.9-0.5,0.2,16.8
		c0.7,5.7,1.2,5.8-5.2,5.4c-2.3-0.2-3.9,1.6-3.7,2.6c0.8,3.1-1.8,4.8-1.9,7.5c-0.1,2.5-1.6,5.1-4.5,6.3c-3.7,1.5-6.7,9-7.3,1.6
		c-0.1-1.1-0.9-1.7-1.5-2.5c-5.6-8.4,4-7.4-1.1-12.5c-1.2-1.2-1.4-2.2-0.6-3.5c4.4-7.3,4.8-15.8,4.8-24c0-5.2,2.5-9.8,1.7-15
		c-0.1-0.4,0.8-0.8,1-1.4c2.6-6.8,10.9-12.2,6.4-16.7c-4.1-4,1.2-4.7,0.5-6.8c-2.1-5.9,3.7-8.1,5.7-12c0.5-0.9,1.7-0.8,2.7-0.8
		c1.4,0.1,1.4,8.8,0.8,10.2c-1.4,3.3-0.5,6.1,0.3,8.9c3,10-6.8,11-7.6,14.7C686.9,274.4,690.1,279.4,694.5,281.2z M764-279.9
		c-0.2-0.5-0.5-1-0.6-1.6c-2.7-24.9,14.5-9.9,8.3-31.4c-0.9-3-0.9-5.6,0-8.6c4.3-14.7-1.3-15.9,3.3-22.2c3.9-5.3,5.3-11,3.5-17.5
		c-0.3-1.1,0.4-1.7,0.9-2.1c3.8-2.6,6.4-6.5,9.9-9.4c10.8-8.8-0.3-12.4,3.6-17.9c3.7-5.1-3-12.9-1.1-21.1c0,0,4.9,12.8,8.5,17.4
		c6.6,8.6,2.5,9.2,4.2,12.9c3.3,7.1-6.9,8.4-10.2,17.7c-2.8,7.9-3.6,15.9-0.2,24.3c2.1,5-3,1.5-4.5,13.3
		c-0.9,6.7-21.4,9.2-12.8,25.2c3.2,5.9-10.8,10.8-11.9,20.6C764.9-279.7,764.8-279.3,764-279.9z M746.1-115.4
		c4,9.7,5.1,17.2,15.7,17.3c4,0.1,5.9,2.2,4.7,5.8c-1.2,3.8-1.1,7.8-2.6,11.7c-1.3,3.2-7.6,17.9-10.4,15
		c-16.6-17.5-16.2-16.3-16.1-19.4c1.1-19.9-19.9-23.6-8.5-27.1c11.5-3.6,16.5-19.2,17.2-19.6c3.6-2.1,5.2-5.3,6-9.2
		c0.4-1.9,2.4-1.4,3.7-1.7c1.6-0.4,1.1,1.3,1.5,2c2.6,5.7-7.5,8-7.5,11.6C749.9-122.9,743.8-121,746.1-115.4z M638.6-92.5
		c1.6-6.7,3,6.4,12.7,4.1c2.7-0.6,5.3-1.2,6.2-4.2c0.3-1,2.4-2.5,2.7-1.8c1.1,2.8,3.8,4.3,5.3,6.8c2.7,4.6,2.9,10.2,7.3,14.2
		c1.2,1,0.7,3.1-0.6,3.8c-6.7,4-3.4,11.4-8.3,12c-9.7,1.1-3.1,6.2-5.9,9.1c-3.3,3.4-3.2,6.1,0.1,10.1c2.5,3,1.5,6.6-2.2,7.5
		c-9.2,2.1,1.2-13.2-5.2-18.4c-0.5-0.4-0.4-1.6-0.7-2.4c-4.8-14.8-3.5-4.7-10.3-17c-4.9-8.9-7.9-6.2-6.3-9.9
		C635.3-83.4,638.5-87.4,638.6-92.5z M787,572.4c0.7,0.1,6,2.6,6.2,5.5c0.3,4.4,4.8,6.1,5.3,9.6c1.4,9.5,10.5,6.1,3.4,24.8
		c-4.2,10.9-8.8,7.5-7.8,13.3c0.9,5.1,0.2,5.6-0.2,4.7c-0.8-1.7-4-1.9-3.1-4.6c1.1-3.5-5.4-11.7,0.5-16.6c0.5-0.4,0.9-1.3,0.8-1.9
		c-0.5-4.1,2.3-7.9,0.4-12.2C790.2,589.9,799.6,589.2,787,572.4z M839.3,860.7c-35.8-46.1-6.7-24.2,1.2-36.4c1.4-2.1,3.4,0.1,3,1.7
		c-0.9,3.4-6.3,3.5-4.9,6.7c2.8,6.3,2,24.5,2.4,27C841.1,860.6,841.1,861.6,839.3,860.7z M782.2-463.6c4.6-4.4,5.4-5.2,6.8-4.5
		c1.5,0.8,2.6,2,2.5,4.1c-0.6,10.3,8.6,9.3,1.5,19.6c-5.9,8.6-0.1,33.6-2.8,29.2c-10.4-17.1,0.1-17.3-5.4-26.5
		C780.4-448.8,781.8-456.2,782.2-463.6z M875.6,483.4c6.6,1.6,1.7,3.6,0.9,8.1c-0.8,4.5-4.4,2.1-5.2-0.1c-2.2-5.4-6.3-3.3-11.1-13.5
		c-1.1-2.3-0.5-4.9-2.1-6.9c-3.8-4.7,6.8-10,0.9-17.3c-1.8-2.2,2.1-5.1,2.5-3.2c0.6,2.6,3.2,3.4,5.1,4.8c7.2,5.7,1.6,6.1,2.7,8.8
		c2,4.7-6.6,5.9-2.9,11.2C869,479,870.6,483.8,875.6,483.4z M691.8,464c2.7-2.1,4.8-0.7,7.4,0.6c4.5,2.3-0.3,8.1,2.8,11.5
		c5.4,5.8-4.5,3.9-3.8,11.5c0.1,1.2,2.2,2.8,0.5,3.2c-1.8,0.4-3.1-3.7-3.5-5.5c-1.4-5.9-4.8-2.6-7.9-5.3
		C681.6,474.7,686.1,468.5,691.8,464z M814.8,730c2.1,0.9,3.6,2,5.5,1.5c0.8-0.2,1.7-0.2,2.1,0.4c1.4,1.7-2.6,0.9-1.3,4.5
		c1.8,5-4.5,2.8-2,8c2.6,5.4-5.3,4.5-2.3,10.7c1.4,2.7-6.5,2.1-7.9-4.2c-0.7-3.3-0.3-6.9-3.1-9.9c-3-3.3,4.3-3.1,4.6-8.8
		C810.6,728.5,812.1,727.9,814.8,730z M691.9,362.3c-6.3,2.4-6,6.3-4.4,8.6c4.1,5.7-0.1,8.5-5.1,7.2c-3.3-0.9-6-0.2-8.8,1
		c-0.4,0.2-0.9,1.1-1.5,0.2c-0.2-0.4-0.3-1.2-0.1-1.3c3.6-2.9,3.4-8.4,8.3-10.4c2.7-1.1,0.4-2.5,3.6-11c0.6-1.5,1.5-2.9,0.7-4.7
		c-0.4-0.9,0-2.4,2-0.7C690,353.9,703.6,357.8,691.9,362.3z M824.2,805.2c0.8-2.3,5.3,2.7,6.3,4.7c6,11.6,12.2,7.7,8.9,12.5
		c-2.7,4-7.2,4.3-11.4,4.7c-8.8,0.9-5.9-0.8-8.2-9.1c-1-3.5,6.8-4.2,4.4-12.8C824.1,805.2,824.2,805.1,824.2,805.2z M922.4,482.6
		c-8-3.1-8.1-24.3,6.7-6.5c2.7,3.2,5.3,5.5,9.5,6.4c4.8,1.1,3.2,2,6.1,7.5c2.9,5.7-4.2,11.9-5.6,2.2c-0.6-4.4-1.1-1.2-7.8-6.9
		C927.8,482.3,927.8,483.3,922.4,482.6z M670,292.1c-6.7-8.8-2.4-11-5.8-18.7c-1.5-3.3,4.8-3.7,4.8-7.6c0-3.8,5.1-11.9,8-13.3
		c0.7-0.3,0.1,3.2,1.7,4.5c0.5,0.4,0.5,1.1,1,1.6c0.8,1,0.7,1.8-0.1,2.5c-8.9,8.5-9.8,26-8.6,30.4
		C671.1,292.2,671.1,292.8,670,292.1z M710.6-171.2c-4.6,4.7,0.9,13.1-6,12.7c-4.9-0.3-7.8,2.2-10.6,5c-2.2,2.1-3.9-0.4-2.2-1.8
		c2-1.8,3.8-3.5,3.8-6.4c0-0.7,0.5-1.3,1.4-1.3c5.3-0.3,6.4-4.8,6.6-7.9c0.2-4.3,3.2-7.5,3.1-11.7c0-1.3,1.8-1.9,2.8-1.8
		c1.3,0.1,0,1.2,0.2,2C712-175.4,709.7-174.1,710.6-171.2z M680.2,364.5c-0.8,2.4-3.4,2.6-4.1,4.6c-0.2,0.5-0.8,1.2-1.2,1.1
		c-3-0.2,1.3-6.6-2.8-13.7c-4.2-7.3,6.2-8.9,4.4-13.8c-0.8-2.3,0.8-1.6,1.4-0.3c0.9,1.8,1.1,4.2,2.5,5.2c2.5,1.9,2.7,4.3,2.4,6.2
		C682.2,357.5,679.4,360.8,680.2,364.5z M820.9,768.5c0.2-0.2,0.3-0.3,0.5-0.4c4.1,6.2,17.9,19,8.3,20.4c-5.9,0.9-7,4.8-7.1,1.5
		c-0.2-6.4-7.6-5.5-4.1-7.1C823.3,780.7,822.3,770.5,820.9,768.5z M860.2,508.7c-0.4,0.5-1.5,6.5-4.6-0.6c-4.8-11,8.4-11.3,3-17.7
		c-2.6-3.2-2.4-13,0.8-8.5c3.7,5.3,9.5,7.2,5.5,10.2c-0.8,0.6-0.8,1.7-1.1,2.6c-1.4,4.1-4.8,7.6-3,12.6
		C860.9,507.6,860.4,508.1,860.2,508.7z M657.9-22c-2.1,3-5.2,5-7,8.1c-0.8,1.4-11.7,0.2-9.4-2c2.2-2.1,2.5-6,6.5-6.5
		c3-0.4,4.5-2,4.1-5c-0.1-0.8-0.3-2.1,0.8-1.9c5.1,1,6.4-3.1,8.7-3.1C661.6-32.5,658-27.8,657.9-22z M757.7,170.1
		c2,10.6,2.3,6.8,11.9,21.3c1.8,2.7-1.7,3.8-2,5.9c-0.3,2.4-4.6-1.9-4.6-3.9c0.1-4-5.7-7.3-4.5-12.4c0.4-1.9-0.3-3.8-2.3-5.1
		C751.5,172.8,756.3,162.5,757.7,170.1z M668.7-42.5c-9.2,13.8-10.5-2.3-10-2.9c2.9-2.7,4.2-6.2,5.9-9.5c1.3-2.4,7-0.3,4.7,1.5
		C668-52.2,667.9-51.9,668.7-42.5z M802.1,668.7c-8.9-3.5-7.1-6.7-6-15.1c0.5-3.9,2.7-1.3,2.9-0.1c1.3,9.3,9.9,5.3,6.6,15.6
		C805,671,803.2,668.8,802.1,668.7z M872.2,516c-1.4-4.2-5.6-3.6-6.1-6.8c-0.2-1.1-3-2.4-0.8-3.1c2.2-0.7,4.8-3.7,7.1-1
		c3.2,3.7,5.2,8.2,5.5,13C878,522,872.5,516.9,872.2,516z M858.1,439.9c1.3-1.3,1.6-0.7,2.1,0.7c2.9,7.5-5.9,10.2-2.8,13.3
		c3.4,3.5,0.2,13.2-0.8,8.2c-0.5-2.4-1.3-4.6-3.3-6.4c-2.9-2.6,5.3-5.8,1.1-11.9C853.1,441.9,854.1,443.9,858.1,439.9z M845.5,665.5
		c-6.2-2.9,1.8-4.5,0.3-10.6c-0.4-1.5,0.6-2.4,2.1-1.9c3,1.2,6.4,11,4.6,13.5C849.2,670.9,850.1,665.7,845.5,665.5z M660.4,281.2
		c1-0.8,1.7-1.6,2.6-2.2c1.1-0.8,1.9,0.1,1.6,1c-2.6,8.1,7,13.1,3.7,14.3c-5.4,2-2,3.2-7.8-3C656.4,287,662.2,285.8,660.4,281.2z
		 M860.6,421.9c-1.4,1.1-2.4,2.2-2.1,4.1c0.4,3.2-3.1,4.5-3.8,7.2c-2.2-1.1-4.2-4.8-3-8.8C853.1,418.8,864.4,418.9,860.6,421.9z
		 M700.4,311.4c1.8,1.3-1.1,7.3-4.2,8c-5.4,1.1,1.3,4.1-7.5,6.8c-3.8,1.2,1.4-4.5,1.1-7.1C688.8,311.4,696.5,320.3,700.4,311.4z
		 M856.1,955.8c7-7.1,6.6-7.9,8.3-6.5c1.7,1.3,0.3,2.7-0.5,3.7c-3.9,4.9-5.7,12.1-7.4,11.6c-0.8-0.2-1.6-1-1.4-1.6
		C856.1,960.9,855.1,958.5,856.1,955.8z M690.1-129.4c-5.2,0.9-5.6,4.6-10.9,4c-4.3-0.5-1.7-1.9-1.5-2.5c1.3-3.7,5.6-3.8,8.2-5.9
		C686.8-134.6,690.2-131.7,690.1-129.4z M863.8,444.9c0.8-3.7,1.2-1,4.7,0.4c1.7,0.7,3.1,1.7,2.4,3.5c-0.7,1.6-0.3,4.4-2,4.6
		C865.2,453.9,861.7,447.2,863.8,444.9z M630.1-12.3c-1.2,1.1-5.2-8.3,1.6-6.4c3.7,1,8.9-1.9,10.4-3.8
		C639.6-14.5,634.4-16.2,630.1-12.3z M855.1,497.8c-0.9,0.9-1.4,2.8-2.9,2.2c-2.7-1-3.2-8.3,2-9.2c0.8-0.1,1.7-2,2.8-0.1
		C858.2,492.7,860.1,492.9,855.1,497.8z M945.1,503.8c3.8,1.7,4.5,2,5.6,2.2c7.1,1.3,10.4,8.1,9.2,9c-1.9,1.5-1.8,0.2-14-10
		C945.7,504.8,945.5,504.4,945.1,503.8z M714.6,463.4c-0.6-0.9-3.1-1.3-2-2.6c1.7-2,3.9-4.5,6.3-4.8c2-0.2-0.8,2.9,0.8,6.5
		C721,465.5,717.2,464,714.6,463.4z M668,310.1c0.6-1.1,3.1-0.4,1.7,1c-5.4,5.9,4.3,8.1-0.4,10.7c-1.6,0.9-1.9-0.4-2.4-1.3
		C664,315.6,665.7,314.1,668,310.1z M764.9-186.8c0.1-0.2,0.3-0.3,0.4-0.5c0.3,0.4,0.7,0.8,0.8,1.2c1.1,6.8,9.7,10.2,1,13.2
		c-0.9,0.3-1.6,0.8-0.8-0.8C769.1-179.4,764.5-184.8,764.9-186.8z M931.6,573.9c-0.7,0.6-1,1.8-2.3,1.7c-0.5-0.1-1.4-1.3-1.3-1.6
		c1.1-2.3-4-9.8,0.7-7.3C930.5,567.7,932.3,572.1,931.6,573.9z M689-133.6c-6.3-6.9,4.9-11.4,2.2-3.7
		C690.5-135.1,691.2-132.2,689-133.6z M864.4,432.4c-0.4,0.6-2.8,4.8-3.7,4.1c-3.4-2.3,3.5-3.1,3.3-9.3
		C864,426.5,867.1,420.5,864.4,432.4z M863.1,505c-2.7-3.9,0.3-6.3,1.9-4.8C865.6,500.7,872.7,504.2,863.1,505z M849.7,451.8
		c-2.5-1.4-0.4-7.8,2.2-6.5C854.2,446.5,851.4,452.8,849.7,451.8z M669-57.4c-1.5-0.6,0.5-1.7,0.3-2.7c-0.2-1.4,0.7-4.3,2.1-5.2
		C673.9-62.2,671-56.6,669-57.4z M764.1-275c1,0.5,0.1-2.3,1.3-0.8c3.9,4.8,0.5,7.8-0.2,6.2C764.6-271.3,763.1-272.9,764.1-275z
		 M660,307.1c-1.1-0.5-0.9-0.8,5.2-4.1c1-0.5,2.2,2.3,1.7,2.5C664.7,306.4,662,306,660,307.1z M658.5,310.8c0.9,0.9,1.8,7.7-1.6,6.8
		C655.3,317.1,657.3,312.7,658.5,310.8z M870.1,496.3c-1.3,0.6-2.8,0.2-4-0.1c-2.2-0.5-0.4-5,1.6-3.5
		C868.9,493.6,869.9,494.7,870.1,496.3z M704.9,185.5c1.5-1.4,1.9-2.4,3.6,4.4C709.1,191.9,704.3,188.4,704.9,185.5z M870.5,499
		c0.3,0.6,1.9,0.1,1.3,1.2c-1.9,3.8-6-0.5-5.6-1.3C867.2,496.9,869,499.1,870.5,499z M873.8,504.7c0.4-1.1-2.8-1.2-1.5-2.9
		c0.6-0.9,1.7-2.4,2.8-1.6C876.1,501,876,506.9,873.8,504.7z M947.4,616.6c0.8,1.4-1,6.6-1.4,5.8C944.1,618.9,947,615.8,947.4,616.6
		z M689,366.4c3-5.2,2.5,5.5,0.6,4.1C688,369.3,688.8,367.8,689,366.4z M662-53.6c-3,5.2-2.4-3.4-0.3-2.4
		C662.8-55.6,662.2-54.5,662-53.6z M749.8-241c-0.5,0.2-0.2,1.7-1.1,1.1c-1.4-0.8-0.1-4.6,0.6-4.2
		C750.4-243.3,750.3-242.2,749.8-241z M959.9,519.4c-5.1-4.4,2.2-2.3,1.8,0.3C961.6,520.2,960.6,519.6,959.9,519.4z M703,500.4
		c2.5,1.5,0.5,3.5-0.5,2.9C701.3,502.7,701.7,499.6,703,500.4z M689.6-145.1c-6.1,5.5-4.8-0.5-0.7-0.5
		C689.2-145.6,689.5-145.1,689.6-145.1z M665.5,310.9c-0.8,0.5-1.2,1.7-2.5,1.4C660.4,311.5,666.5,307.4,665.5,310.9z M680.8,624.1
		c-1,0.5-0.4,2.2-2.1,2.2c0.2-1.5,0.5-4.5,2.1-3.9C682.1,622.9,681,623.5,680.8,624.1z M631.4,390.2c-2.2-0.9,3-6.2,2.2-2.1
		C633.3,389.2,632.4,389.8,631.4,390.2z M668.1,302.4c0.4-1,2.9-0.8,2.3,1.7C670,306.2,668.5,304.6,668.1,302.4z M817.9,677.7
		c-0.4,0.6-0.4,1.4-1.4,1.3c0.6-5.4,0.4-4,1-5C818.5,675.2,818,676.5,817.9,677.7z M633.3,381.4c-1.3-0.3-0.5-2.4,2-1.8
		C636.3,379.9,635.6,381.9,633.3,381.4z M855.9,515.9c-0.9-0.8,0-3.7,2.1-2.5C860.3,514.7,856.8,515.5,855.9,515.9z M648.8-25.9
		c-1.5,1.4-3.6,0.5-2.6-0.3C649.1-28.3,649.4-26.9,648.8-25.9z M939.7,596c-2.2-1.3-1.5-3.8-0.7-2.8
		C940,594.4,941.2,596.2,939.7,596z M946.7,609.1c-2.4-4.9-0.6-3.2,0.7-0.4C947.6,609,947.4,609.3,946.7,609.1z M665.3-32.8
		c-1.8-2.7,2.1-3.9,0.6-0.6C665.7-33.2,665.5-33,665.3-32.8z M631.6,385.4c1.2-4,2.5-2.3,1.8-1.4
		C633.1,384.4,632.6,384.7,631.6,385.4z M872.3,495.9c0,0.2,0-0.3,0-0.7C876.1,495.8,874.2,497,872.3,495.9z M635.1,386.3
		c-0.9-1.3,1-3.7,0.7-0.3C635.8,386.2,635.6,386.6,635.1,386.3z M900.4,707.3c0-0.1,0.1-0.2,0.1-0.3c1.9,0.5,1.3,0.3,2.3,1
		C900.8,707.7,901.5,707.8,900.4,707.3z M875.8,509.5c-0.3-3.2,0.5-2.3,1-0.7C876.8,508.8,876.5,508.9,875.8,509.5z M864.7,941.6
		c0.3-1.5,0-1,0.9-2C865.6,940.9,865.8,940.3,864.7,941.6z M670.9,301.1c-2.1-1.4,0-2.5,0.4-0.4C671.4,300.9,671,301.1,670.9,301.1z
		 M698.3,297.3c0.7,1.3,0.7,0.9,0.2,1.4C697.8,297.4,698,297.7,698.3,297.3z"/>
	<path class="st1" d="M882.1,520.6c1.7-2.1,4.2-4,1.7-7.2c-0.2,0.1-0.3,0.2-0.5,0.2C885.1,516.4,882.7,518.3,882.1,520.6
		L882.1,520.6z"/>
	<path class="st1" d="M917.1,715c0.9,1.7,3.1,1.4,4.4,2.6c0.5-1.1-0.3-1.2-3.9-2.8C917.4,714.8,917.3,714.9,917.1,715z"/>
	<path class="st1" d="M861.6,516.9c0.3,0.4,0.4,1,0.8,1.2c1.1,0.8,0,1.9,0.7,2.7C864.4,518.9,863.7,518,861.6,516.9
		C861.6,516.9,861.6,516.9,861.6,516.9z"/>
	<path class="st1" d="M881.4,964.2c-0.9,2.1,1.7,3,2.4,3.4c0.2-0.9-0.8-1-1.2-1.6C882.3,965.4,881.9,964.8,881.4,964.2
		C881.5,964.2,881.4,964.2,881.4,964.2z"/>
	<path class="st1" d="M981.6,545.9c-0.2,0.5,0-0.2-1,2.6C981.4,548.7,982.7,547.1,981.6,545.9C981.6,545.9,981.6,545.9,981.6,545.9z
		"/>
	<path class="st1" d="M662.5,28.1c-2.3,0.3-3,0.4-2.9,1.3c2.4-0.4,1.6-0.2,3.2-0.8C662.6,28.5,662.5,28.3,662.5,28.1z"/>
	<path class="st1" d="M845.4,530.6c-0.9,0.3-2.1,1.7-1.3,2.3C844.5,532.1,845,531.3,845.4,530.6
		C845.4,530.5,845.4,530.6,845.4,530.6z"/>
	<path class="st1" d="M964.7,534.5c-0.7,1.6-0.4,0.9-1,2.6C964.8,537,964.6,535.2,964.7,534.5C964.6,534.5,964.7,534.5,964.7,534.5z
		"/>
	<path class="st1" d="M627.5,1.8c0.7-0.9,1.4-1.8,2.1-2.7C627.8-0.7,627.2,0.3,627.5,1.8z"/>
	<path class="st1" d="M965.8,533.5c0.1,0.7,0.2,1.4,0.4,2C967.2,534.8,966.9,534,965.8,533.5C965.7,533.6,965.8,533.5,965.8,533.5z"
		/>
	<path class="st1" d="M849.6,680.3C848.8,681,849.9,684.2,849.6,680.3C849.7,680.4,849.6,680.3,849.6,680.3z"/>
	<path class="st1" d="M949.6,624.3c0.7,1.3,2.2,1.6,3.4,2.3C952.3,625.1,950.8,624.9,949.6,624.3z"/>
</g>
<g id="lightning2">
	<path class="st2" opacity="0" d="M97.8,552c3-2,5.1-8.9,5-10c-1.5,1-0.5,0.1-3.8,3.3c-0.3-1.6,0.9-2.4,1.9-3.2c2.1-1.9,2.7-5,5.4-6.5
		c1.6-0.9-0.4-3.4-4.9,0.4c-3.6,3.1-9.4,3.4-11.1,9c-1.1,3.6-10.7-2.4-8.7,4c1.5,4.7-1.3,7.6-3.5,10.9l0,0c-0.2-3.3,3.7-5.2,2.2-9.8
		c-1.2-3.9,1.2-6.4,5.2-5.6c2.4,0.5,3.8,0.2,4.5-2.5c0.4-1.6,25.6-18.1,31.1-16.6c10.1,2.9,6.9-7.6,7.4-11
		c1.9-12.9,15.3-8.9,21.4-14.1c22.8-19.3,12.6,14.1,26.9,1.2c10.2-9.1,18.6,0.1,30.1-5.7c5.2-2.6,7.4-10,13.9-10.7
		c11.7-1.3-0.9-12.9,7.6-23.6c0.8-1,0.8-1.9,0.5-3.3c-2.7-11.5,8.3-7.9,11.8-14.1c3.5-6.2,15.1-10.2,15.1-10.2
		c0.9-3.6,3.8-7,2.8-10.7c-2.4-10,7.1-13.3,6.6-18.3c-0.9-9.2,10.2-22.2,13.3-22.6c7.3-1,11.8-5.4,15.5-11.4
		c11.7-18.9,30.9-11.4,22.9-27.5c-3.9-8-2.6-22.8,6.5-23c4.4-0.1,12.2-6.5,14.3-13.2c9.3-30.8,13-25,20.6-30.3
		c4.8-3.3,11.3-4.8,12.4-12.1c0.3-1.9,2-3.2,3.5-4.3c11.1-8.2-3.7-14.3,7.4-26.2c13.1-14,16.1-10.1,19.2-22.7
		c1.9-7.6,7-5.4,10.6-15.7c2.3-6.5,3.2-13.3,6.1-19.6c2.5-5.3-4.6-3.7-3.4-13.2c0.5-4.2-1.3-8.5,0.2-12.9c0.4-1.1-1.1-2.7-2.5-3.8
		c-6.3-4.6-3.2-8.9-4-10.7c-3.8-8.3,2.6-11.6-1.5-21.9c-2.3-5.7,0.9-14.1,6.3-16.7c4.4-2.1,7.6-5.9,12.3-7.6
		c6.4-2.3-4-13.9,8.7-23.1c3.9-2.8,4.8-7.3,6.6-11.4c9.5-21-0.6-34.3,17.3-47.9c9.2-7,12.3-8,14.6-14.1c1-2.7,4.1-4.5,4.8-6.8
		c0.7-2.4-4-3.9-4-7c0-7.2-2-13.9-5.2-20.3c-1.5-3.1,2.4-4.8,0.5-10.7c-1.6-5.1-0.1-10.3-0.8-15.5c-0.4-3.1,0.7-6.7,4.1-8.7
		c4.3-2.6-0.2-11.5,11.6-15.1c7.3-2.2,8.2,6.7,11.4,4.4c3.8-2.7,0.6-4.1,0.9-5.6c1.9-9.5-9.7-15.9-1.8-29.2
		c6.7-11.2-6.2-10.6-1.5-23c0.4-1,0.6-2-0.1-2.6c-3.3-2.8-3.3-6.9-4.2-10.7c-1.5-6.7,0-10.4,5.8-14.1c7.8-4.9,1.9-7,9.9-10.5
		c6.2-2.7,2.9-7,2.9-7.8c-0.1-18.1,4.2-19.1,8.4-19.6c18.4-2.3-4.3-28.6-2-37.1c2.4-8.9-0.6-18.5,4.1-27.1c1.5-2.7-1.2-6.4-2.4-9.4
		c-5-12.9-1.9-20.8-1.3-21.6c7.8-8.1-8.8-5.9-6.3-26.2c0.2-2,0-3.5-0.5-5.4c-5.4-19.5,4.2-17.8,6.8-30.3
		c2.4-12.1-13.6-17.7-3.4-38.5c0.7-1.4,0.4-2.6,0.2-3.9c-1.4-15.2,19.5-11.2,23.6-31.4c2.4-11.4,6.4-11.7,4.6-19
		c-5.8-22.7,7.4-25.8,8.1-32.2c0.6-6.2,12.2-16.7,23.1-17.6c10.7-1,11.7-29,27.7-35.1c2.6-1,10.6-9.1,10.6-9.1
		c-1.5-5.5,1.8-10.2,2.3-15.2c1.6-14.7,10.6-20,16.2-28.1c2.8-4.1,6.3-7.5,11.2-9c5.4-1.6,8.2-7,13.3-9c1-0.4,0.7-1.3,0.7-2.1
		c-0.3-7.3,1.7-13.2,9-16.5c8-3.6-0.2-12.2,21.9-17.1c6.8-1.5,12.4,4.2,22.2-13.4c4.3-7.6,9.3-14.8,17.9-18.3
		c3.8-1.5,5.3-23.8,27.9-27.8c2.2-0.4,3.6-1.8,4-4c3.5-15.7,16.4-17,17.5-22.6c2-10,8.4-2.8,3.6-26.8c-0.9-4.4-1.1-8.4,1.5-12.4
		c1.6-2.4,1.8-5.8,3.4-8.1c9.8-13.9,11.3-24.5,23.6-20.5c11.2,3.6,11,19.6,1.2,29.1c-7.4,7.1-1.4,13.4-2.3,35.7
		c-0.4,10.4-7.5,11.3-8.4,14.6c-3.4,12.8-15.7,12.1-17,18.8c-1.6,8.2-11.4,19.2-21.9,20.3c-11.1,1.2-4,15.9-21.5,25.2
		c-7.7,4.1-11.2,19.3-23.3,28.8c-14.3,11.3-24,0.9-26.3,9c-1.2,4.4-6.1,0.9-8.6,14.4c-1,5.4-3.6,11.6-8.8,14
		c-5.7,2.6-10.5,6.9-16.5,8.8c-4.4,1.4-7.1,4.2-9.1,7.9c-1.8,3.4-6.3,4.3-7.2,8.5c-1.1,5-3.3,9.6-2,15.1
		c4.4,18.4-20.7,17.5-34.2,48.7c-2.5,5.8-10.7,10-6.9,15.1c11.1,15-6.1,41.3-6.5,42.1c-2.1,4.3-7.3,24.2-14.4,29.2
		c-1.1,0.8-1.1,2.1-1.4,3.2c-2.2,8.7-8.6,8.2-5.8,16.4c2.7,7.9-6.7,12.1,0.6,18.6c4.1,3.7,2.2,6.6,3.9,8.5c7.9,9.2-4,14-1.2,25.7
		c1.9,7.8-4.4,19.1-3.6,29.4c0.7,9.1-6.7,14.9-4.6,18.1c10.6,16.6-2.1,29.7-2.3,38c-0.2,9-11.8,11.1-8.6,20.4c0.5,1.5,1.1,8,1.4,8.3
		c8.7,6.5-1,14.6,2.7,16.8c4.1,2.5,5.2,6.8,5.9,11.1c1.6,9.6,5.8,3.1,10.9,17.2c2.1,5.6,6.7,7.2,1.1,17.2c-2,3.5,0.2,10.6,4.3,12.9
		c2.3,1.3,3,2.9,3.1,5.2c0.6,8.7,5,7.5,4.5,21.4c-0.2,6.8-3.1,13.8,1,20.6c4.9,8.2-2.8,7.8,0.7,12c6.8,8.2-5.4,11.5,0.2,15.4
		c3.8,2.6,3.9,6.8,5.3,10.5c0.4,1,0.1,2.4,1.4,2.7c5.1,1.3,7.8,7.7,7.6,10.6c-0.5,9.9,12.4-0.5,12.4,15.2c0,4.7,5.2,24.4,14.9,19.4
		c3.2-1.6,6.7-0.5,10-1.1c1.4-0.3,0.6,1.2-0.2,1.1c-5.8-1.2-11.4,3.9-17.4,0.7c-0.5-0.3-1.8-0.7-1.5,0.2c1.2,3.2-1.3,6.1-0.1,9.4
		c1.3,3.7,0.5,8,1.1,12.1c0.7,4.7-5.1,3-14,13.1c-1.2,1.4-2.6,2.5-4.7,2.9c-4.2,0.8-7.5,9.9-8.8,10.7c-3.8,2.4-3.9,6-4,9.8
		c-0.3,6.4-6.4,5.4,2.2,17.5c1.7,2.4,3.6,8.9,9.6,9.3c12.1,0.8-5.3,14.9-3.6,21.9c-0.7,1.9-1.5,3.8-0.2,5.8c-1,3.4,0.5,3.9-0.6,5.3
		c-1.8-6.5-2.7-15.2,1.1-20.6c2.8-4-4.9-10.8-4.6-5.8c0.4,6.6,0.4,2.8-6.2,9.1c-1.2,1.1-0.4,13.5-0.1,15.1c0,0,7.4,13.1,9,18.5
		c2,6.6-8.1,9.7-10.7,13.3c-4.5,6.3-4.6,15-4.6,22.1c-1.7-2.1-4.5-19.1,10.5-29c8.2-5.5-2.1-10.3-1.8-16.4c0.2-4.9-9.4-8.1-5.1-13.4
		c2.4-3-5.1-8.1,1.5-12.7c2.7-1.8,8.4-8.1,1.3-9.2c-14.5-2.3-5.8-7.5-14.6-15c-1.2,2.4-3.1,5.2-3.2,7.2c-0.8,8.1-10.3,15.5-5.1,26
		c2,4.1,0.8,4.1-1.8,9.1c-0.3,0.6,1.1,1.4-0.3,1.7c-0.1,0-0.8-1.4-0.7-2.1c0.6-4.2,4.8-4.5,1.5-7.8c-1.2-1.3-12.2,9.6-6.9,19.2
		c-0.1,0.2-0.2,0.3-0.4,0.5c-1.8-1.5-1.4-5.7-2.8-5.1c-0.3,0.1-0.6,1.2-0.4,1.4c3.1,3,0.5,14.3,10.4,15c0.5,0,1.6-0.4,1.5,0.6
		c-0.2,2-5.8-2.2-7.2,1.7c-0.3,0.9-0.6,0.2-0.7-0.4c-0.9-7.8-10.4-18.2-1.4-26.8c2.5-2.4,2.9-6,5.6-8.1c0.3-0.2,0.5-0.8,0.4-1.1
		c-4-11.4,14.4-28.8,8.9-44c-1.5-4.2,0.5-6-0.8-8.2c-4-7.3,3.1-10.8,1.1-21.3c-1.3-6.9,0.3-13.3,2-19.8c0.9-3.5,1.1-0.5,6.6-7.5
		C585.5-33,590.3-31.4,587.2-37c-4.8-8.7,11.9-8.8,2.7-15.9c-7-5.4-4-15.6-7.3-15.6c-3-0.1-5.4-1.5-7.5-3.5
		c-0.4-0.4-0.6-1.2-1.4-0.9c0.2,0.5,0.2,1.1,0.5,1.4c8.3,7.8-4,16-1.3,22.5c0.2,0.6,0.2,1.4-0.5,1.8c-3.3-18.1,11.1-6.6-3.1-29.6
		c-4.1-6.5,0.8-5.9,0.7-9c-0.3-11.9,7.5-14,4.4-17.5c-3.5-3.8-5.3-9-10.9-11c-8.1-2.9-1.9-12.9-2.4-14.6c-1.5-5.5,0.3-10.3,2.8-15.1
		c1.3-2.5,0.3-6.1,3.9-7.7c2-0.9-2.2-5.5-4.1-8.1c-6.7-8.9,7.7-16.4,1.2-21.2c-2-1.5-1.9-4-2.8-6.1c-2-4.9-9.5-8.3-9.9-13.8
		c-0.7-8.6-5.3-10.2-8.2-14c-0.2,0.9-0.4,1.8-0.8,2.7c-3.4,9.6,0.3,14.6-2.2,20.7c-0.8,2-11.7,44.6-11.9,45.4
		c-0.7,3.3-8.5,11.6-2.9,14.6c3,1.6,5.5,3.9,7.2,7c4.4,8.3-3.3,1.6,3.2,22.7c1,3.3-2.6,5.7,7.5,16.4c11,11.5,6.8,35-6.7,36
		c-11.7,0.9-3.4,15.7-23.6,25.5c-11,5.3-16,11.8-13.7,14c4.5,4.4,8.1,9.7,12.3,14.2c8.9,9.5,15.4,13,10.6,20.6
		c-5.7,9.1,8.2,13,0.2,28.8c-1.6,3.2,7.4,13.2-5.5,20.6c-0.6,0.3-1.4,0.7-1.5,1.2c-1.2,5.5-6.6,8-8.8,12.9
		c-2.1,4.9,7.2,4.1,4.7,13.3c-0.2,0.9,0.5,2,0.9,3c2.6,7.2-5,15.2-11.9,13.2c-2.8-0.8-12,0.3-10.9,4.3c4.8,17-12.8,14.6-7.7,20
		c3.8,4-1.4,6.3,8,12.1c1.1,0.7,2,1.9,2.6,3.1c4.2,8.8,26.9,15.4,9.6,26.6c-18.3,11.9-6.3,2.5-13.7,22.2c-2.3,6-7.9,9.7-9.2,16.1
		c-1,4.9-4.4,8-9.3,9.9c-4.2,1.7-6.5,16.7-0.5,25.8c2,3.1,0.1,9-3,10.9c-4.8,2.8-5.8,7.9-8.2,12.2c-0.8,1.5,0.5,1.9,1.3,2.5
		c8.5,7.3-1.7,8.4,2,19.5c2.6,7.8-3.1,11.4,2.9,14.3c4.2,2.1,1.6,3.4,5.1,10.5c4.5,9-2.3,9.5,1.2,12.1c5.6,4.1,5.2,11.8,6.7,13.8
		c2.1,2.7,3.6,5.4,1.4,8.7c-0.2,0.4-0.2,1.2,0,1.6c2,3.9,3.1,7.7-0.1,11.6c-0.1,0.2-0.1,0.6,0,0.8c3.7,3.4,1.3,7.9,2,11.8
		c1.5,8.8-14.1,7.7-7.6,14.4c6.7,6.7,4.6,14.8,3.4,22.7c-0.2,1.6-1.3,3,0.3,4.3c0.4,0.3,0.7,1.1,0.6,1.4c-1.7,4.9,1.4,10.3-1.5,15.2
		c-4.3,7.1,8.2,6.2,3.1,15.1c-3.8,6.8,3.2,12.1-3.1,16.7c-5.8,4.2,6.1,2.5,0.4,12.7c-1.5,2.6-1,4.4,0.9,6.3c2.6,2.5,2,6.8,5,9.1
		c-2.7,1.2-0.5,3.5-1.2,5.2c-0.1,0.2-0.4,0.5-0.4,0.5c-3.3-2.2-1.6,1.4-2.3,2.1c-1.4,1.5-1.2,4-2.7,5.8c-2.6,3.3,3.7,7.5,2.5,11.3
		c-0.6-0.2-3.5-5.4-4-6.2c-0.2,0.3-2.4,4.5-2.2,4.8c3.2,6.6-5.6,13.4,4.8,23.2c0.1,0.1,5.8,6.8,5.9,7c-0.8-0.1-2.2,0.1-4.2-2.7
		c-5.4-7.5-11.2-4.9-9.5-12.2c2.3-10.2-1.1-22.2,3.8-27c1.5-1.5,1.2-3-0.2-4.6c-5.3-6.4-2.5-23.4-0.7-27.8c1.1-2.7-5.4-4.4,0.9-9.9
		c3.8-3.3-2-10,2.1-15.7c1-1.4,0.8-2.7-0.5-3.6c-9.1-5.7,0.8-15.3-3.8-15.4c0,0,2.8-10.9-1-17.1c-3.6-5.8-3.6,0-5.6,1.2
		c-9.3,5.4-8,19-10.7,25.8c-1.6,3.9,4.4,6.6,6.3,15.2c0.9,3.9,7.1,21.9,4.8,23.1c-1.8,1-1.6-11.7-5-16.1c-1.7-2.2-0.8-5-2-7.6
		c-3.6-7.9-7.7-11.8-6-15.8c1.1-2.4,3.2-15.6,2.4-15.8c-0.3-0.1-1,0.3-1,0.5c-0.7,3.9-4.4,5.7-6,9c-3,6.6,3,5.6,2.1,8.7
		c-2.6,9.3,0.8,9.5,0,13.8c-1-0.5-0.8-16.7-10.6,13.3c-0.7,2.1,3.4,4.5,0.8,7.5c-7.8,9.2-11.4,8.9-9,7c13.6-11-1.8-10.5-6.5-12.7
		c-9.9-4.7,3.3-16.4-5.1-21.9c-4.5-3-0.6-9.9,5.5-10.9c8.8-1.6,11.5-0.6,16.9-7.7c1.7-2.2,7.5-0.4,0.5-9.4c-2.7-3.5-3.1,0.2-5.2,3.8
		c-0.3-1.1,0.1-2.5,0.4-3.1c3.9-6.4-4.8-9.9-4.9-10.6c-1.3-6.6-11.4-17.9-3.4-23.5c8.2-5.7,0.3-9.8,3.8-12.4
		c2.9-2.1,2.6-4.8,1.8-7.6c-0.9-3.6,1.5-6.4,2.5-9.5c1.7-5.1,7.6,0.5,11.6-3.7c5.9-6.3-4-2.1-3.2-21.5c0-0.5,0.1-1.3,0.4-1.5
		c6.9-4.3,3.7-17.6,9-23.7c2.2-2.5-3.2-8.2-0.5-15.3c1.8-4.5-4.2-6.1-3.6-0.5c0.9,8.2-4.2,8.8-10.5,22.6c-7.8,17-26.2,4.7-23.4,13.5
		c1.2,3.9-3.9,4.9-7.2,11.2c-7,13.5-23.1,13.3-17.1,17.9c5.2,4.1,4.6,10.2,3.7,16c-1.1,7.3,2.8,1.8,5.7,8.7c2.7,6.5,7.6,3.1,9.1,22
		c0.1,1.7,13.6,16.4-3.6,34.4c-5.4,5.7,1.1,14.1-5.8,19.1c-2.5,1.8-1.9,6.7-1.3,7.3c3,3.1,1.2,8.9,6.7,10.6
		c8.3,2.6,3.1,17.8-6.2,19.3c-6.3,1.1,2.1,6.7-7.8,15.7c-13.6,12.4-13.3-0.9-18.8,24.2c-1.2,5.6,1,8.6,2.6,12.8
		c4.3,11.9,11-6.9,23.6,8.8c10.9,13.5,8.9,31.4-8.4,34.8c-5.8,1.2-9.9,9.7-10.7,10.5c-2.9,2.7,1.8,1.4,2.8,8.3
		c0.6,3.9,3.3,5.8,7,6.2c10.5,1.1,4.9,21.2,3.9,31.4c-0.6,5.5,0.6,12-4.1,16.7c-0.5,0.5-0.8,1.1-0.3,2.1c7.3,15.1-16.9,12-6.8,26.7
		c4.7,6.8-8,16.1,1.3,23.5c13.4,10.7-2.7,16.3,2.8,23.4c2.3,3,1.9,7.5,5.5,10.1c7.9,5.6,12.6-5.9,22.2,0c7,4.3,4.8,14.7-2.4,19.7
		c-1.8,1.2-1.4,6.6,0.6,7.7c1.8,1,3,2.1,3.1,4.3c0.2,3.6,9.9,2.1,7.9,10.7c-1.5,6.5,4.9,8.2,5,10.4c0.2,3.8,1.4,8.5-0.4,11.1
		c-3.4,5.1-3.3,12.3-9.6,15.8c-3.1,1.7-2.5,11.6,0.9,15.3c3.5,3.8,4,7.3,1.6,11.7c-2.4,4.6-0.4,17.5,2.8,20.5
		c4.3,3.9-3.2,9.2-0.3,13.4c3.9,5.6,4.1,11.9,4.2,18.6c0.3,10.3-5.3,10.9-6.5,14.8c-2.4,8.3,7.4,4.4,5.2,12.4
		c-2,7.3,9.8,11.5,3.1,23.6c-2.6,4.7,6.1,5.3,1.9,10c-1.5,1.7-2.5,7.8-2.3,9.4c0.1,1,1.6,1.3,1.1,2.5c-0.3,0.6-3.7-2.1-2.9-3.7
		c1.5-2.7,0.3-5.9,2.2-8.4c1.3-1.8,0.5-4.3-1.3-4.1c-6.6,0.9,5.4-11.2-2.5-20.8c-5-6,0.2-9.9-4.5-12.6c-4.5-2.6-5.4-9.7-1.6-13.1
		c2.6-2.3,5-3.9,3.4-8.4c-1-2.7,3.8-8.7-4-19.5c-1.5-2.1-2.3-4.7,0.1-7.4c4.6-5.1-5.5-6.2-3.1-13.8c0.2-0.7,0.2-1.7-0.2-2.4
		c-4.3-8.8,4-14.3-0.1-18.9c-5.1-5.7-7.2-16.6-2.3-22c3.4-3.8,5.3-7.8,7.6-11.9c2.8-5.1-1-3.6,0.9-6.9c2.8-4.9-6.1-5.7-4.6-15.4
		c0.7-5-6-1.4-7.9-8.7c-0.2-0.9-0.8-1.4-1.5-1.8c-4.2-3.1-3.9-8.1-4.7-12.4c-1.5-8.3,11.6-4.2,8.4-13c-0.8-2.1-4.2-2.2-4.9-0.4
		c-1.8,5-21.9,4.1-25.5-10.7c-0.2-1-0.6-2.3-1.3-2.9c-8.9-8.4,6.8-14.2-1.5-21c-8.1-6.7-7-18.5-3.6-22.4c0.4-0.4,0.2-1.8-0.2-2.3
		c-3.3-3.4-2.4-7.7-2.8-11.8c-0.5-5.7,3.7-8.4,7.2-11.3c6.5-5.4-2.9-5.9,3.4-13.9c2.3-2.9,1.1-7.3,1.1-7.3c2.9-4.3,0.2-9.6,2.7-13.9
		c0.9-1.5,0.2-2.9,0-4.3c-0.8-6.6,5.1-7.7-0.5-10.4c-4.3-2-8.6-4.1-10.5-9c-0.4-0.9-0.9-1.6-1.2,0c-0.9,5.5-4.8,4-18.2,17.3
		c-5.8,5.8,2.9,5.4-0.8,11.5c-6.5,10.9-0.3,18.9,10.3,26.3c12.8,8.9-5.1,15.2,0,24.9c0.4,0.7-0.3,1.6-0.8,1.6c-1,0-0.1-1-0.4-1.6
		c-2.1-3.5-0.1-4.4-1-6.6c-0.5-1.2-2.3,0-2.6-1.5c7.9-1.2,11.2-12.4,3-16.5c-2.7-1.3-4.8-3.4-7.1-5.3c-0.6-1-1.3-2-1.9-3
		c-0.2,0.1-0.3,0.2-0.5,0.3c0.8,0.9,1.6,1.8,2.4,2.6c1.8,14.7-4.6,9.7-4.9,13.8c-0.6,9.3,1.7,9.4-2.2,12.4c-8.6,6.5,1.4,7,2,13.1
		c0.8,8.7,9.1,12.5,3.6,17.6c-4.2,3.9-4.1,11.4,0.4,15.1c10.1,8.2-5.2,12.4,2.3,15.7c4.4,2,2.4,4.5,1.1,7.1
		c-3.2,6.4-4.8,11.9-4.8,11.9c-2.2-1.1,1.8-9.6,2.9-11.7c4.5-8.5-4.4-4.4-2.6-11.3c3-11.9-11.6-18.6-1-28.6c1.5-1.4,1.2-2.9,0.3-4.4
		c-8.1-13.6-2.4-11-7.6-14.8c-9.3-6.9,4.2-9.3,2-18.1c-3.1-12.1,9.8-5.1,4.6-17.1c-1.5-3.5-9.3-8.4-2.2-20.6
		c1.4-2.3,2.3-4.1,0.1-6.8c-2.6-3.2-0.6-7.6,3.4-9.4c0,0,5.4-5.8,11.4-9.6c7.4-4.7,6.3-12.2,2.4-14.2c-5.3-2.8-4.9-8.8,0.8-10.8
		c6-2,1.3-6.4,5.7-10.2c1.4-1.2,0.3-2.7-0.6-3.9c-6-8.5,1.6-9.7,2.7-14c2.5-10.3-2.9,0.1-15.8-5c-13.3-5.2-2.1-24.8,2.5-27.6
		c1.2-0.8,0.1-1.6-0.4-2.3c-3.8-6.1-3.1-8.9,2.9-13.1c4.6-3.2-0.6-6.8,11.4-10.6c0.9-0.3,10.7-4,9.4-9.9
		c-3.2-14.7,10.4-10.6,11.6-14.1c0,0-11.2-10.2-9.4-22.1c0.4-2.5-1.7-6.4,0.1-7.9c4.9-3.9,2.8-9.5,4-14.2c3.3-12.6,8.8-8.2,8.9-13.9
		c0-3.4,3.3-6.3,1.4-10.3c-1.2-2.4-3.6-3.8-4.4-6.6c-2.5-8.1,2.2-9.6-9.3-21.3c-4.5-4.6-8.3-8.9-5.8-15.9c1.4-4-2.1-8.3-6.7-5.1
		c-5.1,3.6-6.8,0.3-8.6,2.7c-5.9,7.7-18,3.3-17.1,12.6c1.2,13.1-9.3,9.6-7.8,18.6c1.2,7.7,0,20.3-7.5,22.9
		c-4.5,1.6,2.3,4.4,1.3,15.8c-0.7,8.5-7.3,9.1-5.9,16.4c0.7,3.8-4.1,9-2.7,11.4c3.4,5.7,3.3,12.3,4.8,18.5c0.7,2.8-1.1,5.9-2.9,8.2
		c-7.9,10.1,6.8,26.2,2.6,33.9c-3.3,6-6.6,23.2-13.6,27.4c-4.6,2.7,1,11.6-0.6,16.2c-1,2.7,0.4,5.2,1.9,7.4c0.6,0.9,1.7,1.7,1.1,2.8
		c-3,5.1-3.1,12.6-9.5,14.8c-6.6,2.3-9.5,8.2-12.1,13c-6.7,12.6-1.9,11.7-1.9,15.5c-1.7-0.8-4.3-3.5-3.3-5.5
		c2.8-5.3,1.1-12.6,7.1-16.5c0.5-0.3,1-1.1,1-1.7c0-6.9,6.5-2.5,12.5-13.4c4.4-8-2.8-13.5-1.1-16.6c0.6-1.1,1.1-2.6,0.4-3.5
		c-2.5-3.3-0.7-7-1.2-10.5c-0.9-6.5,4.4-3.2,7.8-13.6c6.8-21.1,8.2-17.9,6.5-20.9c-14.8-27.3,7.1-33.7-5.7-53.8
		c-3.7-5.8,3.1-7.4,1.5-14.5c-2.1-9.6,11-8.6,4.5-24.5c-6.1-15.1,7.6-5.7,7.6-23.7c0-2.7-1.8-15.2,4.4-18c2.6-1.2,3.3-3.2,2.9-6
		c-0.7-4.7,3.3-12.2,7.4-14.4c0.9-0.5,9.2-0.7,10.5-3c4.5-7.6,13.7-2.3,10.6-7.3c-2.7-4.5-4.3-6.1-3.1-9.6c6.4-18.1-3.2-8.5,9.7-36
		c0.2-0.3,2.3-9.1,2-9.2c-4.2-1.3-5.9-6.1-9.9-7.3c-4.5-1.4-8.1-3.6-9.7-8.3c-0.9-2.5-2.4-0.7-2.5,0.1c-1.5,6.5-5.9,12-6.7,18.8
		c-1.1,9.9-7.3,8.8-10.6,13.4c-6.2,8.8-12.1,3.3-8.7,12.9c8.7,24.4-21,29.3-26.5,38.2c-4.5,7.2-9.8,13.4-18.3,16
		c-2.1,0.7-8.3,6.6-7.9,7.9c2,6.4-1.2,11.2-5,15.7c-3.1,3.7-2.3,24.6-14.6,30.2c-1.1,0.5-1,1.1-0.5,1.9c1.9,3.1,1.4,6.8,2.8,10.1
		c2.5,6.3-2.6,8.6,0.8,16.7c0.6,1.4,1.3,3.2,0.6,4.3c-5.5,7.5,6.3,8,10.5,30.6c1.8,9.8-5.8,8.4,4.2,14.2c7,4,26.8,23.8,22.9,53.1
		c-0.9,6.9-15.5,11.3-9.9,28.9c0.9,2.8-4,13.5-5.4,15.2c-1.6,2-0.5,3.9,0.7,5.6c5.1,7.1-4.4,7.6-3.9,22c0.3,6.9-10.4,12.3-15.2,14
		c-10,3.6-3,11.2-8.6,20.1c-4.1,6.6,1.1,8-1.2,20.2c-0.9,4.7-5.6,7.5-5.5,12.5c0,1.1-1,1.9-1.9,2.5c-20.5,12.6-2.3,42-27.8,43.7
		c-10.7,0.7,17.5,15.3,13.9,29.1c-2.1,8.2,7.6,10.3,5.6,19.1c-1.2,5.2,1.1,10.3,1,15.5c-0.2,14.4,3.4,13.8,4.2,20.7
		c1,8.5,0.8,12.5,7.2,16c0.9,0.5,2.1,1.5,2.2,2.3c0.3,4.4,3.9,7.4,5,11.3c2.5,9.4,7.7,1.8,15.7,17.6c5.1,10.1-2,13.1,1.5,19.1
		c2.7,4.8-7.8,12.3,4.1,15c9.7,2.2,5.6,12.1,9.4,16.3c12.2,13.3-0.6,11.4,4.1,20.2c1.5,2.8,0.6,6.2-0.6,8.9
		c-3,6.9,2.5,10.5,2.7,15.9c0.2,4.7,2.7,8.7,3.3,13.2c0.4,2.7,3.1,2.4,4.7,3.1c9.3,4.1,4,9,8.8,11.5c6.6,3.5-2.8,5.8,2.6,27.1
		c1.3,5,3.3,10.5-0.4,15.6c-1.5,2.1,1.9,8.7-4.7,13.5c-0.9,0.7-2,1.8-2.2,2.8c-1.4,8-11.5,11.3-11.3,17.1c0.1,1.3-5.6,9.2-4,15.2
		c0.2,0.9,0,2.4-0.6,3.1c-4,5-2.7,10.2-0.9,15.4c1.2,3.4-1.9,12.4,0.5,15.4c3.8,4.7,0.3,10.7,3.9,13.8c2.6,2.2,4.3,4.8,4.5,8.3
		c0.3,5.4,3.4,10.2,2.6,15.8c-0.4,2.5,1.4,4.9,1.7,7c1.1,8.5,9,12.3,12.1,19.2c1.6,3.6,2,13.8,1.5,14.5c-0.3-0.2-0.7-0.4-0.9-0.6
		c-1.4-3.7,2-10.2-10.7-22.4c-9.3-8.8-6.2-30-11.3-35.2c-9.4-9.7-9-33.6-9-33.6c-3.4-3.9-2.1-13.6-0.4-18.8c2.8-8.8,0-13.4,3.3-15.9
		c0.6-0.5,1.4-1.2,1.4-1.9c-0.1-5.3,3.7-8.1,6.9-11.4c7.3-7.7,1.3-6.5,5.7-10.2c1.5-1.2,3.7-2.4,3.9-3.9c2.2-12.7,4.2-13.5-1.2-29.8
		c-1.8-5.4,3.5-23.7-9.7-25.9c-4.8-0.8-2.6-5.5-7.3-13.8c-2.4-4.3,1-4.8-1.9-9.7c-3.5-5.8-4.2-11.6-2-18.1c1.1-3.1-0.9-6.6-0.4-10.1
		c0.5-4.2,1.6-8.6-3.4-11.3c-2.9-1.6-0.8-9.1-3.8-10.4c-6-2.6-13.4-6.9-12.1-13.1c1.5-7.5-0.2-15.1,1.3-22.7c1.2-6.2-4.3-9.2-8.6-12
		c-9-5.8-9.7-18.7-17.3-23c-7.7-4.4-2.8-12.7-8.3-23.1c-5.1-9.6,0.3-17.2-4.4-25.3c-0.3-0.5-0.5-1.4-0.3-1.9
		c4.4-9-6.2-12.9-5.5-24.4c0.7-10-3.8-6.1-7.3-12.4c-2.9-5.3-10-13.7-9.7-8.7c0.1,2.5-1.1,3-3.2,3.9c-6,2.5-7.7,11.9-3.4,17.1
		c9.6,11.6-2.5,19-2.3,19.7c1.1,4.6-1.4,9.5,1.1,13.9c2.6,4.5,2.8,7.8-1,11.3c-7,6.4-2.8,15.8-17.3,13.9c-8.7-1.2,2,4.5-4.3,11.4
		c-3,3.3-2.7,7.1,0.1,10.3c2.7,3,1,8-3.4,9c-9.9,2.4-9.5,16.8-11.2,20c-0.8,1.5,0,2.8,0.7,4.2c4.2,8.2,1.6,5.9-3.5,18.3
		c-2.1,5.2,28.4-0.4,19.8,13.8c-5.2,8.7-11.5,15.2-3.8,21.8c2.5,2.1-1.9,0.9-3.1-1.1c-0.5-0.8-0.6-2.3-1.7-2.2
		c-1,0.1-3.3,3.7-0.3,5.1c2.7,1.3,9.2,8.9,6.1,15.1c-1-2.2,1.3-8.8-7.9-14.8c-3.6-2.4,5.3-20.4,8.7-24c6.6-7.2-7.8-9.7-7.8-7.2
		c0,7.2-7.4,7.4-9,11.4c-3.9,9.5-9.5,12-16.4,14.7c-1.9,0.8-3.3,2.9-5.8,2.3c10.1-6.4,9.9-3.1,18.4-12.7c0.4-0.4,1.1-0.7,1.2-1.1
		c0.5-8.2,11.3-9,10.1-15.3c-0.4-1.9-2.4-0.9-3.7-1.3c-5.1-1.5-6.4-1.5-7.3,2.7c-1.3,5.6-7.1,8.5-11.4,11.5
		c-4.5,3.2-7.2,8.4-12.4,10.7c-1.1,0.5-2.4,2,0.7,2.5c2.7,0.5,2.6,3.5,2,5.4c-1.2,4.3,0.7,8.7-1.1,13c-2.3,5.5,9.4,7.4,2.6,18.2
		c-1.8,2.8-3.8,5.6-3.9,9.2c0,2.9-4.4,3.3-1.8,6.6c7.7,9.3-6.9,20.5,0,22.6c1.6,0.5,10.6,8.1,3.3,12.3c-10,5.8,3.6,6.9,0.2,14.5
		c-1.2-0.8-0.5-2.1-0.9-3.2c-0.6-1.5-1.6-2.4-2.7-3.5c-5.8-6,3.8-8.9,4.6-11.8c0.6-2.2-1.5-3.8-2.5-4c-2.1-0.4-0.8,1.5-0.8,2.5
		c0,1-0.6,2-1.2,1.9c-1.4-0.2,0.1-1.1,0-1.7c-0.3-2.5,0.6-5.2-2.6-6.8c-5.7-2.9,7.2-13.6,0.5-21.8c-1.5-1.9-2.2-4.5,0.3-6.5
		c1.9-1.5,1.1-3.5,1.2-5.2c0-0.6-1.4-0.2-2.2-0.3c-4.9-0.3-3.2,8.5-4.1,9.3c-0.2-0.9-0.4-1.8-0.6-2.7c-0.6-2,1.6-5.1,0.1-5.6
		c-2.4-0.8-2.5,2.9-4.1,4.2c-1.6,1.3-4.2,2.1-2.7,5c1.2,2.3,3.2,3.2,5.8,2.6c4.9-1.1,4,10,1.1,11.8c-0.2-2.1,1.6-3.6-0.4-6.1
		c3-1.9-1-4.5,0.1,0c-1.1,0.6-0.4,1.7-0.8,2.5c-2.3-2.1,2.1-6-2-6.5c-2-0.3-4.1-2.3-5.2,1.1c-0.1,0.4-0.2,1.1-0.9,0.9
		c-0.6-0.2,0.9-2.9,0.8-3.3c-2-6.8,6.5-15.5,12.7-15c6.6,0.6,8.9-9.4,5.4-13.8c-2.6-3.3-3-6.6-2-10.6c0.9-3.4-0.4-7,0.4-10.4
		c0.2-0.6-0.3-1.3-0.7-1.3c-3,0.6-6.6-1.6-8.9,2c-2.5,3.9-21.6,4.4-25.7,22.4c-0.9,3.8-4.9,5.3-7.3,7.9c-4.9,5.1,6.6,6.6-1.1,13.9
		c-5.8,5.4-10.2,5.6-8.9,7.6c1.3,1.9,0.6,3.8-0.1,5.4c-3.9,9.5-1.2,18.6,2.8,27c2.5,5.3,2.4,18-4.7,18.5c-3,0.2-4.4,1.8-4.8,5
		c-2.2,16.9-9.7,5.4-10,14.5c-0.5,15.1-8.4,5.3-12.5,16.8c-0.9,2.5-2.5,3.8-4.8,3.6c-7.3-0.5-12,5.4-18.4,7.1
		c-0.7,0.2-6.5,9.2-12.2,1.9c-0.9-1.2,1.3-0.7,2.2-0.1c7,4.8,5.7-1.9,10.6-3.8c8.7-3.5,8.2-7.3,14.2-6.7c9.1,0.9,6.2-10.6,13-10.3
		c4.6,0.2,5.9-6.1,5.1-9.8c-1.9-9,8,0.6,9.8-13.6c0.4-3.4,0.8-6.2,4.4-7.6c1.2-0.5,1.3-2.1,1-2.6c-2.6-4.2-1-17.9-6.3-14
		c-6.9,5.2-12.3,0.5-13.7,4.5c-2.7,7.7,6.7,7,3.7,14.7c-0.6,1.4-1.8,1.7-0.9-0.1c1.1-2.4,0.7-4.4-1.5-6.1c-2-1.5-2.4-4.2-3.8-6.2
		l-0.1,0c0.4-4.2,3-6.1,6.9-5.7c6.4,0.6,10.2-4.4,15.2-6.7c1.8-0.8-0.1-2.1-0.7-2.9c-8.1-10.3,4.1-15.1,1.2-22.5
		c-1-2.6-0.7-5.7,3.3-6.4c2.7-0.5,4.6-2.7,6.8-4.2c5.1-3.7-7.9-5.7,1.4-14.6c11.1-10.6,4-15.4,16-21.7c5.1-2.6,9.2-7,15.4-7.8
		c4.9-0.6-0.1-10.5,7.1-22.8c3.1-5.4-3.5-4.9,3.5-11.4c6.7-6.3-7-7.9,2.2-17.2c7.1-7.1,9-3.1,13.4-8.3c8.3-9.8,12.5-3.9,13.4-14.7
		c0.4-4.8-11.6-4.3-7.3-15.2c5.4-13.8,20.6-7.3,17.7-22c-1.1-5.4,7.6-4.8,5.2-9.1c-2.6-4.4,1.5-6.1-0.1-18.2
		c-0.9-7,4.2-12.2,11.1-9.9c3.7,1.2,6.3,1.5,8-2.9c0.7-1.9,6.7-5.6,3.5-9.8c-15.8-20.6,7.7-24.9,4.6-35.9c-2.1-7.2,14.9-23.1,4-29.9
		c-5.5-3.5,0.5-4.8-1.3-9.1c-2.7-6.5,2.4-6.3-4.4-12.3c-1.5-1.3-3.5,0.4-5,1.3c-7.3,4.7-12.1,2-11.8,6.6c0.3,4.3-1.3,8.4-0.6,12.9
		c1.7,10.8-1.1,12.4-6.1,18.1c0-2.6,2.3-3.9,3.4-5.8c5.3-8.6-8-7.7-4.6-1.8c3.3,5.7-4.8,8.3-0.5,10.4c-0.7,1.3,0.5,3.7-2.3,3.7
		c0.8-3.4-0.5-7.2,2.2-10.3c1.5-1.7-2.4-4.8-2.5-0.5c0,2.3-0.2,4.5-2.3,6c-2.3,0.6-2.3,2.5-1.3,4.6c1.1,2.3,2.6,0.6,3.9,0.1
		c0.4,2.6-4.3,1.6-3.3,4.7c0.7,2.1,3.2,2.8,3.8,4.6c3.2,10,0.1,11.2-3.7,12.1c-3.2,0.7-4.1,3.8-7.9,3.6c0.7-0.7,6.4-4.8,8.8-5.4
		c7.5-1.9-4-16-4.5-17.5c2.4-1.3-1.2-6.8-0.2-1c-6.3-3-2.7,7.4-3.5,11.3c-0.2,0.8-1.3,2.4-1.2-0.1c0.5-8-2.9-10.3,3.4-15.7
		c19.1-16.3-6.7-13.9,13.8-32.1c6.2-5.5-1-4.6,10.1-8.3c35-11.8,20.5-22.6,25.2-25.3c3.4-1.9,4.7-5.8,7.8-8.2
		c4.3-3.3-3.8-6.9-5.7-16.9c-0.4-2.1-4.5,0.6-3.9,1.9c2.1,4-1,1.1-5,24.5c-1,6.1-5.5,9.1-11.6,8.4c-8.6-0.9-20.4,15.4-21.3,17.4
		c-2.4,5.3-8.8-2.2-13.1,8.5c-3,7.5-11.5,12.4-19.1,10.8c-2.2-0.5-3.3,0.1-4.3,1.8c-6.6,10.8-10.3,1.9-7.4,14.3
		c0.6,2.4,8.2,5,3.2,10.1c-5.5,5.6-3.4,16-12.5,17c-1.4,0.1-1.7,2.2-3.3,1.7c2.9-4.7,9.6-3,8.6-7.3c-0.6-2.3,5.5-11.6,6.1-12.4
		c4.1-5.4-4.7-3.9-5.1-13.9c-0.2-5.8-8.9,2.8-8.7,5.2c0.5,7.4-1,15.9-8.4,15.5c-10.8-0.6-4.9,6.2-8.6,9.4c-1.1,0.9-1.3,2.5-0.6,3.3
		c3.1,3.9-0.2,6.8-1.9,9.2c-11.4,16.3-8.1,6.3-5.9,17.8c0.2,0.9,1.6,1.1,1.1,2.3c-1-0.5-2.1-1-2.3-2.1c-1-4.8-4.6-6.3-1-10.4
		c9.1-10.4,10.6-13.1,8.3-16.4c-0.6-0.8-0.9-2.7,0-3.5c2.9-2.7,0.7-8.1,3-9.6c4.4-3.1-3.2-3.2-2.7,2c0.2,2.5-1.7,6-3.5,6.9
		c-0.6-1.6,1-2.2,1.6-3.2c0.5-0.8,2.1-8.6-1-6.4c-1.4,1-2.8,1.4-4.4,0.9c-0.1-0.1-0.3-0.3-0.4-0.4c-4.2-2-7.6-0.7-9.2-7
		c2.3,1.8,2.8,5.7,10.2,5.2c23.8-1.4,23-2.7,23.7-9.7c1-9.6,2.1-11.7,11.3-14.3c10.1-2.9,6.1-11.6,14.8-8.9
		c4.5,1.4,13.5-1.8,17.2-12.7c3-8.7,11.8-0.9,13.2-9.4c0.5-2.9,4.1-2.4,5.2-4.7c2.3-4.9,6.9-7.3,11.3-9.8c4.8-2.9,12.7,1.9,13.7-6.5
		c0.9-6.9,2.3-13.7,4.7-20.3c1.8-4.8-5.8,0.7,8.3-15.6c6.2-7.2-3.4-6.9,1.6-15.9c4.9-8.7,10.5-5.9,9.3-18.4
		c-1.2-12.5,10.3-7.8,7.2-17.5c-3.2-9.9,1.1-14.7,1.1-14.7c-5-4.5,0-11.7-5.2-16.8c-4.9-4.9-2.5-14,1.8-19.9c9.9-13.6,0-7.4,5-26.3
		c1.8-6.9-0.7,2.2-2.9-13.5c-0.8-5.5-6.4,5.4-5.8,9.1c0.6,3.5-2.6,6.4-4.1,9.6c-1.7,3.6-1.3,7.5-2.7,11.1c-0.7,1.7,9.7,7.2,1.2,14.9
		c-5.8,5.3,5.9,17-4,24c-2.2,1.5-1.2,3.8,0.2,11.2l0,0c-1.2-0.3-1.9-1.2-1.9-2.3c-0.2-4.8-3.4-9-3.1-14c0.1-2.5-4.3-4.9-7.2-4.4
		l0.1,0.1c2.3-2.4,2.2-5.6,2.8-8.5c1.5-6.7-8.8,6.1-20.2,8.3c-1.6,0.3-1.7,1.5-1.8,2.7c-0.4,4.9,0.9-1.2-6.6,10.9
		c-8.5,13.6,5.8,33.4-6.2,42.2c6.3-14.2-0.4-24.2,2-38.4c0.4-2.1,6.8-6.7,1.4-9.9c-8.5-5.1-10.9,11.6-21.1,18.6
		c-3.8,2.6-5.1,8-8.4,11.7c-0.8-0.7,5.6-10.6,4.3-11.4c-0.4-0.3-1.5-0.1-1.9,0.3c-7.2,7.3-11.9-0.8-13.3,13.2
		c-0.5,5.5-4.8,9-6.2,13.9c-0.3,0.9-4.4,2.2-5.8,1.5c1.2-0.4,4.7-1.5,4.9-2.3c1.2-4.4,5-7.6,5.4-12.5c0.1-1.6,1.9-10.7,4.6-10.6
		c6.5,0.1,10.4-5.6,16.2-7.3c3.3-1,6.7-4.3,7.9-8.6c1-3.5,4.8-5.2,6.5-8.6c1.6-3.2,9,2.6,10.3-0.1c1.2-2.7,6.4-3.9,3.4-8.3l-0.1,0
		c2.2,1.2,2.7,0,3-1.9c1.2-7.6,6.4-12,6.6-15.3c0.2-2.2,1.2-4.1,2.5-5.8c-2.7,0.4-4.8,2.3-7.3,3.2c-6.2,2.2,4.7,7.4-3.9,11.7
		c-0.2-0.1-0.3-0.3-0.5-0.4c1.9-1.9,4-3.6,1.7-6.9c-1.7-2.4-3.1-2-4.4-0.3c-2.6,3.5-6.6,5.5-9.4,8.9c-2,2.4-5.7,2.1-8.8,1.3
		c-8-2-4.1,6-4.8,11c-1.6,12.5-11.9,7.4-14,9.8c-4.4,5.2-12.7,3.3-12.9,11.6c-0.2,12.5-15.9,25.2-31.2,40c-3.1,3-3.5,8.1-8.3,10
		c-1.9,0.7-1.1,3.6,0.1,5c3.4,4.3-1,7.8-0.9,9.7c0.2,4.5-2.1,6.4-6.3,6.6c-1.2,0-2.9,1.6-3,0.9c-0.2-2.3,7-1.8,6.6-3.5
		c-0.3-1.2-1.3,0.3-2.2,0.1c-6.2-1.2-7.5-3.8-13-8.1c-5-3.9-5.3,3.7-11.5,2.3c-4.9-1.1-6.6,0.2-7,5.2c-0.2,2.4,1.3,6.4,1.2,6.7
		c-6-9.9,0.4-14.1,6.1-13.3c1.5,0.2,3,0.2,4.2-1.1c5.9-6.4,9.2,2,13.5,0.7c-2,2.2-0.2,2.7,1.5,3.3c1.8,2.1,9.3,5,6.3-1.3
		c-0.7-1.5-1.5,0.3-2.3,0.1c2.1-2.7,0.2-6.7,3.1-9.2c0.6-0.5,1.3-1.3,0.6-2.1c-2.4-2.7-8.6,8.4-9.2,9.2c0.6-3.4,1.6-6.6,4.7-8.6
		c8.2-5.5,3.4-7.6,10.1-10.5c8.1-3.5,3.8-11.1,12.9-13.7c4-1.1,10-10.1,9.6-14.1c-0.4-4.1,2.9-8.3,6.9-8.7c2.3-0.2,3.4-0.8,2.7-3.5
		c-0.6-2.7,3.5-9.3,6.2-10.6c12.1-5.8,10.1-7.3,14.7-7c11.1,0.7,8.8-15.1,5.7-14.8c-5.5,0.5-3.8,7.8-4.8,8.3
		c-0.5-2.2-0.7-5.4,0.3-6.2c4.8-3.8,8.2-10.3,16.2-8.5c8.1,1.8,5.6-4.6,7.7-4.8c4.7-0.4,6.2-5.6,10.6-6.7c8.5-2.2-5.8-14.2,8.1-21.2
		c5.6-2.8,3.8-6.2,9.2-6.6c2.7-0.2,2.7-3.6,4.7-4.6c5-2.6-2.3-7.7,2.9-10.4c2.5-1.2,4.7-8,3.8-8.6c-1.6-1-1.9,2-3.1,2.6
		c-15.9,8.2-23.5-3-33.8,7.7c-6.5,6.8-10.6-4.4-11.4,0c-1.1,6.3-4.9,9.1-11.2,7.5c-6.4-1.6-6,0.6-12.3,1.9c-0.5,0.1-1.4-0.2-1.6,0.1
		c-2.4,4.2-6.9,6.5-9.3,10.6c-0.6,1.1-0.7,2.5-2.1,3.1c-4.9,1.8-23.7,12.5-25.5,17.4c-1.1,2.9-2.4,5.6-4.6,7.8l0.1,0
		C98.4,552.9,98.1,552.4,97.8,552L97.8,552z M217.3,578.1c4.7,4.3,5.6-13.2,3.1-15.9c-0.6-0.7-1.2-0.9-1.5-0.1
		C214.1,576.7,218.8,569.5,217.3,578.1c-1.8-6.9-2.5,1.4-0.6,2.2C216.9,579.6,217.1,578.8,217.3,578.1z M572.4-145.3
		c-1.7,4.5,0.8,9.2-0.5,13.5c-1,3.4,1,6.2,0.5,9.4c-0.2,0.9,1,2.4,2.5,2.2c2.6-0.3-0.5-8.6,0.5-10.5c3.8-6.9-2.3-9.7-3.5-17.2
		c-0.1-0.8-0.2-1.6-0.4-2.3C567.2-148.1,571.5-145.9,572.4-145.3z M197.3,527.2c6.9-2.3,9.3,1.6,15.5-5.8c2.4-2.8,0.3-6.1-0.9-6
		c-4.2,0.3-2.7,5.2-6.7,5.7C201.4,521.7,199.6,524.7,197.3,527.2c-6.9,2.4-7.9,4.8-5.2,11.9c1,2.7-2,4.4-0.2,5.5
		c1.1,0.7,2.4-0.8,3.6-1.3c2.4-0.9,2.4-2.8,2.3-5C197.7,534.6,195.8,531,197.3,527.2z M596.8-54.6c3.9,15-8.8,11.2-4.3,17.4
		c8,11,3.8,12.1,9.7,13.5c3.8,1,3.6-2.5,6.4-4c5.4-2.9-0.6-11.1,0.6-18.1C610.3-52.9,602.7-49.9,596.8-54.6
		c-0.2-12.8-8.5-14.3-7.4-10.4C590.6-60.6,591.5-56.1,596.8-54.6z M496,105.8c1.4-0.2,3.7,0.6,4-0.8c1.6-7.2-14.9-7.2-3.3-22.8
		c9.9-13.4,6.7-16.4,12.4-17.8c5.7-1.4-6.1-7.9,0.3-14.2c3.4-3.4,5-7.8-1.5-16.7c-6.6-9.2,5.1-12.5-1.1-16c-7.4-4.1-5.1-6-12.4-14
		c-6.9-7.5-5.8,9.6-19.5,15.1c-14.1,5.7-7.9,18.9-13.6,34.8c-5.6,15.3-6.4,20.9-13,25.7c-0.7,0.5-1.7,1.7-1.5,2.3
		c1.5,5.7-2.2,10.2-3.3,15.2c-2.3,9.8-8.7,8.1-15.6,13.2c-2.7,2-0.4,1.7-1.1,12.8c-0.7,11.1-0.9,7.9,5.3,19.9
		c6.4,12.4-3.3,10.4,2,22.4c2.2,4.9,3.7,10.6,1.4,15.3c-2.5,5.3-2.2,11.1-4.8,16.1c-0.7,1.3,0.4,1.5,1.1,2.2
		c3.7,3.4,4.4,10.1,0.3,12.9c-4.2,3-2.5,6.2-1.3,15.1c1.3,10.4-3.8,12.1-16.8,29.3c-2.3,3.1-4.3,6-7.8,7.8
		c-16,8.2-6.1,24.2-23.3,29.7c-0.6,0.2-2.2,0.7-1.6,1.1c2.5,1.6,2.5,5.7,6.5,5.8c19.3,0.7-2.1,33.4-2.7,41.6
		c-0.4,5.5,0,11.3-2.5,16.5c-0.8,1.6,0.8,3.1,2.2,1.3c4.1-5.4,16.8-7.9,18.7-17.8c1-5.5,3.5-1.2,4-6.6c0.5-5.2,4.4-9.7,8.2-9.6
		c3.2,0.1,6.2-1.2,9.5-0.3c2,0.5,5.1-0.3,5.9-2.6c2.9-8.6,11-15.1,10.8-25c-0.1-2.8,9.1-8.8,3.3-16.5c-2.2-2.9,1.9-20.1,5.5-24.4
		c-2.7-7.9,7.6-10,6.3-29.4c-0.2-3.4,5.7-7.8,8.8-6.5c7.3,3.1,3.7-11,7.6-12.2c4.8-1.5,4.2-6.9,7.4-9.5c1.1-1-5.1-14.8,11.1-21
		c7.8-3-2.8-3.5-6.3-11.1c-2.9-6.3-12.1-7.6-12.8-15.5c-0.3-3.2-8.3-17.1,3.4-23.6c4.2-2.3-2.4-7.4,2.6-13.3
		C483.2,109.1,489.3,106.8,496,105.8z M249,466.8c-0.7-5.9-4-9.7-5.5-14.3c-0.9-2.7-9.1,5.9-1.5,10.6c5.1,3.1,6.2,6.3,5.4,12.3
		c-1.1,7.5-9.7,8-7.5,10.9c3,4,11.3,14.4,2.8,21.4c-7.2,6,1.4,9.6,1,14.2c-0.3,3.7-2.8,7.4-0.6,11.3c0.2,0.3-2,3.2-1.4,4.3
		c5.6,11.1-11.1,18.6-8,23.6c1.5,2.4-0.3,5.2,1.5,7.3c3.2,3.7,5.3,7.7,3.3,12.8c-1.1,2.7,5.9,3,2.4,7.9c-5.8,8,5.1,19-6.8,26
		c-4,2.3,2.4,14.2-9.2,22c-7.9,5.2,3.2,10.8-1.2,16.5c-14.7,19.1,15.5,18-5.5,36.5c-4.9,4.4,1.2,5.4-3.5,11.7
		c-2.8,3.7-5.3,7.6-10.3,8.9c-1.7,0.4-2.2,1.7-0.6,3.4c6.6,6.8,0.1,17.9,5.4,20.8c2.4,1.3,0,8.5,7.1,3.9c4.3-2.8,4.1-6.4,7.9-7.7
		c5-1.7-0.7-11.3,5.6-17.9c0.8-0.8,0.5-1.7,0-2.6c-6.1-11.4-5.2-33.6,4.5-42.5c16.8-15.4,15.3-21,22.9-21.7
		c21-1.9,15.3-48.8,28.3-66c10.6-14.2-7.4-41.5-20.6-42.2c-11.4-0.6-2.1-17-4.5-26.1c-3.8-14.4-15.3-12-12.2-27.1
		C249.2,478.3,247,471.9,249,466.8z M445.2,370.3c-5.5-2.1-8.3,5.5-5.6,10.7c2,4,2.1,0.1-5.2,18.4c-2.4,6-2.9,5.9,3.7,7.7
		c2.4,0.7,3.5,3.1,2.9,4.1c-1.7,3.1,0.4,5.9-0.3,9c-0.7,2.8,0.1,6.2,2.7,8.6c3.2,2.9,4,12.2,6.8,4.3c0.4-1.2,1.4-1.5,2.2-2.2
		c8.2-7.3-1.8-9.5,4.8-13.3c1.5-0.9,2.1-1.9,1.7-3.6c-2.2-9.6-0.1-19,2.3-28.1c1.5-5.7,0.4-11.6,2.7-17.1c0.2-0.4-0.5-1.2-0.6-1.8
		c-0.5-8.4-7.4-17.2-1.5-20.5c5.3-3,0.2-5.6,1.5-7.6c3.9-5.8-1.3-10.2-2.2-15.2c-0.2-1.1-1.5-1.5-2.5-1.8c-1.4-0.4-4,9.2-3.8,10.9
		c0.4,4.1-1.3,6.8-3,9.7c-6,9.9,3.6,14.4,3.2,18.8C454.8,365.5,450.1,369.8,445.2,370.3z M541.8-270.5c0.3-0.4,0.8-0.9,1.1-1.5
		c10.1-26.4-11.6-16,1-37.4c1.8-3,2.6-5.8,2.6-9.4c0-17.7,6-17,3.2-25.6c-2.3-7.2-2.1-14,1.7-20.5c0.6-1.1,0.1-2-0.3-2.6
		c-3.1-4.3-4.5-9.4-7.1-13.7c-8.3-13.5,4-13.6,1.6-20.9c-2.2-6.9,6.8-13.1,7.3-22.7c0,0-8.7,12.3-13.7,16.1
		c-9.2,7.1-5.2,9.2-8.1,12.7c-5.5,6.6,4.5,11.6,5,23c0.4,9.6-1.1,18.8-7.1,26.7c-3.6,4.8,2.5,2.7,0.6,16.2
		c-1.1,7.6,18.8,17.6,5.4,32.1c-4.9,5.3,7.7,15.7,5.8,26.9C540.8-270.6,540.7-270.1,541.8-270.5z M510.9-83.5
		c-6.9,9.3-10.2,17.1-20.9,13.5c-4-1.3-6.6,0.3-6.5,4.7c0.1,4.6-1.2,9-0.8,13.8c0.3,4,2.3,22.4,6,20.1
		c21.9-13.4,21.1-12.2,21.9-15.7c4.7-22.3,27-18.9,16.6-26.8c-10.5-8-10.9-26.9-11.5-27.6c-3-3.6-3.7-7.7-3.3-12.2
		c0.2-2.3-2-2.4-3.2-3.2c-1.5-1-1.5,1-2.1,1.7c-4.3,5.4,5.2,11.4,4.1,15.3C509.4-93.1,514.9-88.9,510.9-83.5z M612.1-20.6
		c0.4-7.9-4.9,5.9-14,0c-2.5-1.6-5-3.2-5-6.8c0-1.2-1.6-3.6-2.1-2.9c-2,2.6-5.1,3.4-7.3,5.6c-4,4.2-5.9,10.2-11.6,13
		c-1.5,0.7-1.6,3.1-0.5,4.4c5.6,6.7,0,13.8,4.7,16c9.4,4.6,1.3,7.8,3.2,12c2.3,4.9,1.4,7.9-3.1,11.1c-3.4,2.4-3.5,6.8,0,9
		c8.6,5.5,2.7-14.9,10.7-18.4c0.7-0.3,0.9-1.6,1.4-2.4c9.2-14.5,5-4,15.4-15.1c7.6-8.1,9.7-4,9.2-8.7
		C612.7-9.4,610.8-14.9,612.1-20.6z M265.9,657.6c-0.8-0.1-6.8,0.7-7.9,3.8c-1.6,4.7-6.7,5.1-8.2,8.7c-4.2,9.9-12.4,3-10.7,26.1
		c0.9,13.4,6.6,11.3,3.9,17.4c-2.4,5.3-1.9,6.1-1.2,5.3c1.3-1.5,4.6-0.7,4.5-4c-0.1-4.2,8.9-11,4.5-18.4c-0.4-0.6-0.5-1.7-0.2-2.4
		c1.7-4.3,0.1-9.4,3.2-13.5C257.5,675.7,248.2,671.6,265.9,657.6z M127.8,955.8c49.7-38.1,13.9-24.2,9.6-40.4
		c-0.8-2.8-3.5-1.1-3.5,0.8c-0.1,4,5.3,6.1,2.9,9.1c-4.7,5.9-9.3,26.2-10.4,28.9C126,955.1,125.8,956.2,127.8,955.8z M578-478.7
		c-3.3-6.4-3.9-7.6-5.5-7.3c-1.7,0.4-3.2,1.3-3.7,3.6c-2.5,11.5-11.4,7.2-7.3,21c3.4,11.5-9.9,37-5.9,33c15.5-15.1,5-19.1,13.3-27.2
		C575.3-461.8,576.1-470.4,578-478.7z M203.2,528.6c-7.1-0.5-2.8,3.4-3.3,8.5c-0.5,5.2,3.8,3.8,5.3,1.7c3.8-5.1,7.2-1.4,15.1-10.9
		c1.8-2.1,1.9-5.2,4.2-6.9c5.2-3.9-3.9-13.4,4.3-19.3c2.5-1.8-0.6-6.3-1.6-4.4c-1.4,2.7-4.2,2.5-6.5,3.5c-8.9,3.7-3.4,6.2-5.4,8.7
		c-3.4,4.5,4.9,8.8-0.4,13.3C211.2,526.1,208.1,530.9,203.2,528.6z M393.6,572c-2.1-3.3-4.6-2.5-7.6-1.9c-5.2,1-2.1,9-6.2,11.6
		c-7.1,4.5,3.4,5.9,0.4,14c-0.5,1.2-3.1,2.3-1.4,3.4c1.7,1.1,4.2-3,5.2-4.9c3.1-6,5.6-1.1,9.5-3.1C400.7,587.3,398,578.9,393.6,572z
		 M191.2,820.9c-2.3,0.2-4.2,1-6-0.3c-0.7-0.5-1.6-0.8-2.3-0.3c-1.9,1.4,2.4,1.9,0,5.4c-3.3,4.9,3.7,4.6-0.3,9.5
		c-4.2,5.1,4,6.9-0.9,12.5c-2.2,2.5,5.9,4.6,9.1-1.8c1.7-3.4,2.3-7.4,6-9.8c4-2.5-3.4-4.9-2-11.3
		C195.8,820.7,194.5,819.6,191.2,820.9z M423.7,460.2c5.6,4.9,4.2,9.1,1.9,11c-5.8,4.9-2.5,9.4,3,9.7c3.6,0.2,6.1,1.9,8.5,4.1
		c0.4,0.3,0.6,1.5,1.4,0.7c0.3-0.3,0.6-1.2,0.5-1.5c-2.7-4.4-0.9-10.5-5.2-14.4c-2.4-2.2,0.3-2.9-0.4-13.4c-0.1-1.9-0.7-3.7,0.7-5.4
		c0.7-0.8,0.7-2.7-1.8-1.4C428.1,451.7,413.2,451.2,423.7,460.2z M159.5,900.1c-0.1-2.8-6.1,1.1-7.8,3c-9.5,10.6-14.5,4.2-12.6,10.7
		c1.5,5.3,6,7.2,10,9.2c8.6,4.1,6.1,1.2,11-7c2.1-3.5-5.6-7-0.6-15.6C159.5,900.2,159.5,900,159.5,900.1z M156.4,511.3
		c9-0.6,15.3-23.8-4.8-9.5c-3.6,2.6-7,4.2-11.4,3.7c-5.2-0.5-3.8,1-8.4,6.1c-4.6,5.2,0.7,14.6,5,4.4c1.9-4.6,1.5-1,9.9-4.9
		C151.1,509.1,150.8,510.2,156.4,511.3z M466.5,390.9c9.3-7.3,5.7-11.3,11.4-18.5c2.4-3.1-3.7-5.8-2.5-10.1
		c1.2-4.2-1.6-14.8-4.1-17.4c-0.6-0.6-1,3.4-3.1,4.3c-0.6,0.2-0.9,1-1.4,1.4c-1.1,0.8-1.2,1.8-0.7,2.8c6.4,12.5,2.2,32-0.3,36.4
		C465.4,390.5,465.2,391.2,466.5,390.9z M563.1-132.3c3.2,6.8-4.8,14.1,2.2,16c5,1.4,7.1,5.2,9.2,9.3c1.6,3.1,4,1,2.8-1.2
		c-1.5-2.6-2.8-5.2-1.9-8.3c0.2-0.8-0.1-1.6-1-2c-5.2-2.1-5.1-7.5-4.3-11c1-4.8-1-9.3,0.4-13.9c0.4-1.5-1.2-2.7-2.3-2.9
		c-1.3-0.3-0.3,1.4-0.8,2.1C563-137.4,565-135.2,563.1-132.3z M434.8,466.7c0.1,3,2.7,4.1,2.7,6.4c0,0.6,0.4,1.6,0.9,1.7
		c3,0.8,0.7-7.7,6.9-14.1c6.4-6.6-3.5-12-0.3-16.8c1.5-2.3-0.3-2-1.3-0.8c-1.4,1.6-2.3,4.2-4.1,4.9c-3,1.2-4,3.8-4.2,5.9
		C434.9,458.4,436.7,462.9,434.8,466.7z M173.6,861.1c-0.1-0.3-0.2-0.5-0.3-0.7c-6,5.4-23.6,14.6-14.4,19.6c5.7,3.1,5.6,7.7,6.7,4.1
		c2.1-6.9,9.3-3.4,6.2-6.3C167.5,873.6,171.6,862.7,173.6,861.1z M211.2,561.8c0.3,0.7-0.4,7.7,4.8,0.9c8.1-10.4-5.1-15.3,2.2-20.5
		c3.6-2.6,6.3-13.5,1.7-9.6c-5.3,4.5-11.7,4.6-8.5,9.3c0.6,1,0.3,2.1,0.3,3.2c0.2,5,2.6,10.1-0.7,14.9
		C210.8,560.4,211.2,561.1,211.2,561.8z M571.8,50c1.2,4,3.7,7.3,4.6,11.3c0.4,1.8,11.6,4.3,10,1.1c-1.6-3.1-0.7-7.4-4.6-9.4
		c-2.9-1.5-4-3.8-2.6-6.9c0.4-0.9,1-2.2-0.2-2.4c-5.4-0.7-5.5-5.6-7.8-6.5C571.2,37.3,573.5,43.6,571.8,50z M414.6,226
		c-5.2,11-4.3,6.7-18.3,19.2c-2.6,2.3,0.6,4.8,0.2,7.2c-0.4,2.7,5.2-0.5,5.7-2.6c1.1-4.4,7.9-6,8.2-12.1c0.1-2.2,1.5-4.1,3.8-4.8
		C420.1,231.2,418.3,218.2,414.6,226z M567.1,23.8c5.1,18.4,11.3,1.1,10.9,0.4c-2.2-4-2.3-8.3-3.1-12.5c-0.6-3.1-6.9-2.8-5.2,0
		C570.7,13.4,570.7,13.8,567.1,23.8z M222.1,758c10-0.7,9.1-4.8,10.5-14.4c0.7-4.5-2.4-2.4-2.9-1.1c-4,9.7-11.5,2.3-11.2,14.8
		C218.5,759.5,221,757.7,222.1,758z M197,565.6c2.6-4.1,6.7-2,8.2-5.4c0.5-1.2,3.7-1.6,1.8-3.1c-2-1.5-3.7-5.7-6.8-3.6
		c-4.3,3-7.7,7.2-9.4,12.4C189.4,570.1,196.4,566.5,197,565.6z M233.8,487c-0.9-1.9-1.4-1.3-2.3,0c-5.2,7.2,2.9,13.3-1.1,15.6
		c-4.4,2.6-4.1,14.4-1.6,9.3c1.2-2.5,2.7-4.6,5.3-5.9c3.7-1.9-3.6-8.2,2.4-13.4C238.2,491,236.6,492.8,233.8,487z M179.5,739.2
		c7.1-1-0.5-5.6,2.8-11.7c0.8-1.5,0.1-2.9-1.5-2.8c-3.4,0.2-9.7,9.9-8.6,13.2C174.2,743.9,174.8,737.9,179.5,739.2z M479.4,382.3
		c-0.7-1.3-1.2-2.4-1.9-3.4c-0.9-1.2-1.9-0.5-1.9,0.5c0.2,9.8-11,11.9-7.9,14.4c4.9,4.1,1.1,4.3,8.7-0.5
		C481.7,390,476.2,386.6,479.4,382.3z M236.6,466.4c1.1,1.6,1.8,3.2,0.9,5.2c-1.4,3.4,1.7,6,1.7,9.2c2.6-0.4,5.6-3.8,5.7-8.6
		C245,465.5,233.6,461.7,236.6,466.4z M430.3,401.3c-2.2,0.8-1,8.4,1.9,10.2c5.1,3.1-2.5,4,5.5,10.1c3.5,2.7,0-5.5,1-8.2
		C441.9,405.4,431.6,412.4,430.3,401.3z M82.7,1054.4c-4.9-10.2-4.2-10.9-6.4-10.1c-2.1,0.8-1.1,2.9-0.6,4.2
		c2.5,6.8,2.1,15.3,3.9,15.3c0.9,0,1.9-0.6,1.8-1.3C81.2,1060,82.9,1057.7,82.7,1054.4z M571.3-79.2c5,2.9,4.2,7.1,9.8,8.2
		c4.4,0.9,2.3-1.4,2.3-2.2c-0.2-4.5-4.5-6.1-6.5-9.4C576.2-83.8,572-81.8,571.3-79.2z M226.5,490.5c0.3-4.4-0.9-1.6-4.9-1.2
		c-1.9,0.2-3.7,0.8-3.4,3c0.2,2-1,5,0.6,5.8C222.4,499.9,228,493.8,226.5,490.5z M596.9,70.5c0.9,1.6,7.6-7.3,0.3-7.6
		c-4-0.2-8.3-5.1-9.3-7.9C588,64.8,593.7,64.7,596.9,70.5z M219.6,551.6c0.6,1.3,0.6,3.5,2.2,3.5c3-0.1,5.6-8,0.7-10.8
		c-0.8-0.4-1.1-2.7-2.8-1.1C218,545,216,544.5,219.6,551.6z M127.4,526.6c-4.3,0.5-5.2,0.7-6.3,0.5c-7.5-1-12.9,5.3-11.9,6.7
		c1.5,2.3,1.8,0.9,17-6.1C126.5,527.5,126.7,527.1,127.4,526.6z M370.9,563.2c0.8-0.8,3.5-0.3,2.8-2.1c-1.1-2.8-2.6-6.4-4.9-7.5
		c-1.9-0.9-0.1,3.5-2.7,6.9C363.9,563.3,368.1,563.1,370.9,563.2z M463.2,411.3c-0.3-1.4-3-1.6-2,0.5c3.7,8.3-6.7,7.4-2.8,11.9
		c1.3,1.5,2,0.2,2.8-0.6C465.6,418.7,464.3,416.5,463.2,411.3z M513.3-168.6c-0.1-0.2-0.2-0.4-0.3-0.7c-0.4,0.3-1,0.6-1.2,1
		c-3.1,7.1-12.8,7.8-4.9,14.1c0.8,0.7,1.4,1.5,1.1-0.6C506.9-162,513-166.3,513.3-168.6z M120.2,608.4c0.5,0.9,0.5,2.4,1.8,2.7
		c0.5,0.1,1.8-0.9,1.7-1.3c-0.4-3,6.9-9.3,1.4-8.3C123.1,601.9,120,606.1,120.2,608.4z M573.7-83.5c8.4-5.3-1.6-14.3-1.2-4.8
		C572.7-85.6,571.1-82.7,573.7-83.5z M229.6,476.5c0.2,0.7,1.4,6.2,2.5,5.8c4.1-1.3-2.6-4.7-0.6-11.4
		C231.8,470.1,230.4,462.5,229.6,476.5z M209.4,556.7c3.9-3.3,1.5-7.1-0.5-6C208.2,551.1,200,552.5,209.4,556.7z M238.6,503
		c2.9-0.7,2.7-8.5-0.3-7.9C235.7,495.6,236.7,503.5,238.6,503z M571.2,7.2c1.7-0.2,0-2,0.5-3.1c0.6-1.4,0.6-5-0.5-6.5
		C567.7,0.3,569,7.4,571.2,7.2z M540.2-265.2c-1.2,0.2,0.6-2.6-1-1.4c-5.3,3.9-2.8,8.4-1.7,6.8C538.6-261.3,540.6-262.5,540.2-265.2
		z M472.1,410.8c1.3-0.1,1.2-0.6-4-6.3c-0.9-1-2.9,1.8-2.5,2.2C467.6,408.4,470.4,408.9,472.1,410.8z M472.5,415.4
		c-1.1,0.7-4.1,7.9-0.4,8C473.9,423.4,473.1,417.9,472.5,415.4z M204.9,544.7c1.1,1.1,2.8,1.2,4.1,1.3c2.3,0.2,1.9-5.4-0.6-4.4
		C206.9,542.2,205.6,543.1,204.9,544.7z M463.1,261.4c-1.1-2.1-1.2-3.3-5,3.5C457,267,462.8,264.8,463.1,261.4z M203.7,547.5
		c-0.5,0.5-1.9-0.6-1.6,0.9c0.8,4.8,6.2,1.6,6,0.5C207.7,546.5,205.3,548.2,203.7,547.5z M198.7,552.7c0-1.4,3.2-0.3,2.4-2.6
		c-0.4-1.2-1-3.3-2.3-2.7C197.5,547.8,195.9,554.2,198.7,552.7z M91.6,649.7c-1.3,1.2-1,7.6-0.3,6.9C94.3,653.4,92.3,649,91.6,649.7
		z M425.4,465.8c-1.5-6.8-4.2,5.2-1.8,4.3C425.5,469.3,425.2,467.3,425.4,465.8z M577.1,13.9c1.5,6.7,3.4-2.8,1-2.6
		C576.9,11.4,577.2,12.9,577.1,13.9z M544.5-222.8c0.5,0.4-0.3,1.9,0.7,1.6c1.6-0.4,1.5-5,0.7-4.8
		C544.6-225.6,544.4-224.3,544.5-222.8z M107.9,538.5c6.4-3-1.5-3.2-1.9-0.3C105.9,538.8,107.1,538.5,107.9,538.5z M371.6,608
		c-2.9,0.8-1.6,3.7-0.3,3.4C372.6,611.1,373.1,607.6,371.6,608z M576.5-96.2c4.5,8.2,5,1.1,0.8-0.3
		C577.1-96.7,576.7-96.3,576.5-96.2z M465.5,413c0.7,0.8,0.6,2.3,2.1,2.4C470.4,415.5,465.5,408.9,465.5,413z M357.2,751.7
		c0.8,0.8-0.2,2.6,1.5,3.1c0.3-1.7,0.8-5.1-1-5C356.3,749.9,357.1,750.9,357.2,751.7z M476.2,512.1c2.5-0.2-1.2-7.8-1.5-3.1
		C474.6,510.4,475.3,511.3,476.2,512.1z M465.4,402.8c-0.1-1.2-2.6-1.9-2.9,1.1C462.4,406.3,464.4,405,465.4,402.8z M203.6,762.3
		c0.2,0.7-0.1,1.7,1,1.9c1-6.1,0.8-4.6,0.5-5.9C203.7,759.4,203.8,760.9,203.6,762.3z M476.9,501.8c1.4,0.1,1.2-2.5-1.5-2.7
		C474.4,499.1,474.4,501.6,476.9,501.8z M213.4,571.2c1.2-0.6,1.1-4-1.3-3.5C209.3,568.4,212.6,570.6,213.4,571.2z M582.1,48.9
		c1,2,3.5,1.8,2.7,0.6C582.6,46.2,581.9,47.7,582.1,48.9z M105.5,629.8c2.6-0.6,2.6-3.6,1.5-2.8
		C105.7,627.9,103.9,629.4,105.5,629.8z M94.6,641.7c3.8-4.5,1.5-3.3-0.6-0.7C93.7,641.3,93.8,641.7,94.6,641.7z M567.6,35.6
		c2.6-2.4-1-5.1-0.4-0.9C567.3,35,567.5,35.3,567.6,35.6z M477.4,506.8c0-4.8-1.8-3.4-1.4-2.2C476.3,505.2,476.7,505.7,477.4,506.8z
		 M202.9,543.5c-0.1,0.2,0.1-0.3,0.2-0.8C199,542.1,200.6,544.1,202.9,543.5z M473.7,506.5c1.3-1.1,0.1-4.4-0.6-0.6
		C473,506.2,473.1,506.7,473.7,506.5z M111.9,765.8c0-0.1,0-0.2,0-0.3c-2.1-0.1-1.4-0.1-2.6,0.3C111.4,766.1,110.7,766,111.9,765.8z
		 M195.3,557.2c1.3-3.4,0.2-2.7-0.7-1.2C194.5,556.1,194.8,556.4,195.3,557.2z M78.2,1035.7c0.2-1.8,0.3-1.1-0.3-2.6
		C77.6,1034.6,77.5,1033.9,78.2,1035.7z M462.9,400.4c2.5-0.8,0.7-2.7-0.3-0.6C462.5,400,462.9,400.4,462.9,400.4z M436.6,386.5
		c-1.1,1.1-0.9,0.7-0.6,1.5C437,386.9,436.7,387.2,436.6,386.5z"/>
	<path class="st2" d="M185.6,567.1c-1.1-2.9-3-5.8,0.4-8.5c0.2,0.1,0.3,0.3,0.5,0.4C183.9,561.5,185.7,564.5,185.6,567.1
		L185.6,567.1z"/>
	<path class="st2" d="M92.9,768.4c-1.5,1.6-3.6,0.5-5.2,1.3c-0.1-1.4,0.7-1.2,4.8-1.7C92.6,768.1,92.7,768.3,92.9,768.4z"/>
	<path class="st2" d="M207.3,570.3c-0.4,0.4-0.7,0.9-1.2,1.1c-1.4,0.5-0.6,2-1.5,2.7C203.9,571.6,204.9,570.8,207.3,570.3
		C207.4,570.4,207.3,570.3,207.3,570.3z"/>
	<path class="st2" d="M54.8,1054.7c0.3,2.6-2.6,2.7-3.4,2.9c0-1.1,1.2-0.8,1.7-1.3C53.6,1055.7,54.1,1055.2,54.8,1054.7
		C54.7,1054.6,54.8,1054.7,54.8,1054.7z"/>
	<path class="st2" d="M78.2,560c0.1,0.6,0-0.2,0.2,3.2C77.6,563.2,76.7,560.9,78.2,560C78.2,560,78.2,560,78.2,560z"/>
	<path class="st2" d="M552.4,103.5c2.2,1.2,2.9,1.5,2.6,2.5c-2.3-1.3-1.5-0.8-2.9-2C552.2,103.8,552.3,103.7,552.4,103.5z"/>
	<path class="st2" d="M219.5,591.1c0.8,0.7,1.6,2.6,0.6,3C220,593.1,219.8,592.1,219.5,591.1C219.6,591,219.5,591.1,219.5,591.1z"/>
	<path class="st2" d="M98.6,553.4c0.2,2,0.2,1.2,0.2,3.2C97.8,556.1,98.5,554.2,98.6,553.4C98.7,553.4,98.6,553.4,98.6,553.4z"/>
	<path class="st2" d="M595.3,87c-0.4-1.2-0.8-2.4-1.3-3.7C595.8,84.1,596,85.3,595.3,87z"/>
	<path class="st2" d="M97.7,551.9c-0.3,0.7-0.6,1.4-1,2.1C96,552.8,96.5,552.1,97.7,551.9C97.8,552,97.7,551.9,97.7,551.9z"/>
	<path class="st2" d="M170.9,754.1c0.7,1-1.4,4.2-0.1,0C170.8,754.1,170.9,754.1,170.9,754.1z"/>
	<path class="st2" d="M87.1,657.3c-1.1,1.2-2.7,1-4.1,1.3C84.1,657.3,85.8,657.6,87.1,657.3z"/>
</g>
<g id="batman">
	<path id="batboy" d="M541.8,524.9c8.7-45.3,17.4-90.6,26.1-136c1.4-7.1,2.7-14.2,4.1-21.3c2.7,9.4,5.4,18.9,8.1,28.3c4.8-3.2,15.3-9.1,29.8-9.9
		c19.5-1.1,33.6,7.7,38.1,10.8c3.3-8,6.6-16,9.9-24c7.4,42.8,15.9,86.5,25.7,130.9c1.9,8.6,3.8,17.2,5.8,25.7
		c47.2,21.3,100.1,51.5,152.5,94.5c12.4,10.2,24,20.4,34.8,30.7c9.3,35.2,7.2,57.1,3.2,70.8c-0.9,2.9-2.4,7.6-3.7,14.7
		c-3.8,21.2-0.2,37.9,1.2,45.4c2.9,15.1,5.6,38,4.9,72.3c12.5,16.7,18.7,30,22.1,39.2c2.5,6.9,9.8,27.8,7.4,20.8
		c3.2,1.8,6.4,3.5,9.6,5.2c0.6,15,1.2,30,1.7,45c2.3,0.8,4.7,1.6,7,2.4c5.5-3.7,10.9-7.4,16.4-11.2c-0.6,13.7-1.2,27.5-1.7,41.2
		c-5.1,6.4-10.2,12.8-15.3,19.2c0.2,2.9,0.5,5.8,0.7,8.7c4.5-3,9.1-6,13.6-9.1c0.9,0.7,1.9,1.4,2.8,2.1c-0.2,11.4-0.5,22.8-0.7,34.2
		c-5.1,6.2-10.2,12.3-15.3,18.5c-0.1,3-0.2,6.1-0.3,9.1c5-2.9,10-5.8,15-8.7c-0.5,11.8-0.9,23.5-1.4,35.2
		c-4.2,4.9-8.4,9.8-12.6,14.7c0.7,15,1.4,30,2.1,45c-2.6,2.6-5.1,5.1-7.7,7.7c-0.3,15.1-0.7,30.2-1,45.4
		c-11.6,6.1-23.3,12.1-34.9,18.2c-21.4,1.2-42.8,2.3-64.2,3.5c-6.5-10.3-13-20.7-19.5-31.1c3.4-18.5,6.8-37,10.2-55.5
		c9.2-5,18.5-10,27.7-15c0-14.6,0-29.2,0-43.9c-12.3-32.9-24.6-65.8-37-98.7c2.3-2.9,4.6-5.8,6.9-8.7c-0.6-5.2-1.2-10.4-1.7-15.6
		c0.8-6,1.5-11.9,2.3-17.9c-4.4-7.9-8.8-15.8-13.3-23.7c-0.2-3.5-0.4-6.9-0.6-10.4c-6.9-6.5-13.9-13.1-20.8-19.6
		c-7.5-16.7-15-33.5-22.5-50.2c-12.3,23.3-18.6,43.2-21.9,57.2c-4.7,19.4-3.9,27.1,0.6,31.2c5.7,5.2,15.8,3,20.2,1.7
		c7.6,29.2,13.8,61.2,17.3,95.8c0.7,6.8,1.3,13.6,1.7,20.2c-0.3,3.6-1.8,17.6-13.3,27.1c-4.1,3.4-8.3,5.3-11.5,6.3
		c9.5,36.2,18.4,86.4,16.2,146.1c-3.4,89.8-30.4,159.4-50.2,200.3c-2.9,9.5-6.3,25.8-2.3,45c1.4,6.9,3.6,12.9,5.8,17.9
		c-38.3,0-76.6,0-114.9,0c-1.3-23.8-2.7-47.5-4-71.3c-2-6.1-4.1-12.2-6.1-18.4c0.7-17.3,1.4-34.7,2-52c1.4-8.8,2.7-17.7,4.1-26.5
		c-2.3-15.2-4.4-31.2-6.1-47.9c-1.3-13-2.3-25.6-3.1-37.8c-0.2,38.4-5.2,58.8-10.2,70.4c-1,2.2-3.8,8.5-5.1,17.3
		c-1.9,12.9,0.6,24.1,3.1,31.6c3,10,7.6,31.1,0,55.1c-2.8,8.7-6.6,15.9-10.2,21.4c-0.8,7.4-1,17.7,1,29.6
		c2.1,12.1,5.9,21.8,9.2,28.6c-36.7,0.3-73.5,0.7-110.2,1c1.4-16.7,2.7-33.3,4.1-50c-7.5-25.5-15-51-22.4-76.5
		c-10.9,27.5-29.4,63.2-61.2,96.9c-9.6,10.2-19.2,18.9-28.6,26.5c-19,1-38.1,2-57.1,3.1c5.1-17.3,10.2-34.7,15.3-52
		c-24.8,16.7-49.6,33.3-74.5,50c21.4-35.7,42.9-71.4,64.3-107.1c-60.8,13.4-131.7,36.3-205.1,76.5c-18.1,9.9-35.1,20.2-51,30.6
		c-12.9,0.7-25.8,1.4-38.8,2c63.3-70.6,91.5-109.7,84.7-117.3c-6.1-6.8-39.4,10.9-100,53.1c-0.3-33.7-0.7-67.3-1-101
		c10.1-15.5,92.4-142.8,58.2-177.5c-6.3-6.4-20.6-13.8-57.1-4.1c0-89.1,0-178.2,0-267.3c39.9-11.5,89.2-30.4,140.8-62.2
		c108-66.7,168.3-154.6,197.9-206.1C405.6,589.3,473.7,557.1,541.8,524.9z"/>
	<polygon id="eye" class="st3" points="578.2,464.3 600.1,480.1 594,488 	"/>
	<polygon id="eye_1_" class="st3" points="652.9,465.2 631,481 637.1,488.9 	"/>
	<text transform="matrix(1 0 0 1 20.8124 250.4034)" class="st4 st5 st6">BATMAN</text>
	<text transform="matrix(1 0 0 1 20.8124 250.4034)" class="st7 st5 st6">BATMAN</text>
</g>
</svg>
