<svg viewBox="0 100 1000 1333" xmlns="http://www.w3.org/2000/svg">
 <style type="text/css">
  @font-face{font-family: ArialMT; src: url('/fonts/ArialMT.woff');}
  .zt0{fill:#AD946E;}
	.zt1{fill:#E2CD9E;}
	.zt2{fill:#E64425;stroke:#000000;stroke-miterlimit:10;}
	.zt3{font-family:ArialMT;}
	.zt4{font-size:170px;}
	.zt5{letter-spacing:3;}
	.zt6{fill:#3F3A34;}
	.zt7{fill:none;}
	.zt8{fill:#3F3B34;stroke:#726658;stroke-width:5;stroke-miterlimit:10;}
	.zt9{fill:#3D3B34;}</style>

 <g>
  <title>background</title>
  <rect fill="none" id="canvas_background" height="602" width="802" y="-1" x="-1"/>
 </g>
 <g>
  <title>Layer 1</title>
  <rect height="794.64" width="1000" class="zt0" y="1" x="0" id="konis"/>
  <rect height="705.36" width="1000" class="zt1" y="794.64" id="lambo"/>
  <text id="svg_1" class="zt2 zt3 zt4 zt5" transform="matrix(1,0,0,1,36.8054,1298.2737) ">INCEPTION</text>
    <g id = "sulamitten">
    <path d="m758.83,841.47c0.61,13.81 -50.23,33.1 -88.45,40.56c-47.92,9.35 -58.58,-3.29 -80.7,10.05c-33.2,20.03 -24.4,57.68 -56.56,102.37c-23.18,32.21 -54.12,49.29 -75.11,58.4c12.72,-84.67 25.44,-169.34 38.16,-254.01c212.94,12.95 262.07,29.27 262.66,42.63z" class="zt6" id="nikola"/>
    <path d="m232.64,762.26c-4.64,13.02 38.29,46.4 72.63,64.76c43.05,23.02 56.96,14.06 74.18,33.32c25.85,28.89 6.37,62.31 23.98,114.47c12.69,37.6 37.25,63.01 54.63,77.89c12.72,-84.67 25.44,-169.34 38.16,-254.01c-207.33,-50.19 -259.09,-49.03 -263.58,-36.43z" class="zt6" id="tesla"/>
    <ellipse ry="280.35" rx="56.96" cy="805.12" cx="496.93" class="zt8" transform="matrix(0.1486,-0.9889,0.9889,0.1486,-373.0785,1176.921) " id="bmw"/>
    <path d="m363.51,755.82c-2.41,-9.38 1,-27.91 12.6,-39.65c8.47,-8.57 18.72,-10.93 21.7,-11.7c40.11,-10.38 82.74,-75.01 87.05,-81.65c38.32,-59.03 50.36,-139.2 43.27,-166.33c-0.74,-2.83 -3.68,-12.69 1.3,-19.75c5.2,-7.37 16.59,-8.2 24.46,-7.96c-17.9,119.18 -35.81,238.35 -53.71,357.53c-74.99,5.4 -130.57,-6.71 -136.67,-30.49z" class="zt9" id="toyota"/>
    <path d="m639.59,797.56c5.06,-8.26 7.25,-26.97 -0.4,-41.6c-5.57,-10.68 -14.69,-15.95 -17.3,-17.56c-35.29,-21.7 -57.05,-96.01 -59.21,-103.62c-19.28,-67.68 -7.24,-147.85 7.51,-171.7c1.54,-2.49 7.24,-11.05 4.55,-19.26c-2.81,-8.57 -13.45,-12.71 -21.04,-14.8c-17.9,119.18 -35.81,238.35 -53.71,357.53c70.09,27.18 126.77,31.94 139.6,11.01z" class="zt9" id="audi"/>
    </g>
  <path d="m-191.53,476.53" class="zt7" id="citroen"/>
  <path id="svg_3" d="m116,668" fill-opacity="0" stroke-opacity="null" stroke-width="1.5" stroke="#000" fill="#0fffff"/>
  <path stroke="#000" id="svg_5" fill-opacity="0" stroke-opacity="null" stroke-width="1.5" fill="#0fffff"/>
  <path id="svg_6" fill-opacity="0" stroke-opacity="null" stroke-width="1.5" stroke="#000" fill="#0fffff"/>
  <path transform="rotate(-4.270763874053955 183.3023834228536,771.5000000000001) " id="leftspinner" class="leftspinner" d="m241,710c-219,4 -59,123 -59,123" opacity="0.5" fill-opacity="0" stroke-opacity="0" stroke-width="1.5" stroke="#000" fill="#0fffff"/>
  <path stroke="#000" transform="rotate(29.429380416870117 775.7986450195315,848.3695678710935) " id="rightspinner" class="rightspinner" d="m704.50479,788.32422c270.60645,3.90539 72.90311,120.09076 72.90311,120.09076" opacity="0.5" fill-opacity="0" stroke-opacity="0" stroke-width="1.5" fill="#0fffff"/>
 </g>
</svg>