<?xml version="1.0" encoding="utf-8"?>
<!-- Generator: Adobe Illustrator 24.3.0, SVG Export Plug-In . SVG Version: 6.00 Build 0)  -->
<svg version="1.1" id="upperspinningtop" xmlns="http://www.w3.org/2000/svg" xmlns:xlink="http://www.w3.org/1999/xlink" x="0px"
	 y="0px" viewBox="0 0 1000 1500" style="enable-background:new 0 0 1000 1500;" xml:space="preserve">
<style type="text/css">
	.zt0{fill:#AD946E;}
	.zt1{fill:#E2CD9E;}
	.zt2{fill:#E64425;stroke:#000000;stroke-miterlimit:10;}
	.zt3{font-family:'ArialMT';}
	.zt4{font-size:170px;}
	.zt5{letter-spacing:3;}
	.zt6{fill:#3F3A34;}
	.zt7{fill:none;}
	.zt8{fill:#3F3B34;stroke:#726658;stroke-width:5;stroke-miterlimit:10;}
	.zt9{fill:#3D3B34;}
</style>
<rect id="konis" x="0" y="0" class="zt0" width="1000" height="794.64"/>
<rect id="lambo" y="794.64" class="zt1" width="1000" height="705.36"/>
<text transform="matrix(1 0 0 1 36.8054 1298.2737)" class="zt2 zt3 zt4 zt5">INCEPTION</text>
<path id="nikola" class="zt6" d="M758.83,841.47c0.61,13.81-50.23,33.1-88.45,40.56c-47.92,9.35-58.58-3.29-80.7,10.05
	c-33.2,20.03-24.4,57.68-56.56,102.37c-23.18,32.21-54.12,49.29-75.11,58.4c12.72-84.67,25.44-169.34,38.16-254.01
	C709.11,811.79,758.24,828.11,758.83,841.47z"/>
<path id="tesla" class="zt6" d="M232.64,762.26c-4.64,13.02,38.29,46.4,72.63,64.76c43.05,23.02,56.96,14.06,74.18,33.32
	c25.85,28.89,6.37,62.31,23.98,114.47c12.69,37.6,37.25,63.01,54.63,77.89c12.72-84.67,25.44-169.34,38.16-254.01
	C288.89,748.5,237.13,749.66,232.64,762.26z"/>
<path id="citroen" class="zt7" d="M-191.53,476.53"/>
<ellipse id="bmw" transform="matrix(0.1486 -0.9889 0.9889 0.1486 -373.0785 1176.921)" class="zt8" cx="496.93" cy="805.12" rx="56.96" ry="280.35"/>
<path id="toyota" class="zt9" d="M363.51,755.82c-2.41-9.38,1-27.91,12.6-39.65c8.47-8.57,18.72-10.93,21.7-11.7
	c40.11-10.38,82.74-75.01,87.05-81.65c38.32-59.03,50.36-139.2,43.27-166.33c-0.74-2.83-3.68-12.69,1.3-19.75
	c5.2-7.37,16.59-8.2,24.46-7.96c-17.9,119.18-35.81,238.35-53.71,357.53C425.19,791.71,369.61,779.6,363.51,755.82z"/>
<path id="audi" class="zt9" d="M639.59,797.56c5.06-8.26,7.25-26.97-0.4-41.6c-5.57-10.68-14.69-15.95-17.3-17.56
	c-35.29-21.7-57.05-96.01-59.21-103.62c-19.28-67.68-7.24-147.85,7.51-171.7c1.54-2.49,7.24-11.05,4.55-19.26
	c-2.81-8.57-13.45-12.71-21.04-14.8c-17.9,119.18-35.81,238.35-53.71,357.53C570.08,813.73,626.76,818.49,639.59,797.56z"/>
</svg>
