<svg viewBox="0 0 1000 1333" xmlns="http://www.w3.org/2000/svg">
 <!-- Created with Method Draw - http://github.com/duopixel/Method-Draw/ -->
 <defs>
  <linearGradient y2="0" x2="1" y1="0" x1="0" id="svg_40">
   <stop offset="1" stop-color="#000000"/>
   <stop offset="1" stop-color="#ffffff"/>
  </linearGradient>
 </defs>
 <g>
  <title>background</title>
  <rect fill="#fff" id="canvas_background" height="1335" width="1002" y="-1" x="-1"/>
  <g display="none" overflow="visible" y="0" x="0" height="100%" width="100%" id="canvasGrid">
   <rect fill="url(#gridpattern)" stroke-width="0" y="0" x="0" height="100%" width="100%"/>
  </g>
 </g>
 <g>
  <title>Layer 1</title>
  <rect stroke="#000" id="svg_1" height="790.5263" width="1006.31576" y="644.1612" x="-3.68418" stroke-width="0" fill="#176ded"/>
  <path transform="rotate(1 947.8923339843748,46.1593894958483) " id="svg_61" d="m944.73449,46.15939l0.60311,-1.95168l1.57894,-1.20621l1.9517,0l1.57895,1.20621l0.60309,1.95168l-0.60309,1.95168l-1.57895,1.20621l-1.9517,0l-1.57894,-1.20621l-0.60311,-1.95168z" stroke-width="0" stroke="#0f0f00" fill="#ffffff"/>
  <rect id="svg_2" height="710.52632" width="1002.10526" y="-6.36513" x="-2.63158" stroke-width="0" stroke="#0f0f00" fill="#c4a756"/>
  <path id="svg_5" class="svg_5" d="m1001.57895,494.73684l-181.57895,5.26316l-72.63158,22.10526l-93.68421,36.84211l-56.8421,24.21052l-175.78948,26.31579l-267.36842,-32.63158l120,55.78948l-223.15789,4.21052l-38.94737,27.36842l-11.57895,50.52632l70.52632,16.84211l102.10526,22.10526l107.36842,23.15789l100,18.94737l163.15789,16.84211l226.31579,-18.94737l150.52632,-10.52632l64.21053,-5.26316l15.78947,-2.10526l1.57895,-281.05263z" stroke-opacity="null" stroke-width="0" stroke="#000" fill="#43565e"/>
  <path stroke="#000" id="svg_23" class="svg_23" d="m735.26316,729.95835l-12.10527,-64.88452l-45.26315,-32.44226l-58.94737,0l-568.42105,1.15865l-40,33.60091l-7.36843,34.75956l-1.05263,19.69708l143.1579,34.75956l168.42105,37.07687l367.36842,-4.6346l288.42105,-8.11056l-234.21052,-50.98069z" stroke-opacity="null" stroke-width="0" fill="#28251c"/>
  <path id="svg_10" d="m266.84211,674.73684l-1.57895,47.36842l-1.05263,45.26316l-4.21053,23.1579l-7.36842,17.89473l-1.05263,41.05264l5.26316,6.31578l-3.1579,13.68422l-2.10526,23.15789l-21.05263,62.10526l-4.21053,34.73685l-20,76.8421l3.1579,36.84211l-10.52632,37.89473l38.94737,14.73684c0.52631,1.05264 25.78947,-3.15789 26.8421,-3.15789c1.05264,0 56.84211,-12.63158 56.31579,-13.68421c0.52632,1.05263 28.94737,-21.05263 28.42106,-22.10526c0.52631,1.05263 17.36842,-33.68421 17.36842,-32.63158c0,1.05263 9.47368,38.94737 8.94737,38.94737c0.52631,0 20.52631,7.36842 20,6.31579c0.52631,1.05263 28.94736,0 28.42105,0c0.52631,0 31.05263,0 30.52631,0c0.52632,0 24.73685,11.57894 24.21053,10.52631c0.52632,1.05263 19.47368,8.42105 18.94737,7.36842c0.52631,1.05263 39.47368,-11.57895 38.94737,-11.57895c0.52631,0 -17.36842,-15.78947 -17.89474,-16.8421c0.52632,1.05263 3.68421,-17.89474 3.15789,-18.94737c0.52632,1.05263 7.89474,-17.89474 7.36843,-18.94737c0.52631,1.05263 -1.57895,-48.42105 -2.10527,-48.42105c0.52632,0 -0.52631,-27.36842 -1.05263,-28.42105c0.52632,1.05263 -2.63158,-85.26316 -2.63158,-84.21053c0,1.05263 -3.15789,-22.10526 -3.68421,-23.15789c0.52632,1.05263 4.73684,-21.05264 4.21053,-22.10527c0.52631,1.05263 14.21052,-11.57894 13.68421,-12.63158c0.52631,1.05264 7.89474,-24.21052 7.36842,-25.26315c0.52632,1.05263 -12.10526,-18.94737 -12.63158,-20c0.52632,1.05263 -2.63158,-21.05264 -3.15789,-22.10527c0.52631,1.05263 6.8421,-24.21052 6.31579,-25.26315c0.52631,1.05263 -6.84211,-36.84211 -7.36843,-37.89474c0.52632,1.05263 -5.78947,-29.47369 -6.31579,-30.52632c0.52632,1.05263 -24.73684,-63.15789 -25.26315,-64.21052c0.52631,1.05263 -41.57895,42.10526 -42.10527,41.05263c0.52632,1.05263 -55.26315,-31.57895 -55.78947,-32.63158c0.52632,1.05263 -60.52632,0 -61.05263,-1.05263" stroke-opacity="null" stroke-width="0" stroke="#000" fill="#d6d6d6"/>
  <path id="svg_28" d="m270,335.78947l-39.47368,47.36842l-104.21053,23.1579l-42.10526,-72.63158l-33.68421,5.26315l1.05263,-60c0.52631,1.05264 23.68421,-97.89473 23.68421,-98.94736c0,-1.05264 -41.05263,-24.21053 -41.57895,-25.26316c0.52632,1.05263 15.26316,-48.42105 14.73684,-49.47369c0.52632,1.05264 102.63158,-50.52631 102.10527,-51.57894c0.52631,1.05263 92.10526,-17.89474 91.57894,-18.94737c0.52632,1.05263 158.42106,-72.63158 157.89474,-72.63158c0.52632,0 391.05263,10.52632 390.52632,10.52632c0.52631,0 17.36842,52.63157 16.8421,51.57894c0.52632,1.05263 -18.42105,37.89474 -18.94737,36.84211c0.52632,1.05263 20.52632,32.63158 20,31.57895c0.52632,1.05263 -22.63158,38.94736 -23.15789,37.89473c0.52631,1.05263 -56.31579,11.57895 -56.84211,10.52632c0.52632,1.05263 -86.8421,16.8421 -87.36842,15.78947c0.52632,1.05263 -85.78947,46.31579 -86.31579,45.26316c0.52632,1.05263 -61.57895,33.68421 -62.63158,33.68421c-1.05263,0 -57.89473,30.52632 -58.42105,29.47368c0.52632,1.05264 -77.36842,15.78948 -163.68421,70.52632z" stroke-opacity="null" stroke-width="0" stroke="#000" fill="#ffffa0"/>
  <path id="svg_17" d="m260.52632,341.05263l8.94736,-49.47368l83.1579,-33.68421c0.52631,1.05263 20.52631,-40 21.57895,-40c1.05263,0 51.57894,-7.36842 52.63158,-6.31579c1.05263,1.05263 33.68421,36.8421 33.15789,35.78947c0.52632,1.05263 52.10526,-45.26316 51.57895,-46.31579c0.52631,1.05263 44.73684,-26.31579 45.78947,-25.26316c1.05263,1.05263 73.68421,-13.68421 73.1579,-14.73684c0.52631,1.05263 47.89473,-36.8421 48.94736,-36.8421c1.05264,0 77.89474,2.10526 77.36843,1.05263c0.52631,1.05263 13.15789,37.89473 12.63157,36.8421c0.52632,1.05263 40.52632,-12.63158 41.57895,-12.63158c1.05263,0 63.1579,-26.31579 62.63158,-27.36842c0.52632,1.05263 74.21053,12.63158 73.68421,11.57895c0.52632,1.05263 38.42105,11.57895 37.89474,10.52632c0.52631,1.05263 -4.73684,41.05263 -5.26316,40c0.52632,1.05263 -36.31579,42.10526 -36.84211,41.05263c0.52632,1.05263 8.94737,37.89473 11.05264,38.94737c2.10526,1.05263 28.42105,31.57894 27.89473,30.52631c0.52632,1.05263 -3.68421,45.26316 -6.8421,48.42105c-3.1579,3.1579 -37.89474,32.63158 -38.94737,33.68421c-1.05263,1.05264 -101.05263,32.63158 -103.1579,33.68422c-2.10526,1.05263 -94.73684,16.8421 -97.89473,17.89473c-3.1579,1.05263 -114.73684,-22.10526 -115.26316,-23.15789c0.52632,1.05263 -31.05263,-28.42106 -35.26316,-28.42106c-4.21052,0 -85.26316,22.10527 -85.78947,21.05264c0.52631,1.05263 -50,17.89473 -50.52632,16.8421c0.52632,1.05263 -72.10526,-3.15789 -74.21052,-3.15789c-2.10527,0 -70.52632,-2.10527 -71.05264,-3.1579c0.52632,1.05263 -34.21052,-23.15789 -34.73684,-24.21052c0.52632,1.05263 -8.94737,-36.84211 -9.47368,-37.89474c0.52631,1.05263 0.52631,-1.05263 1.57895,-5.26316z" stroke-opacity="null" stroke-width="0" stroke="#000" fill="#fcd55f"/>
  <path id="svg_6" d="m293.15789,395.78947l19.47369,-43.15789l26.31579,-26.31579l32.63158,-5.26316l32.63157,3.15789l46.31579,33.68421l7.36842,15.78948l6.31579,17.89473l2.10527,38.94737l-6.31579,26.31579l12.63158,9.47369l9.47368,30.52631l32.63158,5.26316l22.10526,20l4.21053,8.42105l40,29.47369l22.10526,32.63158l6.31579,35.78947l12.63158,11.57895l8.42105,14.73684l5.26316,23.15789l16.84211,45.26316l-3.1579,9.47369l-9.47368,3.15789c0.52631,1.05263 6.8421,38.94737 7.89473,38.94737c1.05264,0 1.05264,26.31579 0.52632,25.26316c0.52632,1.05263 -0.52632,31.57894 -1.05263,30.52631c0.52631,1.05263 -48.94737,124.21053 -49.47369,123.1579c0.52632,1.05263 -22.63157,36.8421 -23.15789,35.78947c0.52632,1.05263 -31.05263,35.78947 -31.57895,35.78947c0.52632,0 -16.31579,0 -16.8421,0c0.52631,0 1.57894,-14.73684 1.05263,-15.78947c0.52631,1.05263 -20.52632,3.1579 -21.05263,2.10526c0.52631,1.05264 -11.05263,-3.15789 -11.57895,-3.15789c0.52632,0 -16.31579,10.52632 -16.84211,9.47368c0.52632,1.05264 -13.15789,-13.68421 -13.68421,-14.73684c0.52632,1.05263 11.05264,-13.68421 10.52632,-14.73684c0.52632,1.05263 -15.26316,-5.26316 -15.78947,-6.31579c0.52631,1.05263 13.15789,-17.89474 12.63158,-18.94737c0.52631,1.05263 34.21052,-38.94737 33.68421,-40c0.52631,1.05263 11.05263,-25.26316 10.52631,-26.31579c0.52632,1.05263 6.84211,-12.63158 6.31579,-13.68421c0.52632,1.05263 3.68421,-15.78947 3.1579,-16.8421c0.52631,1.05263 19.47368,-38.94737 18.94736,-40c0.52632,1.05263 7.89474,-26.31579 7.36843,-27.36842c0.52631,1.05263 -1.57895,-32.63158 -2.10527,-33.68422c0.52632,1.05264 -21.57895,-33.68421 -22.10526,-34.73684c0.52631,1.05263 -5.78947,-29.47368 -6.31579,-30.52631c0.52632,1.05263 -21.57895,-55.78948 -22.10526,-56.84211c0.52631,1.05263 -41.57895,33.68421 -42.10527,32.63158c0.52632,1.05263 -60.52631,-27.36842 -61.05263,-28.42105c0.52632,1.05263 -53.15789,0 -53.68421,-1.05263c0.52632,1.05263 -55.26316,41.05263 -55.78947,40c0.52631,1.05263 -12.10527,-7.36842 -12.63158,-8.42106c0.52631,1.05264 -6.84211,45.26316 -7.36842,44.21053c0.52631,1.05263 -3.68421,29.47368 -4.21053,28.42105c0.52632,1.05263 -10,47.36842 -10.52631,46.31579c0.52631,1.05263 2.63157,30.52632 2.10526,29.47369c0.52631,1.05263 -15.26316,12.63158 -15.78948,11.57894c0.52632,1.05264 -4.73684,38.94737 -5.26315,37.89474c0.52631,1.05263 -1.57895,27.36842 -2.10527,26.31579c0.52632,1.05263 -10,21.05263 -10.52631,20c0.52631,1.05263 0.52631,25.26316 0,24.21053c0.52631,1.05263 -10,28.42105 -10.52632,28.42105c0.52632,0 -1.57895,10.52631 -2.10526,10.52631c0.52631,0 5.78947,37.89474 5.26316,36.84211c0.52631,1.05263 0.52631,15.78947 0,15.78947c0.52631,0 -23.68421,-9.47368 -24.21053,-9.47368c0.52632,0 22.63158,29.47368 22.10526,29.47368c0.52632,0 -2.63158,11.57895 -3.15789,10.52632c0.52631,1.05263 -23.68421,-5.26316 -24.21053,-6.31579c0.52632,1.05263 -44.73684,-51.57895 -45.26316,-52.63158c0.52632,1.05263 -0.52631,-31.57895 -1.05263,-32.63158c0.52632,1.05263 -7.89473,-14.73684 -6.8421,-14.73684c1.05263,0 1.05263,-29.47368 0.52631,-30.52632c0.52632,1.05264 -1.57894,-12.63157 -2.10526,-13.68421c0.52632,1.05264 3.68421,-62.10526 3.1579,-63.15789c0.52631,1.05263 18.42105,0 17.89473,-1.05263c0.52632,1.05263 4.73684,-37.89474 4.21053,-38.94737c0.52631,1.05263 4.73684,-22.10526 5.78947,-22.10526c1.05263,0 7.36842,-38.94737 6.84211,-40c0.52631,1.05263 -5.78948,-15.78948 -6.31579,-16.84211c0.52631,1.05263 -3.68421,-23.15789 -3.68421,-24.21053c0,-1.05263 11.57894,-26.31579 11.05263,-27.36842c0.52631,1.05263 5.78947,-37.89473 5.26316,-38.94737c0.52631,1.05264 13.15789,-4.21052 12.63158,-5.26315c0.52631,1.05263 6.8421,-14.73685 6.31579,-15.78948c0.52631,1.05263 4.73684,-22.10526 4.21052,-22.10526c0.52632,0 21.57895,-46.31579 21.05263,-47.36842c0.52632,1.05263 28.94737,-21.05263 28.42106,-21.05263c0.52631,0 10,-5.26316 9.47368,-6.31579c0.52632,1.05263 7.89474,-7.36842 7.36842,-8.42105c0.52632,1.05263 28.94737,-16.84211 28.42105,-16.84211c0.52632,0 0.52632,-14.73684 0,-15.78947c0.52632,1.05263 -2.63158,-44.21053 -3.15789,-45.26316c0.52631,1.05263 -0.52632,-22.10526 -1.05263,-23.1579c0.52631,1.05264 1.57894,-12.63158 1.05263,-13.68421c0.52631,1.05263 2.63158,-7.36842 5.78947,-8.42105z" stroke-opacity="null" stroke-width="0" stroke="#000" fill="#f8fcdb"/>
  <path id="svg_7" d="m288.94737,422.10526l6.8421,-4.21053l4.21053,-12.63158l38.94737,-3.15789l62.10526,4.21052l10.52632,11.57895l31.57894,8.42105l3.1579,26.31579l-21.05263,20l-15.78948,31.57895l-50.52631,6.31579l-36.84211,-6.31579l-11.57894,-13.68421l-15.78948,-20l-5.78947,-48.42105z" stroke-opacity="null" stroke-width="0" stroke="#000" fill="#706451"/>
  <path id="svg_8" d="m285.78948,423.15789l-1.57895,-16.8421l10.52632,-21.05263l24.21052,-4.21053l7.36842,7.36842l28.42106,-1.05263l15.78947,-7.36842l32.63158,8.42105l8.42105,6.31579l31.57895,9.47369l0,24.21052l-30.52632,-8.42105l-8.42105,-10.52632l-103.1579,-4.21052l-7.36842,16.8421" stroke-opacity="null" stroke-width="0" stroke="#000" fill="#191309"/>
  <ellipse ry="24.21053" rx="28.42105" id="svg_11" cy="595.78947" cx="371.05263" stroke-opacity="null" stroke-width="0" stroke="#000" fill="#1504d1"/>
  <text transform="rotate(6 370.42019653320295,606.8432617187498) " font-weight="bold" xml:space="preserve" text-anchor="start" font-family="Arvo, sans-serif" font-size="14" id="svg_12" y="611.57895" x="350" stroke-opacity="null" stroke-width="0" stroke="#000" fill="#7c7c7c">NASA</text>
  <path id="svg_13" d="m331.05263,706.31579l-1.57895,16.84211l9.47368,8.42105l0,14.73684l-9.47368,9.47368l1.05263,10.52632l49.47368,1.05263l2.10526,-13.68421l-7.36842,-7.36842l-2.10526,-15.78947l5.26316,-8.42105l0,-22.10526l-46.84211,6.31579z" stroke-opacity="null" stroke-width="0" stroke="#000" fill="#a5a5a5"/>
  <path id="svg_14" d="m255.26316,806.31579l23.68421,21.05263l-3.15789,31.57895l-11.57895,-2.10526l-12.63158,-7.36842l3.68421,-43.15789z" stroke-opacity="null" stroke-width="0" stroke="#000" fill="#a5a5a5"/>
  <path id="svg_15" d="m480.52632,846.31579l0.52631,32.63158c0.52632,1.05263 8.94737,3.15789 10,3.15789c1.05263,0 9.47369,-3.15789 8.94737,-4.21053c0.52632,1.05264 27.89474,0 27.36842,-1.05263c0.52632,1.05263 8.94737,-7.36842 8.42105,-8.42105c0.52632,1.05263 10,-21.05263 9.47369,-22.10526c0.52631,1.05263 1.57895,-18.94737 1.05263,-20c0.52632,1.05263 -15.26316,-9.47369 -15.78947,-10.52632c0.52631,1.05263 0.52631,15.78948 0,14.73684c0.52631,1.05264 -20.52632,9.47369 -21.05264,8.42106c0.52632,1.05263 -31.05263,3.15789 -28.94736,7.36842z" stroke-opacity="null" stroke-width="0" stroke="#000" fill="#a5a5a5"/>
  <path opacity="0.95" stroke="#000" transform="rotate(-0.23593826591968536 457.3174743652344,1159.5618286132812)" id="svg_16" d="m251.32204,1153.25763l24.27275,-8.25954l24.83724,-16.51908l28.22412,8.25954l21.45034,-9.63613l15.80552,11.01272l24.83723,-19.27225l15.80551,-4.12976c0.56449,1.37659 37.82034,9.63613 38.9493,9.63613c1.12896,0 16.93449,-5.50636 16.37,-5.50636c0.56449,0 38.9493,23.40203 38.38482,22.02544c0.56449,1.37659 27.65966,-11.01273 27.09517,-12.38932c0.56449,1.37659 24.27275,-12.3893 23.70828,-13.76589c0.56448,1.37659 28.78861,0 28.22413,0c0.56448,0 27.65965,17.89567 27.09516,17.89567c0.56449,0 45.72309,-5.50636 45.15862,-5.50636c0.56448,0 15.24102,6.88295 14.67655,5.50636c0.56448,1.37659 1.69344,11.01272 0.56448,11.01272c-1.12896,0 -44.02964,5.50635 -44.59412,5.50635c0.56448,0 1.69344,12.38932 1.12896,11.01273c0.56448,1.37659 -22.01483,12.3893 -22.5793,11.01272c0.56448,1.37659 -28.78862,-13.7659 -29.35311,-15.14249c0.56449,1.37659 -1.69344,19.27225 -2.25793,19.27225c0.56449,0 -8.46724,23.40203 -9.03172,22.02544c0.56448,1.37659 -25.40172,4.12976 -25.96621,4.12976c0.56449,0 -29.91757,1.3766 -29.91757,2.75319c0,1.37659 -31.61103,-4.12978 -32.17551,-5.50636c0.56448,1.37659 2.8224,-24.77862 2.8224,-26.15521c0,-1.37659 -20.32137,-17.89567 -20.88585,-19.27225c0.56449,1.37659 -16.37,8.25954 -16.93448,6.88295c0.56448,1.37659 -24.27275,23.40202 -24.83724,22.02543c0.56449,1.37659 -17.49896,-5.50635 -18.06344,-6.88295c0.56448,1.3766 -11.85414,-5.50635 -12.41862,-6.88294c0.56448,1.37659 -28.78862,15.14248 -29.3531,13.76589c0.56448,1.37659 -24.27275,-12.3893 -24.83724,-13.76589c0.56449,1.37659 -33.30447,6.88294 -33.86895,6.88294c0.56448,0 -11.85414,19.27227 -12.41862,17.89568c0.56448,1.37659 -22.01483,-4.12978 -22.5793,-4.12978c0.56448,0 -10.72517,-11.01272 -11.28966,-12.3893c0.56449,1.37659 5.08034,-13.7659 4.51587,-13.7659" stroke-opacity="null" stroke-width="0" fill="#fcd55f"/>
  <path id="svg_18" d="m664.73684,574.73684l41.57895,-27.36842l87.36842,-5.26316l-7.36842,14.73684l-9.47368,8.42106l-112.10527,9.47368z" stroke-opacity="null" stroke-width="0" stroke="#000" fill="#28251c"/>
  <path id="svg_19" d="m797.36842,518.94737l72.10526,-3.15789l-7.36842,11.57895l-42.10526,6.31579l-41.05263,-7.36842l18.42105,-7.36842z" stroke-opacity="null" stroke-width="0" stroke="#000" fill="#28251c"/>
  <path id="svg_20" d="m912.10526,542.10526l73.1579,6.31579c0.52631,1.05263 -5.78948,21.05263 -6.84211,21.05263c-1.05263,0 -105.26316,-2.10526 -105.78947,-3.15789c0.52631,1.05263 12.10526,-12.63158 39.47368,-24.21053z" stroke-opacity="null" stroke-width="0" stroke="#000" fill="#28251c"/>
  <path id="svg_21" d="m731.05263,541.05263l13.15789,-10.52632l23.15789,-4.21053l43.15789,10.52632l-79.47368,4.21053z" stroke-opacity="null" stroke-width="0" stroke="#000" fill="#28251c"/>
  <path id="svg_22" d="m898.42105,529.47368c0,0 14.73684,-11.57895 14.21053,-12.63158c0.52632,1.05263 87.89474,1.05263 87.36842,0" stroke-opacity="null" stroke-width="0" stroke="#000" fill="#28251c"/>
  <path stroke="#000" id="svg_24" d="m276.87966,677.7316c0,0 -16.16539,-41.50348 -16.70424,-42.56767c0.53885,1.06419 2.69423,-56.40218 2.15538,-57.46637c0.53885,1.06419 12.39347,-25.5406 11.85462,-26.6048c0.53885,1.0642 -21.01501,-26.6048 -21.55385,-27.66899c0.53884,1.06419 35.02501,-23.41222 34.48616,-24.47641c0.53885,1.06419 18.85962,28.73318 18.32078,27.66899c0.53884,1.06419 38.25809,119.18948 37.71924,118.12529c0.53885,1.06419 -56.57887,48.95283 -57.11771,47.88863c0.53884,1.0642 -11.31577,-5.32095 -11.85462,-6.38515c0.53885,1.0642 2.69423,-8.51353 2.69423,-8.51353z" stroke-opacity="null" stroke-width="0" fill="#f2dd74"/>
  <path stroke="#000" id="svg_25" d="m404.73684,651.57895l19.47368,-68.42105l33.68421,-71.57895l25.26316,-12.63158l32.63158,1.05263l-21.05263,36.84211l10.52632,14.73684l-6.31579,47.36842l-2.10526,24.21053l0,22.10526l-40,31.57895l-52.10526,-25.26316z" stroke-opacity="null" stroke-width="0" fill="#efd777"/>
  <path id="svg_41" d="m1004.73684,839.95065c0,0 -74.73684,53.68421 -75.26316,52.68093c0.52632,1.00328 -141.57894,56.79276 -141.57894,57.84539c0,1.05263 -46.31579,76.84211 -47.36843,82.10526c-1.05263,5.26316 -11.57894,88.42106 -12.63157,91.57895c-1.05264,3.1579 -31.57895,38.94737 -32.10527,37.94408c0.52632,1.00329 -56.31579,42.05592 -56.8421,41.05263c0.52631,1.00329 -95.26316,75.74013 -95.78948,74.73684c0.52632,1.00329 -27.89473,58.89803 -27.89473,59.95066c0,1.05263 -60,55.78947 -60.52632,54.78619c0.52632,1.00328 -27.89474,56.79276 -28.42105,55.78947c0.52631,1.00329 625.78947,22.05592 625.26316,21.05263c0.52631,1.00329 -39.47369,-627.41776 -40,-628.42105" fill-opacity="0.2" stroke-opacity="null" stroke-width="0" stroke="#000" fill="url(#svg_40)"/>
  <text font-weight="bold" xml:space="preserve" text-anchor="start" font-family="'Palatino Linotype', 'Book Antiqua', Palatino, serif" font-size="88" id="svg_36" y="1248.37171" x="143.68421" stroke-opacity="null" stroke-width="0" stroke="#000" fill="#ffffff">INTER</text>
  <path id="svg_42" d="m335.26316,933.63486l-25.78948,106.36513l-23.15789,51.57895l13.68421,5.26316l-1.05263,28.42105l4.21052,9.47369l17.89474,2.10526l25.26316,-15.78947l20,-28.42106l6.31579,30.52632l8.42105,6.31579c0.52632,1.00329 31.05263,-3.20724 32.10526,-2.15461c1.05264,1.05264 41.05264,5.26316 40.52632,4.25987c0.52632,1.00329 -20.52632,-98.99671 -21.05263,-100c0.52631,1.00329 -16.31579,-93.73355 -16.84211,-94.73684c0.52632,1.00329 -3.68421,-0.04934 -80.52631,-3.20724z" stroke-opacity="null" stroke-width="0" stroke="#000" fill="#fff9c6"/>
  <path stroke="#000" id="svg_43" d="m740.61141,1164.13484l109.64913,0c-12.11151,0 -21.92982,25.21347 -21.92982,56.31585c0,31.10238 9.81832,56.31584 21.92982,56.31584l-109.64913,0l0,0c-12.11151,0 -21.92982,-25.21346 -21.92982,-56.31584c0,-31.10238 9.81832,-56.31585 21.92982,-56.31585z" stroke-opacity="null" stroke-width="0" fill="#ffffff"/>
  <path id="svg_44" d="m797.14648,1197.81903l0.8772,0c-0.09689,0 -0.17544,0.33392 -0.17544,0.74583c0,0.41191 0.07855,0.74583 0.17544,0.74583l-0.8772,0l0,0c-0.09689,0 -0.17544,-0.33392 -0.17544,-0.74583c0,-0.41191 0.07855,-0.74583 0.17544,-0.74583z" fill-opacity="0.2" stroke-opacity="null" stroke-width="0" stroke="#000" fill="url(#svg_40)"/>
  <path stroke="#000" id="svg_47" d="m747.89474,1164.16118l-316.65851,14.78619l-10.90359,40l-4.54317,37.89473c0.45432,1.00329 129.48017,13.63487 130.3888,13.63487c0.90863,0 201.71647,7.36842 201.26216,6.36513c0.45431,1.00329 -9.54065,-50.57566 0.45431,-112.68092z" stroke-opacity="null" stroke-width="0" fill="#ffffff"/>
  <text font-weight="bold" xml:space="preserve" text-anchor="start" font-family="'Palatino Linotype', 'Book Antiqua', Palatino, serif" font-size="85" id="svg_52" y="1248.37171" x="430" stroke-opacity="null" stroke-width="0" stroke="#000" fill="#3000ce">STELLAR</text>
  <path id="svg_58" d="m921.57659,25.10676l0.6031,-1.95168l1.57894,-1.20622l1.9517,0l1.57895,1.20622l0.60309,1.95168l-0.60309,1.95168l-1.57895,1.20622l-1.9517,0l-1.57894,-1.20622l-0.6031,-1.95168z" stroke-width="0" stroke="#0f0f00" fill="#ffffff"/>
  <path id="svg_60" d="m885.78712,36.68571l0.60311,-1.95168l1.57894,-1.20621l1.9517,0l1.57895,1.20621l0.60309,1.95168l-0.60309,1.95168l-1.57895,1.20621l-1.9517,0l-1.57894,-1.20621l-0.60311,-1.95168z" stroke-width="0" stroke="#0f0f00" fill="#ffffff"/>
  <path id="svg_62" d="m920.52396,61.94887l0.60311,-1.95168l1.57894,-1.20621l1.9517,0l1.57895,1.20621l0.60309,1.95168l-0.60309,1.95168l-1.57895,1.20621l-1.9517,0l-1.57894,-1.20621l-0.60311,-1.95168z" stroke-width="0" stroke="#0f0f00" fill="#ffffff"/>
  <path id="svg_63" d="m953.15554,63.0015l0.60311,-1.95168l1.57894,-1.20621l1.9517,0l1.57895,1.20621l0.60309,1.95168l-0.60309,1.95168l-1.57895,1.20621l-1.9517,0l-1.57894,-1.20621l-0.60311,-1.95168z" stroke-width="0" stroke="#0f0f00" fill="#ffffff"/>
  <path id="svg_64" d="m854.20817,100.89624l0.60311,-1.95168l1.57894,-1.20621l1.9517,0l1.57895,1.20621l0.60309,1.95168l-0.60309,1.95168l-1.57895,1.20621l-1.9517,0l-1.57894,-1.20621l-0.60311,-1.95168z" stroke-width="0" stroke="#0f0f00" fill="#ffffff"/>
  <path id="svg_65" d="m807.89238,51.42255l0.60311,-1.95168l1.57894,-1.20621l1.9517,0l1.57895,1.20621l0.60309,1.95168l-0.60309,1.95168l-1.57895,1.20621l-1.9517,0l-1.57894,-1.20621l-0.60311,-1.95168z" stroke-width="0" stroke="#0f0f00" fill="#ffffff"/>
  <path stroke="#0f0f00" id="svg_69" d="m42.42342,19.34887l0.80414,-2.27696l2.10525,-1.40725l2.60227,0l2.10526,1.40725l0.80413,2.27696l-0.80413,2.27696l-2.10526,1.40725l-2.60227,0l-2.10525,-1.40725l-0.80414,-2.27696z" fill-opacity="null" stroke-opacity="null" stroke-width="0" fill="#ffffff"/>
  <path stroke="#0f0f00" id="svg_70" d="m48.73921,54.08571l0.80414,-2.27696l2.10525,-1.40725l2.60228,0l2.10526,1.40725l0.80413,2.27696l-0.80413,2.27695l-2.10526,1.40726l-2.60228,0l-2.10525,-1.40726l-0.80414,-2.27695z" fill-opacity="null" stroke-opacity="null" stroke-width="0" fill="#ffffff"/>
  <path stroke="#0f0f00" id="svg_71" d="m84.52868,24.61203l0.80414,-2.27696l2.10525,-1.40725l2.60228,0l2.10526,1.40725l0.80413,2.27696l-0.80413,2.27695l-2.10526,1.40726l-2.60228,0l-2.10525,-1.40726l-0.80414,-2.27695z" fill-opacity="null" stroke-opacity="null" stroke-width="0" fill="#ffffff"/>
  <path id="svg_75" d="m166.41341,18.82781l0.80414,-2.60224l2.10525,-1.60829l2.60228,0l2.10527,1.60829l0.80413,2.60224l-0.80413,2.60224l-2.10527,1.60829l-2.60228,0l-2.10525,-1.60829l-0.80414,-2.60224z" stroke-width="0" stroke="#0f0f00" fill="#ffffff"/>
  <path id="svg_77" d="m114.06606,48.66992l0.40207,-1.6264l1.05263,-1.00518l1.30114,0l1.05263,1.00518l0.40206,1.6264l-0.40206,1.6264l-1.05263,1.00518l-1.30114,0l-1.05263,-1.00518l-0.40207,-1.6264z" stroke-width="0" stroke="#0f0f00" fill="#ffffff"/>
  <path id="svg_85" d="m884.92398,66.47518l0.50259,-1.6264l1.31578,-1.00518l1.62642,0l1.31579,1.00518l0.50258,1.6264l-0.50258,1.6264l-1.31579,1.00518l-1.62642,0l-1.31578,-1.00518l-0.50259,-1.6264z" fill-opacity="null" stroke-opacity="null" stroke-width="0" stroke="#0f0f00" fill="#ffffff"/>
  <path id="svg_87" d="m33.42921,212.05414l0.20103,-0.97584l0.52631,-0.60311l0.65057,0l0.52632,0.60311l0.20103,0.97584l-0.20103,0.97584l-0.52632,0.60311l-0.65057,0l-0.52631,-0.60311l-0.20103,-0.97584z" fill-opacity="null" stroke-opacity="null" stroke-width="0" stroke="#0f0f00" fill="#ffffff"/>
  <path id="svg_89" d="m26.07132,244.53306l0.70362,-2.27695l1.84209,-1.40725l2.27699,0l1.84211,1.40725l0.70361,2.27695l-0.70361,2.27695l-1.84211,1.40725l-2.27699,0l-1.84209,-1.40725l-0.70362,-2.27695z" fill-opacity="null" stroke-opacity="null" stroke-width="0" stroke="#0f0f00" fill="#ffffff"/>
  <path id="svg_90" d="m15.6029,176.97519l0.6031,-1.95168l1.57894,-1.20622l1.9517,0l1.57895,1.20622l0.60309,1.95168l-0.60309,1.95168l-1.57895,1.20622l-1.9517,0l-1.57894,-1.20622l-0.6031,-1.95168z" fill-opacity="null" stroke-opacity="null" stroke-width="0" stroke="#0f0f00" fill="#ffffff"/>
  <path id="svg_91" d="m975.6287,234.58043l0.6031,-1.95167l1.57894,-1.20622l1.95171,0l1.57895,1.20622l0.60309,1.95167l-0.60309,1.95167l-1.57895,1.20622l-1.95171,0l-1.57894,-1.20622l-0.6031,-1.95167z" fill-opacity="null" stroke-opacity="null" stroke-width="0" stroke="#0f0f00" fill="#ffffff"/>
  <path id="svg_92" d="m953.63398,224.62255l0.30155,-0.97583l0.78947,-0.60311l0.97585,0l0.78948,0.60311l0.30155,0.97583l-0.30155,0.97583l-0.78948,0.60311l-0.97585,0l-0.78947,-0.60311l-0.30155,-0.97583z" fill-opacity="null" stroke-opacity="null" stroke-width="0" stroke="#0f0f00" fill="#ffffff"/>
 </g>
</svg>