<svg viewBox="0 0 900 1200" xmlns="http://www.w3.org/2000/svg">
 <!-- Created with Method Draw - http://github.com/duopixel/Method-Draw/ -->
 <defs>
  <linearGradient id="svg_62" x1="1" y1="1" x2="1" y2="0" spreadMethod="pad">
   <stop stop-color="#00559b" offset="0"/>
   <stop stop-color="#ffaa64" offset="1"/>
  </linearGradient>
 </defs>
 <g stroke="null">
  <title>background</title>
  <rect x="-1" y="-1" width="1697" height="1310.47477" id="canvas_background" fill="#fff" stroke="null"/>
  <g id="canvasGrid" display="none" stroke="null">
   <rect id="svg_1" width="100%" height="100%" x="0" y="0" stroke-width="0" fill="url(#gridpattern)"/>
  </g>
 </g>

<rect fill="#0a7399" stroke-width="1.5" x="-55.93234" y="-43.34481" width="959.70631" height="1351.81952" id="svg_5" stroke="url(#svg_62)"/>
<g id="rain">
  <g id="rain1">
   <path fill="#51bce2" stroke-width="1.5" stroke-opacity="0" d="m1049.52024,724.08523l-20.65628,18.68846l-17.59114,14.24993l-5.86372,6.30736l0.26653,5.37292l7.19638,2.10245l8.26251,-4.4385l7.99597,-8.4098l7.99598,-10.74586l9.8617,-12.38109l6.39678,-9.81144l-0.79959,-3.03687l-3.06512,2.10244z" id="svg_13" stroke="#000000"/>
   <path fill="#51bce2" stroke-width="1.5" stroke-opacity="0" d="m651.08906,410.50979l-20.65628,18.68846l-17.59114,14.24993l-5.86372,6.30736l0.26653,5.37292l7.19638,2.10245l8.26251,-4.4385l7.99597,-8.4098l7.99598,-10.74586l9.8617,-12.38109l6.39678,-9.81144l-0.79959,-3.03687l-3.06512,2.10244z" id="svg_19" stroke="#000000"/>
   <path fill="#51bce2" stroke-width="1.5" stroke-opacity="0" d="m863.01573,123.35375l-20.65628,18.68846l-17.59114,14.24993l-5.86372,6.30736l0.26653,5.37292l7.19638,2.10245l8.26251,-4.4385l7.99597,-8.4098l7.99598,-10.74586l9.8617,-12.38109l6.39678,-9.81144l-0.79959,-3.03687l-3.06512,2.10244z" id="svg_21" stroke="#000000"/>
   <path fill="#51bce2" stroke-width="1.5" stroke-opacity="0" d="m1340.82469,109.59228l-20.65628,18.68846l-17.59114,14.24993l-5.86372,6.30736l0.26653,5.37292l7.19638,2.10245l8.26251,-4.4385l7.99597,-8.4098l7.99598,-10.74586l9.8617,-12.38109l6.39678,-9.81144l-0.79959,-3.03687l-3.06512,2.10244z" id="svg_22" stroke="#000000"/>
   <path fill="#51bce2" stroke-width="1.5" stroke-opacity="0" d="m166.68528,416.01438l-20.65628,18.68846l-17.59114,14.24993l-5.86372,6.30736l0.26653,5.37292l7.19638,2.10245l8.26251,-4.4385l7.99597,-8.4098l7.99598,-10.74586l9.8617,-12.38109l6.39678,-9.81144l-0.79959,-3.03687l-3.06512,2.10244z" id="svg_28" stroke="#000000"/>
   <path fill="#51bce2" stroke-width="1.5" stroke-opacity="0" d="m336.41008,563.72085l-20.65628,18.68846l-17.59114,14.24993l-5.86372,6.30736l0.26653,5.37292l7.19638,2.10245l8.26251,-4.4385l7.99597,-8.4098l7.99598,-10.74586l9.8617,-12.38109l6.39678,-9.81144l-0.79959,-3.03687l-3.06512,2.10244z" id="svg_31" stroke="#000000"/>
   <path fill="#51bce2" stroke-width="1.5" stroke-opacity="0" d="m619.89639,756.38143l-20.65628,18.68846l-17.59114,14.24993l-5.86372,6.30736l0.26653,5.37292l7.19638,2.10245l8.26251,-4.4385l7.99597,-8.4098l7.99598,-10.74586l9.8617,-12.38109l6.39678,-9.81144l-0.79959,-3.03687l-3.06512,2.10244z" id="svg_36" stroke="#000000"/>
   <path fill="#51bce2" stroke-width="1.5" stroke-opacity="0" d="m772.19001,808.67501l-20.65628,18.68846l-17.59114,14.24993l-5.86372,6.30736l0.26653,5.37292l7.19638,2.10245l8.26251,-4.4385l7.99597,-8.4098l7.99598,-10.74586l9.8617,-12.38109l6.39678,-9.81144l-0.79959,-3.03687l-3.06512,2.10244z" id="svg_39" stroke="#000000"/>
   <path fill="#51bce2" stroke-width="1.5" stroke-opacity="0" d="m289.62109,846.2897l-20.65628,18.68846l-17.59114,14.24993l-5.86372,6.30736l0.26653,5.37292l7.19638,2.10245l8.26251,-4.4385l7.99597,-8.4098l7.99598,-10.74586l9.8617,-12.38109l6.39678,-9.81144l-0.79959,-3.03687l-3.06512,2.10244z" id="svg_43" stroke="#000000"/>
   <path fill="#51bce2" stroke-width="1.5" stroke-opacity="0" d="m160.26325,836.19796l-20.65628,18.68846l-17.59114,14.24993l-5.86372,6.30736l0.26653,5.37292l7.19638,2.10245l8.26251,-4.4385l7.99597,-8.4098l7.99598,-10.74586l9.8617,-12.38109l6.39678,-9.81144l-0.79959,-3.03687l-3.06512,2.10244z" id="svg_49" stroke="#000000"/>
   <path fill="#51bce2" stroke-width="1.5" stroke-opacity="0" d="m509.80463,964.63839l-20.65628,18.68846l-17.59114,14.24993l-5.86372,6.30736l0.26653,5.37292l7.19638,2.10245l8.26251,-4.4385l7.99597,-8.4098l7.99598,-10.74586l9.8617,-12.38109l6.39678,-9.81144l-0.79959,-3.03687l-3.06512,2.10244z" id="svg_59" stroke="#000000"/>
   <path fill="#51bce2" stroke-width="1.5" stroke-opacity="0" d="m724.48358,982.98702l-20.65628,18.68846l-17.59114,14.24993l-5.86372,6.30736l0.26653,5.37292l7.19638,2.10245l8.26251,-4.4385l7.99597,-8.4098l7.99598,-10.74586l9.8617,-12.38109l6.39678,-9.81144l-0.79959,-3.03687l-3.06512,2.10244z" id="svg_60" stroke="#000000"/>
   <path fill="#51bce2" stroke-width="1.5" stroke-opacity="0" d="m265.76786,42.61979l-20.65628,18.68846l-17.59114,14.24993l-5.86372,6.30736l0.26653,5.37292l7.19638,2.10245l8.26251,-4.4385l7.99597,-8.4098l7.99598,-10.74586l9.8617,-12.38109l6.39678,-9.81144l-0.79959,-3.03687l-3.06512,2.10244z" id="svg_61" stroke="#000000"/>
   <path fill="#51bce2" stroke-width="1.5" stroke-opacity="0" d="m110.72196,1123.35403l-20.65628,18.68846l-17.59114,14.24993l-5.86372,6.30736l0.26653,5.37292l7.19638,2.10245l8.26251,-4.4385l7.99597,-8.4098l7.99598,-10.74586l9.8617,-12.38109l6.39678,-9.81144l-0.79959,-3.03687l-3.06512,2.10244z" id="svg_63" stroke="#000000"/>
   <path fill="#51bce2" stroke-width="1.5" stroke-opacity="0" d="m1044.66715,221.51892l-20.65628,18.68846l-17.59114,14.24993l-5.86372,6.30736l0.26653,5.37292l7.19638,2.10245l8.26251,-4.4385l7.99597,-8.4098l7.99598,-10.74586l9.8617,-12.38109l6.39678,-9.81144l-0.79959,-3.03687l-3.06512,2.10244z" id="svg_64" stroke="#000000"/>
   <path fill="#51bce2" stroke-width="1.5" stroke-opacity="0" d="m829.23033,-41.13241l-20.65628,18.68846l-17.59114,14.24993l-5.86372,6.30736l0.26653,5.37292l7.19638,2.10245l8.26251,-4.4385l7.99597,-8.4098l7.99598,-10.74586l9.8617,-12.38109l6.39678,-9.81144l-0.79959,-3.03687l-3.06512,2.10244z" id="svg_67" stroke="#000000"/>
   <path fill="#51bce2" stroke-width="1.5" stroke-opacity="0" d="m1250.96958,-17.94399l-20.65628,18.68846l-17.59114,14.24993l-5.86372,6.30736l0.26653,5.37292l7.19638,2.10245l8.26251,-4.4385l7.99597,-8.4098l7.99598,-10.74586l9.8617,-12.38109l6.39678,-9.81144l-0.79959,-3.03687l-3.06512,2.10244z" id="svg_68" stroke="#000000"/>
   <path fill="#51bce2" stroke-width="1.5" stroke-opacity="0" d="m1185.75218,208.14303l-20.65628,18.68846l-17.59114,14.24993l-5.86372,6.30736l0.26653,5.37292l7.19638,2.10245l8.26251,-4.4385l7.99597,-8.4098l7.99598,-10.74586l9.8617,-12.38109l6.39678,-9.81144l-0.79959,-3.03687l-3.06512,2.10244z" id="svg_69" stroke="#000000"/>
   <path fill="#51bce2" stroke-width="1.5" stroke-opacity="0" d="m1135.0275,518.28805l-20.65628,18.68846l-17.59114,14.24993l-5.86372,6.30736l0.26653,5.37292l7.19638,2.10245l8.26251,-4.4385l7.99597,-8.4098l7.99598,-10.74586l9.8617,-12.38109l6.39678,-9.81144l-0.79959,-3.03687l-3.06512,2.10244z" id="svg_70" stroke="#000000"/>
   <path fill="#51bce2" stroke-width="1.5" stroke-opacity="0" d="m532.12879,-165.77012l-20.65628,18.68846l-17.59114,14.24993l-5.86372,6.30736l0.26653,5.37292l7.19638,2.10245l8.26251,-4.4385l7.99597,-8.4098l7.99598,-10.74586l9.8617,-12.38109l6.39678,-9.81144l-0.79959,-3.03687l-3.06512,2.10244z" id="svg_71" stroke="#000000"/>
   <path fill="#51bce2" stroke-width="1.5" stroke-opacity="0" d="m498.79545,203.79521l-20.65627,18.68845l-17.59115,14.24994l-5.86372,6.30735l0.26653,5.37293l7.19638,2.10245l8.26251,-4.43851l7.99598,-8.4098l7.99598,-10.74586l9.8617,-12.3811l6.39678,-9.81143l-0.7996,-3.03687l-3.06512,2.10244l0,0.00001z" id="svg_6" stroke="#000000"/>
  </g>
  <g id="rain2">
   <path fill="#51bce2" stroke-width="1.5" stroke-opacity="0" d="m1049.52024,724.08523l-20.65628,18.68846l-17.59114,14.24993l-5.86372,6.30736l0.26653,5.37292l7.19638,2.10245l8.26251,-4.4385l7.99597,-8.4098l7.99598,-10.74586l9.8617,-12.38109l6.39678,-9.81144l-0.79959,-3.03687l-3.06512,2.10244z" id="svg_113" stroke="#000000"/>
   <path fill="#51bce2" stroke-width="1.5" stroke-opacity="0" d="m651.08906,410.50979l-20.65628,18.68846l-17.59114,14.24993l-5.86372,6.30736l0.26653,5.37292l7.19638,2.10245l8.26251,-4.4385l7.99597,-8.4098l7.99598,-10.74586l9.8617,-12.38109l6.39678,-9.81144l-0.79959,-3.03687l-3.06512,2.10244z" id="svg_114" stroke="#000000"/>
   <path fill="#51bce2" stroke-width="1.5" stroke-opacity="0" d="m863.01573,123.35375l-20.65628,18.68846l-17.59114,14.24993l-5.86372,6.30736l0.26653,5.37292l7.19638,2.10245l8.26251,-4.4385l7.99597,-8.4098l7.99598,-10.74586l9.8617,-12.38109l6.39678,-9.81144l-0.79959,-3.03687l-3.06512,2.10244z" id="svg_115" stroke="#000000"/>
   <path fill="#51bce2" stroke-width="1.5" stroke-opacity="0" d="m1340.82469,109.59228l-20.65628,18.68846l-17.59114,14.24993l-5.86372,6.30736l0.26653,5.37292l7.19638,2.10245l8.26251,-4.4385l7.99597,-8.4098l7.99598,-10.74586l9.8617,-12.38109l6.39678,-9.81144l-0.79959,-3.03687l-3.06512,2.10244z" id="svg_116" stroke="#000000"/>
   <path fill="#51bce2" stroke-width="1.5" stroke-opacity="0" d="m166.68528,416.01438l-20.65628,18.68846l-17.59114,14.24993l-5.86372,6.30736l0.26653,5.37292l7.19638,2.10245l8.26251,-4.4385l7.99597,-8.4098l7.99598,-10.74586l9.8617,-12.38109l6.39678,-9.81144l-0.79959,-3.03687l-3.06512,2.10244z" id="svg_117" stroke="#000000"/>
   <path fill="#51bce2" stroke-width="1.5" stroke-opacity="0" d="m336.41008,563.72085l-20.65628,18.68846l-17.59114,14.24993l-5.86372,6.30736l0.26653,5.37292l7.19638,2.10245l8.26251,-4.4385l7.99597,-8.4098l7.99598,-10.74586l9.8617,-12.38109l6.39678,-9.81144l-0.79959,-3.03687l-3.06512,2.10244z" id="svg_118" stroke="#000000"/>
   <path fill="#51bce2" stroke-width="1.5" stroke-opacity="0" d="m619.89639,756.38143l-20.65628,18.68846l-17.59114,14.24993l-5.86372,6.30736l0.26653,5.37292l7.19638,2.10245l8.26251,-4.4385l7.99597,-8.4098l7.99598,-10.74586l9.8617,-12.38109l6.39678,-9.81144l-0.79959,-3.03687l-3.06512,2.10244z" id="svg_119" stroke="#000000"/>
   <path fill="#51bce2" stroke-width="1.5" stroke-opacity="0" d="m772.19001,808.67501l-20.65628,18.68846l-17.59114,14.24993l-5.86372,6.30736l0.26653,5.37292l7.19638,2.10245l8.26251,-4.4385l7.99597,-8.4098l7.99598,-10.74586l9.8617,-12.38109l6.39678,-9.81144l-0.79959,-3.03687l-3.06512,2.10244z" id="svg_120" stroke="#000000"/>
   <path fill="#51bce2" stroke-width="1.5" stroke-opacity="0" d="m289.62109,846.2897l-20.65628,18.68846l-17.59114,14.24993l-5.86372,6.30736l0.26653,5.37292l7.19638,2.10245l8.26251,-4.4385l7.99597,-8.4098l7.99598,-10.74586l9.8617,-12.38109l6.39678,-9.81144l-0.79959,-3.03687l-3.06512,2.10244z" id="svg_121" stroke="#000000"/>
   <path fill="#51bce2" stroke-width="1.5" stroke-opacity="0" d="m160.26325,836.19796l-20.65628,18.68846l-17.59114,14.24993l-5.86372,6.30736l0.26653,5.37292l7.19638,2.10245l8.26251,-4.4385l7.99597,-8.4098l7.99598,-10.74586l9.8617,-12.38109l6.39678,-9.81144l-0.79959,-3.03687l-3.06512,2.10244z" id="svg_122" stroke="#000000"/>
   <path fill="#51bce2" stroke-width="1.5" stroke-opacity="0" d="m509.80463,964.63839l-20.65628,18.68846l-17.59114,14.24993l-5.86372,6.30736l0.26653,5.37292l7.19638,2.10245l8.26251,-4.4385l7.99597,-8.4098l7.99598,-10.74586l9.8617,-12.38109l6.39678,-9.81144l-0.79959,-3.03687l-3.06512,2.10244z" id="svg_123" stroke="#000000"/>
   <path fill="#51bce2" stroke-width="1.5" stroke-opacity="0" d="m724.48358,982.98702l-20.65628,18.68846l-17.59114,14.24993l-5.86372,6.30736l0.26653,5.37292l7.19638,2.10245l8.26251,-4.4385l7.99597,-8.4098l7.99598,-10.74586l9.8617,-12.38109l6.39678,-9.81144l-0.79959,-3.03687l-3.06512,2.10244z" id="svg_124" stroke="#000000"/>
   <path fill="#51bce2" stroke-width="1.5" stroke-opacity="0" d="m265.76786,42.61979l-20.65628,18.68846l-17.59114,14.24993l-5.86372,6.30736l0.26653,5.37292l7.19638,2.10245l8.26251,-4.4385l7.99597,-8.4098l7.99598,-10.74586l9.8617,-12.38109l6.39678,-9.81144l-0.79959,-3.03687l-3.06512,2.10244z" id="svg_125" stroke="#000000"/>
   <path fill="#51bce2" stroke-width="1.5" stroke-opacity="0" d="m110.72196,1123.35403l-20.65628,18.68846l-17.59114,14.24993l-5.86372,6.30736l0.26653,5.37292l7.19638,2.10245l8.26251,-4.4385l7.99597,-8.4098l7.99598,-10.74586l9.8617,-12.38109l6.39678,-9.81144l-0.79959,-3.03687l-3.06512,2.10244z" id="svg_126" stroke="#000000"/>
   <path fill="#51bce2" stroke-width="1.5" stroke-opacity="0" d="m1044.66715,221.51892l-20.65628,18.68846l-17.59114,14.24993l-5.86372,6.30736l0.26653,5.37292l7.19638,2.10245l8.26251,-4.4385l7.99597,-8.4098l7.99598,-10.74586l9.8617,-12.38109l6.39678,-9.81144l-0.79959,-3.03687l-3.06512,2.10244z" id="svg_127" stroke="#000000"/>
   <path fill="#51bce2" stroke-width="1.5" stroke-opacity="0" d="m829.23033,-41.13241l-20.65628,18.68846l-17.59114,14.24993l-5.86372,6.30736l0.26653,5.37292l7.19638,2.10245l8.26251,-4.4385l7.99597,-8.4098l7.99598,-10.74586l9.8617,-12.38109l6.39678,-9.81144l-0.79959,-3.03687l-3.06512,2.10244z" id="svg_128" stroke="#000000"/>
   <path fill="#51bce2" stroke-width="1.5" stroke-opacity="0" d="m1250.96958,-17.94399l-20.65628,18.68846l-17.59114,14.24993l-5.86372,6.30736l0.26653,5.37292l7.19638,2.10245l8.26251,-4.4385l7.99597,-8.4098l7.99598,-10.74586l9.8617,-12.38109l6.39678,-9.81144l-0.79959,-3.03687l-3.06512,2.10244z" id="svg_129" stroke="#000000"/>
   <path fill="#51bce2" stroke-width="1.5" stroke-opacity="0" d="m1185.75218,208.14303l-20.65628,18.68846l-17.59114,14.24993l-5.86372,6.30736l0.26653,5.37292l7.19638,2.10245l8.26251,-4.4385l7.99597,-8.4098l7.99598,-10.74586l9.8617,-12.38109l6.39678,-9.81144l-0.79959,-3.03687l-3.06512,2.10244z" id="svg_130" stroke="#000000"/>
   <path fill="#51bce2" stroke-width="1.5" stroke-opacity="0" d="m1135.0275,518.28805l-20.65628,18.68846l-17.59114,14.24993l-5.86372,6.30736l0.26653,5.37292l7.19638,2.10245l8.26251,-4.4385l7.99597,-8.4098l7.99598,-10.74586l9.8617,-12.38109l6.39678,-9.81144l-0.79959,-3.03687l-3.06512,2.10244z" id="svg_131" stroke="#000000"/>
   <path fill="#51bce2" stroke-width="1.5" stroke-opacity="0" d="m532.12879,-165.77012l-20.65628,18.68846l-17.59114,14.24993l-5.86372,6.30736l0.26653,5.37292l7.19638,2.10245l8.26251,-4.4385l7.99597,-8.4098l7.99598,-10.74586l9.8617,-12.38109l6.39678,-9.81144l-0.79959,-3.03687l-3.06512,2.10244z" id="svg_132" stroke="#000000"/>
   <path fill="#51bce2" stroke-width="1.5" stroke-opacity="0" d="m498.79545,203.79521l-20.65627,18.68845l-17.59115,14.24994l-5.86372,6.30735l0.26653,5.37293l7.19638,2.10245l8.26251,-4.43851l7.99598,-8.4098l7.99598,-10.74586l9.8617,-12.3811l6.39678,-9.81143l-0.7996,-3.03687l-3.06512,2.10244l0,0.00001z" id="svg_133" stroke="#000000"/>
  </g>
  <g id="rain3">
   <path fill="#51bce2" stroke-width="1.5" stroke-opacity="0" d="m1789.52128,-935.91721l-20.65628,18.68846l-17.59114,14.24993l-5.86372,6.30736l0.26653,5.37292l7.19638,2.10245l8.26251,-4.4385l7.99597,-8.4098l7.99598,-10.74586l9.8617,-12.38109l6.39678,-9.81144l-0.79959,-3.03687l-3.06512,2.10244z" id="svg_135" stroke="#000000"/>
   <path fill="#51bce2" stroke-width="1.5" stroke-opacity="0" d="m1391.0901,-1249.49265l-20.65628,18.68846l-17.59114,14.24993l-5.86372,6.30736l0.26653,5.37292l7.19638,2.10245l8.26251,-4.4385l7.99597,-8.4098l7.99598,-10.74586l9.8617,-12.38109l6.39678,-9.81144l-0.79959,-3.03687l-3.06512,2.10244z" id="svg_136" stroke="#000000"/>
   <path fill="#51bce2" stroke-width="1.5" stroke-opacity="0" d="m1603.01677,-1536.64869l-20.65628,18.68846l-17.59114,14.24993l-5.86372,6.30736l0.26653,5.37292l7.19638,2.10245l8.26251,-4.4385l7.99597,-8.4098l7.99598,-10.74586l9.8617,-12.38109l6.39678,-9.81144l-0.79959,-3.03687l-3.06512,2.10244z" id="svg_137" stroke="#000000"/>
   <path fill="#51bce2" stroke-width="1.5" stroke-opacity="0" d="m2080.82573,-1550.41016l-20.65628,18.68846l-17.59114,14.24993l-5.86372,6.30736l0.26653,5.37292l7.19638,2.10245l8.26251,-4.4385l7.99597,-8.4098l7.99598,-10.74586l9.8617,-12.38109l6.39678,-9.81144l-0.79959,-3.03687l-3.06512,2.10244z" id="svg_138" stroke="#000000"/>
   <path fill="#51bce2" stroke-width="1.5" stroke-opacity="0" d="m906.68632,-1243.98806l-20.65628,18.68846l-17.59114,14.24993l-5.86372,6.30736l0.26653,5.37292l7.19638,2.10245l8.26251,-4.4385l7.99597,-8.4098l7.99598,-10.74586l9.8617,-12.38109l6.39678,-9.81144l-0.79959,-3.03687l-3.06512,2.10244z" id="svg_139" stroke="#000000"/>
   <path fill="#51bce2" stroke-width="1.5" stroke-opacity="0" d="m1076.41112,-1096.28159l-20.65628,18.68846l-17.59114,14.24993l-5.86372,6.30736l0.26653,5.37292l7.19638,2.10245l8.26251,-4.4385l7.99597,-8.4098l7.99598,-10.74586l9.8617,-12.38109l6.39678,-9.81144l-0.79959,-3.03687l-3.06512,2.10244z" id="svg_140" stroke="#000000"/>
   <path fill="#51bce2" stroke-width="1.5" stroke-opacity="0" d="m1359.89743,-903.62101l-20.65628,18.68846l-17.59114,14.24993l-5.86372,6.30736l0.26653,5.37292l7.19638,2.10245l8.26251,-4.4385l7.99597,-8.4098l7.99598,-10.74586l9.8617,-12.38109l6.39678,-9.81144l-0.79959,-3.03687l-3.06512,2.10244z" id="svg_141" stroke="#000000"/>
   <path fill="#51bce2" stroke-width="1.5" stroke-opacity="0" d="m1512.19105,-851.32743l-20.65628,18.68846l-17.59114,14.24993l-5.86372,6.30736l0.26653,5.37292l7.19638,2.10245l8.26251,-4.4385l7.99597,-8.4098l7.99598,-10.74586l9.8617,-12.38109l6.39678,-9.81144l-0.79959,-3.03687l-3.06512,2.10244z" id="svg_142" stroke="#000000"/>
   <path fill="#51bce2" stroke-width="1.5" stroke-opacity="0" d="m1029.62213,-813.71274l-20.65628,18.68846l-17.59114,14.24993l-5.86372,6.30736l0.26653,5.37292l7.19638,2.10245l8.26251,-4.4385l7.99597,-8.4098l7.99598,-10.74586l9.8617,-12.38109l6.39678,-9.81144l-0.79959,-3.03687l-3.06512,2.10244z" id="svg_143" stroke="#000000"/>
   <path fill="#51bce2" stroke-width="1.5" stroke-opacity="0" d="m900.26429,-823.80448l-20.65628,18.68846l-17.59114,14.24993l-5.86372,6.30736l0.26653,5.37292l7.19638,2.10245l8.26251,-4.4385l7.99597,-8.4098l7.99598,-10.74586l9.8617,-12.38109l6.39678,-9.81144l-0.79959,-3.03687l-3.06512,2.10244z" id="svg_144" stroke="#000000"/>
   <path fill="#51bce2" stroke-width="1.5" stroke-opacity="0" d="m1249.80567,-695.36405l-20.65628,18.68846l-17.59114,14.24993l-5.86372,6.30736l0.26653,5.37292l7.19638,2.10245l8.26251,-4.4385l7.99597,-8.4098l7.99598,-10.74586l9.8617,-12.38109l6.39678,-9.81144l-0.79959,-3.03687l-3.06512,2.10244z" id="svg_145" stroke="#000000"/>
   <path fill="#51bce2" stroke-width="1.5" stroke-opacity="0" d="m1464.48462,-677.01542l-20.65628,18.68846l-17.59114,14.24993l-5.86372,6.30736l0.26653,5.37292l7.19638,2.10245l8.26251,-4.4385l7.99597,-8.4098l7.99598,-10.74586l9.8617,-12.38109l6.39678,-9.81144l-0.79959,-3.03687l-3.06512,2.10244z" id="svg_146" stroke="#000000"/>
   <path fill="#51bce2" stroke-width="1.5" stroke-opacity="0" d="m1005.7689,-1617.38265l-20.65628,18.68846l-17.59114,14.24993l-5.86372,6.30736l0.26653,5.37292l7.19638,2.10245l8.26251,-4.4385l7.99597,-8.4098l7.99598,-10.74586l9.8617,-12.38109l6.39678,-9.81144l-0.79959,-3.03687l-3.06512,2.10244z" id="svg_147" stroke="#000000"/>
   <path fill="#51bce2" stroke-width="1.5" stroke-opacity="0" d="m850.723,-536.64841l-20.65628,18.68846l-17.59114,14.24993l-5.86372,6.30736l0.26653,5.37292l7.19638,2.10245l8.26251,-4.4385l7.99597,-8.4098l7.99598,-10.74586l9.8617,-12.38109l6.39678,-9.81144l-0.79959,-3.03687l-3.06512,2.10244z" id="svg_148" stroke="#000000"/>
   <path fill="#51bce2" stroke-width="1.5" stroke-opacity="0" d="m1784.66819,-1438.48352l-20.65628,18.68846l-17.59114,14.24993l-5.86372,6.30736l0.26653,5.37292l7.19638,2.10245l8.26251,-4.4385l7.99597,-8.4098l7.99598,-10.74586l9.8617,-12.38109l6.39678,-9.81144l-0.79959,-3.03687l-3.06512,2.10244z" id="svg_149" stroke="#000000"/>
   <path fill="#51bce2" stroke-width="1.5" stroke-opacity="0" d="m1569.23137,-1701.13485l-20.65628,18.68846l-17.59114,14.24993l-5.86372,6.30736l0.26653,5.37292l7.19638,2.10245l8.26251,-4.4385l7.99597,-8.4098l7.99598,-10.74586l9.8617,-12.38109l6.39678,-9.81144l-0.79959,-3.03687l-3.06512,2.10244z" id="svg_150" stroke="#000000"/>
   <path fill="#51bce2" stroke-width="1.5" stroke-opacity="0" d="m1990.97062,-1677.94643l-20.65628,18.68846l-17.59114,14.24993l-5.86372,6.30736l0.26653,5.37292l7.19638,2.10245l8.26251,-4.4385l7.99597,-8.4098l7.99598,-10.74586l9.8617,-12.38109l6.39678,-9.81144l-0.79959,-3.03687l-3.06512,2.10244z" id="svg_151" stroke="#000000"/>
   <path fill="#51bce2" stroke-width="1.5" stroke-opacity="0" d="m1925.75322,-1451.85941l-20.65628,18.68846l-17.59114,14.24993l-5.86372,6.30736l0.26653,5.37292l7.19638,2.10245l8.26251,-4.4385l7.99597,-8.4098l7.99598,-10.74586l9.8617,-12.38109l6.39678,-9.81144l-0.79959,-3.03687l-3.06512,2.10244z" id="svg_152" stroke="#000000"/>
   <path fill="#51bce2" stroke-width="1.5" stroke-opacity="0" d="m1875.02854,-1141.71439l-20.65628,18.68846l-17.59114,14.24993l-5.86372,6.30736l0.26653,5.37292l7.19638,2.10245l8.26251,-4.4385l7.99597,-8.4098l7.99598,-10.74586l9.8617,-12.38109l6.39678,-9.81144l-0.79959,-3.03687l-3.06512,2.10244z" id="svg_153" stroke="#000000"/>
   <path fill="#51bce2" stroke-width="1.5" stroke-opacity="0" d="m1272.12983,-1825.77256l-20.65628,18.68846l-17.59114,14.24993l-5.86372,6.30736l0.26653,5.37292l7.19638,2.10245l8.26251,-4.4385l7.99597,-8.4098l7.99598,-10.74586l9.8617,-12.38109l6.39678,-9.81144l-0.79959,-3.03687l-3.06512,2.10244z" id="svg_154" stroke="#000000"/>
   <path fill="#51bce2" stroke-width="1.5" stroke-opacity="0" d="m1238.79649,-1456.20723l-20.65627,18.68845l-17.59115,14.24994l-5.86372,6.30735l0.26653,5.37293l7.19638,2.10245l8.26251,-4.43851l7.99598,-8.4098l7.99598,-10.74586l9.8617,-12.3811l6.39678,-9.81143l-0.7996,-3.03687l-3.06512,2.10244l0,0.00001z" id="svg_155" stroke="#000000"/>
  </g>
  <g id="rain4">
   <path fill="#51bce2" stroke-width="1.5" stroke-opacity="0" d="m1299.52071,-390.91685l-20.65628,18.68846l-17.59114,14.24993l-5.86372,6.30736l0.26653,5.37292l7.19638,2.10245l8.26251,-4.4385l7.99597,-8.4098l7.99598,-10.74586l9.8617,-12.38109l6.39678,-9.81144l-0.79959,-3.03687l-3.06512,2.10244z" id="svg_157" stroke="#000000"/>
   <path fill="#51bce2" stroke-width="1.5" stroke-opacity="0" d="m901.08953,-704.49229l-20.65628,18.68846l-17.59114,14.24993l-5.86372,6.30736l0.26653,5.37292l7.19638,2.10245l8.26251,-4.4385l7.99597,-8.4098l7.99598,-10.74586l9.8617,-12.38109l6.39678,-9.81144l-0.79959,-3.03687l-3.06512,2.10244z" id="svg_158" stroke="#000000"/>
   <path fill="#51bce2" stroke-width="1.5" stroke-opacity="0" d="m1113.0162,-991.64833l-20.65628,18.68846l-17.59114,14.24993l-5.86372,6.30736l0.26653,5.37292l7.19638,2.10245l8.26251,-4.4385l7.99597,-8.4098l7.99598,-10.74586l9.8617,-12.38109l6.39678,-9.81144l-0.79959,-3.03687l-3.06512,2.10244z" id="svg_159" stroke="#000000"/>
   <path fill="#51bce2" stroke-width="1.5" stroke-opacity="0" d="m1590.82516,-1005.4098l-20.65628,18.68846l-17.59114,14.24993l-5.86372,6.30736l0.26653,5.37292l7.19638,2.10245l8.26251,-4.4385l7.99597,-8.4098l7.99598,-10.74586l9.8617,-12.38109l6.39678,-9.81144l-0.79959,-3.03687l-3.06512,2.10244z" id="svg_160" stroke="#000000"/>
   <path fill="#51bce2" stroke-width="1.5" stroke-opacity="0" d="m416.68575,-698.9877l-20.65628,18.68846l-17.59114,14.24993l-5.86372,6.30736l0.26653,5.37292l7.19638,2.10245l8.26251,-4.4385l7.99597,-8.4098l7.99598,-10.74586l9.8617,-12.38109l6.39678,-9.81144l-0.79959,-3.03687l-3.06512,2.10244z" id="svg_161" stroke="#000000"/>
   <path fill="#51bce2" stroke-width="1.5" stroke-opacity="0" d="m586.41055,-551.28123l-20.65628,18.68846l-17.59114,14.24993l-5.86372,6.30736l0.26653,5.37292l7.19638,2.10245l8.26251,-4.4385l7.99597,-8.4098l7.99598,-10.74586l9.8617,-12.38109l6.39678,-9.81144l-0.79959,-3.03687l-3.06512,2.10244z" id="svg_162" stroke="#000000"/>
   <path fill="#51bce2" stroke-width="1.5" stroke-opacity="0" d="m869.89686,-358.62065l-20.65628,18.68846l-17.59114,14.24993l-5.86372,6.30736l0.26653,5.37292l7.19638,2.10245l8.26251,-4.4385l7.99597,-8.4098l7.99598,-10.74586l9.8617,-12.38109l6.39678,-9.81144l-0.79959,-3.03687l-3.06512,2.10244z" id="svg_163" stroke="#000000"/>
   <path fill="#51bce2" stroke-width="1.5" stroke-opacity="0" d="m1022.19048,-306.32707l-20.65628,18.68846l-17.59114,14.24993l-5.86372,6.30736l0.26653,5.37292l7.19638,2.10245l8.26251,-4.4385l7.99597,-8.4098l7.99598,-10.74586l9.8617,-12.38109l6.39678,-9.81144l-0.79959,-3.03687l-3.06512,2.10244z" id="svg_164" stroke="#000000"/>
   <path fill="#51bce2" stroke-width="1.5" stroke-opacity="0" d="m539.62156,-268.71238l-20.65628,18.68846l-17.59114,14.24993l-5.86372,6.30736l0.26653,5.37292l7.19638,2.10245l8.26251,-4.4385l7.99597,-8.4098l7.99598,-10.74586l9.8617,-12.38109l6.39678,-9.81144l-0.79959,-3.03687l-3.06512,2.10244z" id="svg_165" stroke="#000000"/>
   <path fill="#51bce2" stroke-width="1.5" stroke-opacity="0" d="m410.26372,-278.80412l-20.65628,18.68846l-17.59114,14.24993l-5.86372,6.30736l0.26653,5.37292l7.19638,2.10245l8.26251,-4.4385l7.99597,-8.4098l7.99598,-10.74586l9.8617,-12.38109l6.39678,-9.81144l-0.79959,-3.03687l-3.06512,2.10244z" id="svg_166" stroke="#000000"/>
   <path fill="#51bce2" stroke-width="1.5" stroke-opacity="0" d="m759.8051,-150.36369l-20.65628,18.68846l-17.59114,14.24993l-5.86372,6.30736l0.26653,5.37292l7.19638,2.10245l8.26251,-4.4385l7.99597,-8.4098l7.99598,-10.74586l9.8617,-12.38109l6.39678,-9.81144l-0.79959,-3.03687l-3.06512,2.10244z" id="svg_167" stroke="#000000"/>
   <path fill="#51bce2" stroke-width="1.5" stroke-opacity="0" d="m974.48405,-132.01506l-20.65628,18.68846l-17.59114,14.24993l-5.86372,6.30736l0.26653,5.37292l7.19638,2.10245l8.26251,-4.4385l7.99597,-8.4098l7.99598,-10.74586l9.8617,-12.38109l6.39678,-9.81144l-0.79959,-3.03687l-3.06512,2.10244z" id="svg_168" stroke="#000000"/>
   <path fill="#51bce2" stroke-width="1.5" stroke-opacity="0" d="m515.76833,-1072.38229l-20.65628,18.68846l-17.59114,14.24993l-5.86372,6.30736l0.26653,5.37292l7.19638,2.10245l8.26251,-4.4385l7.99597,-8.4098l7.99598,-10.74586l9.8617,-12.38109l6.39678,-9.81144l-0.79959,-3.03687l-3.06512,2.10244z" id="svg_169" stroke="#000000"/>
   <path fill="#51bce2" stroke-width="1.5" stroke-opacity="0" d="m360.72243,8.35195l-20.65628,18.68846l-17.59114,14.24993l-5.86372,6.30736l0.26653,5.37292l7.19638,2.10245l8.26251,-4.4385l7.99597,-8.4098l7.99598,-10.74586l9.8617,-12.38109l6.39678,-9.81144l-0.79959,-3.03687l-3.06512,2.10244z" id="svg_170" stroke="#000000"/>
   <path fill="#51bce2" stroke-width="1.5" stroke-opacity="0" d="m1294.66762,-893.48316l-20.65628,18.68846l-17.59114,14.24993l-5.86372,6.30736l0.26653,5.37292l7.19638,2.10245l8.26251,-4.4385l7.99597,-8.4098l7.99598,-10.74586l9.8617,-12.38109l6.39678,-9.81144l-0.79959,-3.03687l-3.06512,2.10244z" id="svg_171" stroke="#000000"/>
   <path fill="#51bce2" stroke-width="1.5" stroke-opacity="0" d="m1079.2308,-1156.13449l-20.65628,18.68846l-17.59114,14.24993l-5.86372,6.30736l0.26653,5.37292l7.19638,2.10245l8.26251,-4.4385l7.99597,-8.4098l7.99598,-10.74586l9.8617,-12.38109l6.39678,-9.81144l-0.79959,-3.03687l-3.06512,2.10244z" id="svg_172" stroke="#000000"/>
   <path fill="#51bce2" stroke-width="1.5" stroke-opacity="0" d="m1500.97005,-1132.94607l-20.65628,18.68846l-17.59114,14.24993l-5.86372,6.30736l0.26653,5.37292l7.19638,2.10245l8.26251,-4.4385l7.99597,-8.4098l7.99598,-10.74586l9.8617,-12.38109l6.39678,-9.81144l-0.79959,-3.03687l-3.06512,2.10244z" id="svg_173" stroke="#000000"/>
   <path fill="#51bce2" stroke-width="1.5" stroke-opacity="0" d="m1435.75265,-906.85905l-20.65628,18.68846l-17.59114,14.24993l-5.86372,6.30736l0.26653,5.37292l7.19638,2.10245l8.26251,-4.4385l7.99597,-8.4098l7.99598,-10.74586l9.8617,-12.38109l6.39678,-9.81144l-0.79959,-3.03687l-3.06512,2.10244z" id="svg_174" stroke="#000000"/>
   <path fill="#51bce2" stroke-width="1.5" stroke-opacity="0" d="m1385.02797,-596.71403l-20.65628,18.68846l-17.59114,14.24993l-5.86372,6.30736l0.26653,5.37292l7.19638,2.10245l8.26251,-4.4385l7.99597,-8.4098l7.99598,-10.74586l9.8617,-12.38109l6.39678,-9.81144l-0.79959,-3.03687l-3.06512,2.10244z" id="svg_175" stroke="#000000"/>
   <path fill="#51bce2" stroke-width="1.5" stroke-opacity="0" d="m782.12926,-1280.7722l-20.65628,18.68846l-17.59114,14.24993l-5.86372,6.30736l0.26653,5.37292l7.19638,2.10245l8.26251,-4.4385l7.99597,-8.4098l7.99598,-10.74586l9.8617,-12.38109l6.39678,-9.81144l-0.79959,-3.03687l-3.06512,2.10244z" id="svg_176" stroke="#000000"/>
   <path fill="#51bce2" stroke-width="1.5" stroke-opacity="0" d="m748.79592,-911.20687l-20.65627,18.68845l-17.59115,14.24994l-5.86372,6.30735l0.26653,5.37293l7.19638,2.10245l8.26251,-4.43851l7.99598,-8.4098l7.99598,-10.74586l9.8617,-12.3811l6.39678,-9.81143l-0.7996,-3.03687l-3.06512,2.10244l0,0.00001z" id="svg_177" stroke="#000000"/>
  </g>
  <g id="rain5">
   <path fill="#51bce2" stroke-width="1.5" stroke-opacity="0" d="m1299.52071,-390.91685l-20.65628,18.68846l-17.59114,14.24993l-5.86372,6.30736l0.26653,5.37292l7.19638,2.10245l8.26251,-4.4385l7.99597,-8.4098l7.99598,-10.74586l9.8617,-12.38109l6.39678,-9.81144l-0.79959,-3.03687l-3.06512,2.10244z" id="svg_245" stroke="#000000"/>
   <path fill="#51bce2" stroke-width="1.5" stroke-opacity="0" d="m901.08953,-704.49229l-20.65628,18.68846l-17.59114,14.24993l-5.86372,6.30736l0.26653,5.37292l7.19638,2.10245l8.26251,-4.4385l7.99597,-8.4098l7.99598,-10.74586l9.8617,-12.38109l6.39678,-9.81144l-0.79959,-3.03687l-3.06512,2.10244z" id="svg_246" stroke="#000000"/>
   <path fill="#51bce2" stroke-width="1.5" stroke-opacity="0" d="m1113.0162,-991.64833l-20.65628,18.68846l-17.59114,14.24993l-5.86372,6.30736l0.26653,5.37292l7.19638,2.10245l8.26251,-4.4385l7.99597,-8.4098l7.99598,-10.74586l9.8617,-12.38109l6.39678,-9.81144l-0.79959,-3.03687l-3.06512,2.10244z" id="svg_247" stroke="#000000"/>
   <path fill="#51bce2" stroke-width="1.5" stroke-opacity="0" d="m1590.82516,-1005.4098l-20.65628,18.68846l-17.59114,14.24993l-5.86372,6.30736l0.26653,5.37292l7.19638,2.10245l8.26251,-4.4385l7.99597,-8.4098l7.99598,-10.74586l9.8617,-12.38109l6.39678,-9.81144l-0.79959,-3.03687l-3.06512,2.10244z" id="svg_248" stroke="#000000"/>
   <path fill="#51bce2" stroke-width="1.5" stroke-opacity="0" d="m416.68575,-698.9877l-20.65628,18.68846l-17.59114,14.24993l-5.86372,6.30736l0.26653,5.37292l7.19638,2.10245l8.26251,-4.4385l7.99597,-8.4098l7.99598,-10.74586l9.8617,-12.38109l6.39678,-9.81144l-0.79959,-3.03687l-3.06512,2.10244z" id="svg_249" stroke="#000000"/>
   <path fill="#51bce2" stroke-width="1.5" stroke-opacity="0" d="m586.41055,-551.28123l-20.65628,18.68846l-17.59114,14.24993l-5.86372,6.30736l0.26653,5.37292l7.19638,2.10245l8.26251,-4.4385l7.99597,-8.4098l7.99598,-10.74586l9.8617,-12.38109l6.39678,-9.81144l-0.79959,-3.03687l-3.06512,2.10244z" id="svg_250" stroke="#000000"/>
   <path fill="#51bce2" stroke-width="1.5" stroke-opacity="0" d="m869.89686,-358.62065l-20.65628,18.68846l-17.59114,14.24993l-5.86372,6.30736l0.26653,5.37292l7.19638,2.10245l8.26251,-4.4385l7.99597,-8.4098l7.99598,-10.74586l9.8617,-12.38109l6.39678,-9.81144l-0.79959,-3.03687l-3.06512,2.10244z" id="svg_251" stroke="#000000"/>
   <path fill="#51bce2" stroke-width="1.5" stroke-opacity="0" d="m1022.19048,-306.32707l-20.65628,18.68846l-17.59114,14.24993l-5.86372,6.30736l0.26653,5.37292l7.19638,2.10245l8.26251,-4.4385l7.99597,-8.4098l7.99598,-10.74586l9.8617,-12.38109l6.39678,-9.81144l-0.79959,-3.03687l-3.06512,2.10244z" id="svg_252" stroke="#000000"/>
   <path fill="#51bce2" stroke-width="1.5" stroke-opacity="0" d="m539.62156,-268.71238l-20.65628,18.68846l-17.59114,14.24993l-5.86372,6.30736l0.26653,5.37292l7.19638,2.10245l8.26251,-4.4385l7.99597,-8.4098l7.99598,-10.74586l9.8617,-12.38109l6.39678,-9.81144l-0.79959,-3.03687l-3.06512,2.10244z" id="svg_253" stroke="#000000"/>
   <path fill="#51bce2" stroke-width="1.5" stroke-opacity="0" d="m410.26372,-278.80412l-20.65628,18.68846l-17.59114,14.24993l-5.86372,6.30736l0.26653,5.37292l7.19638,2.10245l8.26251,-4.4385l7.99597,-8.4098l7.99598,-10.74586l9.8617,-12.38109l6.39678,-9.81144l-0.79959,-3.03687l-3.06512,2.10244z" id="svg_254" stroke="#000000"/>
   <path fill="#51bce2" stroke-width="1.5" stroke-opacity="0" d="m759.8051,-150.36369l-20.65628,18.68846l-17.59114,14.24993l-5.86372,6.30736l0.26653,5.37292l7.19638,2.10245l8.26251,-4.4385l7.99597,-8.4098l7.99598,-10.74586l9.8617,-12.38109l6.39678,-9.81144l-0.79959,-3.03687l-3.06512,2.10244z" id="svg_255" stroke="#000000"/>
   <path fill="#51bce2" stroke-width="1.5" stroke-opacity="0" d="m974.48405,-132.01506l-20.65628,18.68846l-17.59114,14.24993l-5.86372,6.30736l0.26653,5.37292l7.19638,2.10245l8.26251,-4.4385l7.99597,-8.4098l7.99598,-10.74586l9.8617,-12.38109l6.39678,-9.81144l-0.79959,-3.03687l-3.06512,2.10244z" id="svg_256" stroke="#000000"/>
   <path fill="#51bce2" stroke-width="1.5" stroke-opacity="0" d="m515.76833,-1072.38229l-20.65628,18.68846l-17.59114,14.24993l-5.86372,6.30736l0.26653,5.37292l7.19638,2.10245l8.26251,-4.4385l7.99597,-8.4098l7.99598,-10.74586l9.8617,-12.38109l6.39678,-9.81144l-0.79959,-3.03687l-3.06512,2.10244z" id="svg_257" stroke="#000000"/>
   <path fill="#51bce2" stroke-width="1.5" stroke-opacity="0" d="m360.72243,8.35195l-20.65628,18.68846l-17.59114,14.24993l-5.86372,6.30736l0.26653,5.37292l7.19638,2.10245l8.26251,-4.4385l7.99597,-8.4098l7.99598,-10.74586l9.8617,-12.38109l6.39678,-9.81144l-0.79959,-3.03687l-3.06512,2.10244z" id="svg_258" stroke="#000000"/>
   <path fill="#51bce2" stroke-width="1.5" stroke-opacity="0" d="m1294.66762,-893.48316l-20.65628,18.68846l-17.59114,14.24993l-5.86372,6.30736l0.26653,5.37292l7.19638,2.10245l8.26251,-4.4385l7.99597,-8.4098l7.99598,-10.74586l9.8617,-12.38109l6.39678,-9.81144l-0.79959,-3.03687l-3.06512,2.10244z" id="svg_259" stroke="#000000"/>
   <path fill="#51bce2" stroke-width="1.5" stroke-opacity="0" d="m1079.2308,-1156.13449l-20.65628,18.68846l-17.59114,14.24993l-5.86372,6.30736l0.26653,5.37292l7.19638,2.10245l8.26251,-4.4385l7.99597,-8.4098l7.99598,-10.74586l9.8617,-12.38109l6.39678,-9.81144l-0.79959,-3.03687l-3.06512,2.10244z" id="svg_260" stroke="#000000"/>
   <path fill="#51bce2" stroke-width="1.5" stroke-opacity="0" d="m1500.97005,-1132.94607l-20.65628,18.68846l-17.59114,14.24993l-5.86372,6.30736l0.26653,5.37292l7.19638,2.10245l8.26251,-4.4385l7.99597,-8.4098l7.99598,-10.74586l9.8617,-12.38109l6.39678,-9.81144l-0.79959,-3.03687l-3.06512,2.10244z" id="svg_261" stroke="#000000"/>
   <path fill="#51bce2" stroke-width="1.5" stroke-opacity="0" d="m1435.75265,-906.85905l-20.65628,18.68846l-17.59114,14.24993l-5.86372,6.30736l0.26653,5.37292l7.19638,2.10245l8.26251,-4.4385l7.99597,-8.4098l7.99598,-10.74586l9.8617,-12.38109l6.39678,-9.81144l-0.79959,-3.03687l-3.06512,2.10244z" id="svg_262" stroke="#000000"/>
   <path fill="#51bce2" stroke-width="1.5" stroke-opacity="0" d="m1385.02797,-596.71403l-20.65628,18.68846l-17.59114,14.24993l-5.86372,6.30736l0.26653,5.37292l7.19638,2.10245l8.26251,-4.4385l7.99597,-8.4098l7.99598,-10.74586l9.8617,-12.38109l6.39678,-9.81144l-0.79959,-3.03687l-3.06512,2.10244z" id="svg_263" stroke="#000000"/>
   <path fill="#51bce2" stroke-width="1.5" stroke-opacity="0" d="m782.12926,-1280.7722l-20.65628,18.68846l-17.59114,14.24993l-5.86372,6.30736l0.26653,5.37292l7.19638,2.10245l8.26251,-4.4385l7.99597,-8.4098l7.99598,-10.74586l9.8617,-12.38109l6.39678,-9.81144l-0.79959,-3.03687l-3.06512,2.10244z" id="svg_264" stroke="#000000"/>
   <path fill="#51bce2" stroke-width="1.5" stroke-opacity="0" d="m748.79592,-911.20687l-20.65627,18.68845l-17.59115,14.24994l-5.86372,6.30735l0.26653,5.37293l7.19638,2.10245l8.26251,-4.43851l7.99598,-8.4098l7.99598,-10.74586l9.8617,-12.3811l6.39678,-9.81143l-0.7996,-3.03687l-3.06512,2.10244l0,0.00001z" id="svg_265" stroke="#000000"/>
  </g>
</g>








 <g stroke="null">
  <title>Layer 1</title>
  <path fill="#b28a65" stroke="#000" stroke-width="1.5" d="m480.23239,826.35255c0,0 -7.7519,10.85266 -8.14167,10.85266c0.38977,0 4.26572,21.70532 3.87595,21.70532c0.38977,0 -5.81175,13.17823 -6.20152,13.17823c0.38977,0 -7.36213,10.07747 -7.7519,10.07747c0.38977,0 -12.01327,13.17823 -12.40304,13.17823c0.38977,0 -25.1915,6.20152 -25.58127,6.20152c0.38977,0 -25.1915,0 -25.58127,0c0.38977,0 -17.4396,-7.7519 -17.82937,-7.7519c0.38977,0 -14.33884,-13.17823 -14.72861,-13.17823c0.38977,0 -11.23808,-18.60456 -11.62785,-18.60456c0.38977,0 -5.81175,-21.70532 -6.20152,-21.70532c0.38977,0 -5.03656,-21.70532 -5.42633,-21.70532c0.38977,0 -2.71099,-28.68203 -3.10076,-28.68203c0.38977,0 1.94015,-22.48051 1.94015,-23.2557c0,-0.77519 5.42633,-32.55798 5.03656,-32.55798c0.38977,0 5.04091,-27.90684 4.65114,-27.90684c0.38977,0 7.36648,-21.70532 6.97671,-21.70532c0.38977,0 1.16496,-21.70532 0.77519,-21.70532c0.38977,0 -6.58694,-29.45722 -6.97671,-29.45722c0.38977,0 3.49053,-10.85266 3.49053,-10.85266c0,0 5.42633,-33.33317 5.03656,-33.33317c0.38977,0 2.71534,-27.90684 3.49053,-27.90684c0.77519,0 12.40304,-7.7519 12.01327,-7.7519c0.38977,0 22.09509,19.37975 21.70532,19.37975c0.38977,0 18.21914,24.80608 17.82937,24.80608c0.38977,0 15.11838,6.20152 14.72861,6.20152c0.38977,0 -19.76517,37.20912 -20.15494,37.20912c0.38977,0 1.94015,30.23241 1.94015,29.45722c0,-0.77519 12.40304,23.2557 12.01327,23.2557c0.38977,0 29.0718,20.93013 28.68203,20.93013c0.38977,0 18.99433,-2.32557 18.60456,-2.32557c0.38977,0 18.99433,-19.37975 18.60456,-19.37975c0.38977,0 1.94015,-17.82937 1.55038,-17.82937c0.38977,0 14.34319,10.85266 13.95342,10.85266c0.38977,0 10.46724,18.60456 10.07747,18.60456c0.38977,0 7.36648,13.17823 6.97671,13.17823c0.38977,0 -17.4396,8.52709 -17.82937,8.52709c0.38977,0 -10.46289,17.82937 -10.85266,17.82937c0.38977,0 -1.9358,20.93013 -2.32557,20.93013c0.38977,0 -3.48618,27.90684 -3.87595,27.90684c0.38977,0 -9.6877,14.72861 -10.07747,14.72861c0.38977,0 2.71534,18.60456 2.71534,18.60456z" id="svg_8"/>
  <path fill="#b28a65" stroke="#000" stroke-width="0" stroke-opacity="null" d="m479.83425,824.86151c0,0 3.31492,22.09944 3.03846,22.09943c0.27646,0.00001 -10.77326,18.78453 -11.04972,18.78452c0.27646,0.00001 -6.90586,-42.54141 -7.18232,-42.54142c0.27646,0.00001 15.19358,1.65747 15.19358,1.65747z" id="svg_58"/>
  <path id="svg_3" d="m425.00003,1042.49955c-7.5,14.99999 -13.125,20.62499 -13.1252,20.62498c0.0002,0.00001 -6.8748,8.75001 -6.8748,8.75001c0,0 -9.99999,9.99999 -9.99999,9.99999c0,0 -2.5,10 -1.25,10c1.25,0 11.24999,0.625 11.24979,0.62499c0.0002,0.00001 -0.6248,4.37501 -0.625,4.375c0.0002,0.00001 10.6252,-1.24999 10.62499,-1.25c0.00021,0.00001 0.00021,6.875 0,6.875c0.00021,0 11.8752,-0.625 11.875,-0.625c0.0002,0 1.2502,5 1.25,4.99999c0.0002,0.00001 6.8752,-3.74999 6.875,-3.75c0.0002,0.00001 9.3752,-4.99998 9.37499,-4.99999c0.00021,0.00001 5.6252,-11.87499 5.625,-11.875c0.0002,0.00001 0.6252,-8.12499 0.625,-8.12499c0.0002,0 -0.6248,-16.87499 -0.625,-16.875l-24.99978,-18.74998z" stroke-width="1.5" stroke="#000" fill="#b28a65"/>
  <path fill="#14277a" stroke="#000" stroke-width="1.5" stroke-opacity="null" d="m481.4516,825.80618c0,0 -0.80645,31.4516 -0.80659,30.64516c0.00014,0.80644 -3.22566,13.70966 -3.22581,12.90322c0.00015,0.80644 9.67756,23.38708 9.67742,22.58063c0.00014,0.80645 0.80659,29.03225 0.80645,28.2258c0.00014,0.80645 -5.64502,20.16128 -5.64516,19.35483c0.00014,0.80645 -2.41921,16.12903 -2.41936,15.32258c0.00015,0.80645 0.8066,16.93547 0.80646,16.12903c0.00014,0.80644 4.83885,26.61289 4.8387,25.80644c0.00015,0.80645 -1.61275,16.93547 -1.6129,16.12903c0.00015,0.80644 -6.45146,26.61289 -6.45161,25.80644c0.00015,0.80645 -12.09662,19.35483 -12.09677,18.54838c0.00015,0.80645 -16.12888,18.54838 -16.12903,17.74193c0.00015,0.80645 -15.32243,7.25806 -15.32257,6.45161c0.00014,0.80645 -20.96759,-6.45161 -20.96774,-7.25806c0.00015,0.80645 -14.51598,-13.70968 -14.51612,-14.51612c0.00014,0.80644 -5.64502,-20.96774 -5.64516,-21.77419c0.00014,0.80645 0.8066,-15.32258 0.80645,-16.12903c0.00015,0.80645 -1.61276,-17.74193 -1.6129,-18.54838c0.00014,0.80645 -4.03211,-15.32258 -4.03226,-16.12903c0.00015,0.80645 -16.93533,-1.6129 -16.93548,-2.41935c0.00015,0.80645 -5.64501,0.80645 -6.45146,0.80645c-0.80645,0 -13.70968,3.2258 -13.70982,2.41936c0.00014,0.80644 -26.61275,-7.25807 -26.6129,-8.06452c0.00015,0.80645 -4.83856,-12.09677 -4.8387,-12.90322c0.00014,0.80645 -12.09663,-18.54838 -12.09678,-19.35483c0.00015,0.80645 -2.4192,-20.96774 -2.41935,-21.77419c0.00015,0.80645 -1.61276,-22.58064 -1.6129,-23.38709c0.00014,0.80645 -3.22566,-26.6129 -3.22581,-27.41934c0.00015,0.80644 3.22595,-28.2258 3.22581,-29.03225c0.00014,0.80645 5.6453,-21.77419 5.64516,-22.58064c0.00014,0.80645 5.6453,-17.74193 5.64516,-18.54838c0.00014,0.80645 5.6453,-23.38709 4.83885,-23.38709c-0.80645,0 10.48387,-12.09677 10.48372,-12.90322c0.00015,0.80645 11.29047,-12.90323 11.29032,-13.70967c0.00015,0.80644 0.00015,27.41934 0,26.61289c0.00015,0.80645 3.22595,26.61289 3.22581,25.80644c0.00014,0.80645 4.0324,24.19354 4.03225,23.38709c0.00015,0.80645 7.25821,16.93548 7.25807,16.12903c0.00014,0.80645 5.6453,16.93547 5.64516,16.12903c0.00014,0.80644 14.51627,19.35483 14.51612,18.54838c0.00015,0.80645 13.70982,10.48386 13.70967,9.67741c0.00015,0.80645 24.19369,8.06451 24.19354,7.25807c0.00015,0.80644 26.61304,-1.61291 26.6129,-2.41936c0.00014,0.80645 16.93562,-13.70967 16.93548,-14.51612c0.00014,0.80645 10.48401,-13.70968 10.48386,-14.51613c0.00015,0.80645 7.25821,-12.09677 7.25807,-12.90322c0.00014,0.80645 6.45175,-28.2258 6.45175,-28.2258z" id="svg_7"/>
  <path fill="#84766b" stroke="#000" stroke-width="0.5" stroke-opacity="null" d="m500.96475,692.35035c0,0 -6.32184,14.94253 -6.89646,14.36785c0.57462,0.57468 4.0229,14.36778 3.44828,13.79311c0.57462,0.57467 -13.21848,17.24134 -13.79311,16.66667c0.57463,0.57467 -7.47135,17.24134 -8.04598,16.66667c0.57463,0.57467 -8.62078,12.06893 -9.1954,11.49425c0.57462,0.57468 8.6206,4.59767 8.04598,4.02299c0.57462,0.57468 28.16083,-2.29889 28.16083,-2.29889c0,0 14.94253,-22.41379 14.36791,-22.98847c0.57462,0.57468 24.13785,3.44824 23.56322,2.87356c0.57463,0.57468 -18.39089,-33.33337 -18.96552,-33.90805c0.57463,0.57468 -20.68975,-20.68969 -20.68975,-20.68969z" id="svg_16"/>
  <path fill="#99887b" stroke="#000" stroke-width="0.5" stroke-opacity="null" d="m586.78162,848.27597c0,0 17.24138,-16.66667 16.66676,-17.24134c0.57462,0.57467 3.44819,-29.8851 2.87356,-30.45978c0.57462,0.57468 -8.04607,-10.91958 -8.62069,-11.49425c0.57462,0.57468 -15.51733,-8.04602 -16.09196,-8.62069c0.57462,0.57468 -15.51733,-14.94257 -16.09196,-15.51724c0.57462,0.57468 -17.24147,-21.26441 -17.8161,-21.83908c0.57462,0.57468 -7.47135,-17.81613 -8.04598,-18.39081c0.57462,0.57468 -10.34492,-6.32188 -10.91954,-6.89655c0.57462,0.57468 -20.11503,4.02295 -20.68966,3.44828c0.57462,0.57468 -8.62078,18.96548 -9.1954,18.39081c0.57462,0.57468 -4.02308,18.96548 -4.5977,18.39081c0.57463,0.57468 -8.04607,27.01146 -8.04607,27.01146c0,0 20.11495,13.21839 19.54032,12.64372c0.57462,0.57468 22.41371,2.87353 21.83908,2.29885c0.57462,0.57468 17.81601,16.09192 17.81601,16.09192c0,0 13.21839,10.91954 12.64377,10.34487c0.57462,0.57467 14.36773,13.21835 13.79311,12.64368c0.57462,0.57467 14.94244,9.19537 14.94244,9.19537l0.00001,-0.00003z" id="svg_17"/>
  <path fill="#bfac9e" stroke="#000" stroke-width="0.5" stroke-opacity="null" d="m699.42532,829.88516l1.14951,21.83913l-10.34483,17.24138l-6.89655,9.1954l-17.81609,-0.57471l-24.71265,-5.17242l-24.71265,-5.74712l-17.81609,-9.19541l-13.79311,-4.02299l-13.21839,-14.94253c0.57462,0.57468 22.98842,-16.09199 22.98842,-16.09199c0,0 0,-16.09196 -0.57463,-16.66663c0.57463,0.57467 0.57463,-10.91958 0,-11.49426c0.57463,0.57468 9.19532,-4.59774 8.6207,-5.17241c0.57462,0.57467 25.28727,3.44824 24.71264,2.87356c0.57463,0.57468 34.48268,20.11491 33.90805,19.54023c0.57463,0.57468 13.79302,12.06893 13.2184,11.49426l25.28727,6.89651z" id="svg_18"/>
  <path fill="#baa698" stroke="#000" stroke-width="0.5" stroke-opacity="null" d="m756.85571,788.29383l-4.68224,-2.34112l-8.02675,6.68896l-11.03679,7.35786l-10.36788,3.67892l-8.69565,9.69899l-11.70568,9.0301l-5.35117,9.36454l0.33445,12.70902l-1.67224,10.03344l-9.03009,14.38127l-3.67893,11.37123l9.36454,5.35116l13.37792,13.04347l8.3612,5.35117l13.71237,7.35786l14.38126,10.70233l14.04681,6.68896c0.33443,0.33443 7.69228,-6.02008 7.35783,-6.35453c-0.33445,-0.33445 -1.67224,-7.6923 -2.00666,-8.02673c0.33442,0.33443 -14.04684,-6.68898 -14.38126,-7.02341c0.33442,0.33443 -8.69567,-6.68898 -9.0301,-7.02341c0.33443,0.33443 2.34111,-4.01339 2.00669,-4.34782c0.33442,0.33443 15.38458,11.37121 15.05016,11.03678c0.33442,0.33443 12.709,7.02339 12.37457,6.68896c0.33443,0.33443 10.03342,1.00333 9.69899,0.6689c0.33443,0.33443 4.3478,-8.36122 4.01338,-8.69565c0.33442,0.33443 -4.34785,-4.34784 -4.6823,-4.34784c-0.33444,0 -25.75249,-12.70902 -26.08691,-13.04345c0.33442,0.33443 1.33776,-4.68229 1.00334,-5.01672c0.33442,0.33443 8.69562,4.68225 8.3612,4.34782c0.33442,0.33443 22.74244,11.03677 22.40801,10.70234c0.33443,0.33443 9.69897,0.33443 9.36455,0c0.33442,0.33443 2.00666,-11.37125 1.67224,-11.70568c0.33442,0.33443 -10.03347,-6.02008 -10.36792,-6.02008c-0.33444,0 -13.04347,-7.02341 -13.37789,-7.35784c0.33442,0.33443 -13.71239,-1.33781 -14.04681,-1.67224c0.33442,0.33443 -0.33448,-6.35453 -0.66892,-6.68898c-0.33445,-0.33444 9.03009,0.33445 8.69567,0.00002c0.33442,0.33443 18.39461,4.01336 18.06019,3.67893c0.33442,0.33443 9.36452,-3.67895 9.03009,-4.01338c0.33443,0.33443 -1.00337,-6.68897 -1.33779,-7.02341c0.33442,0.33444 -7.69233,-7.35787 -8.02675,-7.6923c0.33442,0.33443 -14.04684,-3.34449 -14.71574,-3.67894c-0.66889,-0.33445 -19.73243,-8.02675 -20.06685,-8.36118c0.33442,0.33443 -8.69567,-7.02343 -9.03009,-7.35786c0.33442,0.33443 -5.01675,-4.68229 -5.35117,-5.01672c0.33442,0.33443 14.04679,-10.3679 13.71237,-10.70233c0.33442,0.33443 14.38123,-11.0368 14.04681,-11.37123c0.33442,0.33443 -1.00337,-8.69567 -1.33779,-9.0301l-1.67227,-6.02008z" id="svg_20"/>
  <path fill="#776b63" stroke="#000" stroke-width="0.5" stroke-opacity="null" d="m318.80386,478.63314l-23.07696,5.1282l-12.82053,11.11113l-7.26497,8.54702l19.65815,33.76073l18.37609,29.05986l21.36755,28.63252l17.09404,19.65815l4.70086,11.53848l9.40172,-2.56411l4.70086,-12.82053l11.11113,-10.68378l7.26497,-11.11112l9.40172,-2.56411l1.28205,-7.26497l-9.82907,-11.96582l-13.24788,-14.95729l-16.66669,-4.70086l-8.11967,-15.81199c0.00001,0.00002 -12.39317,-21.79488 -12.82052,-22.22223c-0.42735,-0.42735 -13.24788,-18.80345 -13.24789,-18.80346l-7.26496,-11.96582z" id="svg_23"/>
  <path fill="#99877b" stroke="#000" stroke-width="0.5" stroke-opacity="null" d="m257.26532,455.98354c0,-0.42735 9.40172,27.35047 9.40171,27.35045c0.00001,0.00002 5.55557,19.65816 5.55556,19.65815c0.00001,0.00001 7.69233,10.25644 7.69232,10.25642c0.00001,0.00002 5.98292,-5.9829 5.98291,-5.98291c0.00001,0.00001 8.97439,-12.39317 8.97437,-12.39318c0.00002,0.00001 17.52141,-8.11966 17.5214,-8.11967c0.00001,0.00001 8.11968,-2.56409 8.11967,-2.56411c0.00001,0.00002 -3.4188,-16.23932 -3.4188,-16.66667c0,-0.42735 -8.54702,-31.19663 -8.54703,-31.19664c0.00001,0.00001 -11.11112,-25.2137 -11.11113,-25.21371c0.00001,0.00001 -11.53847,-22.22224 -11.53848,-22.22225c0.00001,0.00001 -9.40171,-20.51284 -9.40172,-20.51285c0.00001,0.00001 -9.82906,-16.66668 -9.82906,-17.09403l-8.97438,-19.65816c0.00001,0.00001 -12.39317,-32.05131 -12.39318,-32.05132c0.00001,0.00001 -1.7094,-16.23933 -1.70941,-16.23934c0.00001,0.00001 -21.79489,8.11968 -21.7949,8.11967c0.00001,0.00001 -7.69231,18.80345 -7.69232,18.80344c0.00001,0.00001 6.41028,26.92313 6.41027,26.92311c0.00001,0.00002 11.53848,35.0428 11.53848,35.04279c0,0.00001 2.56411,19.65816 2.5641,19.65814c0.00001,0.00002 5.98293,23.93167 5.98292,23.93166c0.00001,0.00001 9.82908,19.23081 9.82907,19.23079l6.83763,20.94022z" id="svg_24"/>
  <path fill="#b7a59a" stroke="#000" stroke-width="0.5" stroke-opacity="null" d="m234.61571,186.7524l-2.99146,-2.99147l-6.41027,5.55557l0.8547,16.66669l0,15.81198l0,10.25643l-7.69232,-4.27351l-7.69231,-10.25643l-5.55557,-15.81198l-8.97437,-12.82053l-7.69232,-13.24789c0.00001,0.00001 -5.55555,-6.41026 -5.1282,-6.41026c0.42735,0 -6.83762,5.98292 -6.83762,5.98291c0,0.00001 3.41881,6.83763 3.4188,6.83762c0.00001,0.00001 6.83763,10.68378 6.83762,10.68377c0.00001,0.00001 5.98292,13.24789 5.98291,13.24789c0.00001,0 2.99147,9.40173 2.99146,9.40172c0.00001,0.00001 1.28206,8.11967 1.28205,8.11967c0.00001,0 -4.70085,4.70087 -4.70086,4.70086c0.00001,0.00001 -4.2735,-9.40172 -4.27351,-9.40172c0.00001,0 -1.28204,-10.25642 -1.28205,-10.25643c0.00001,0.00001 -7.69231,-11.96582 -7.69232,-11.96583c0.00001,0.00001 -4.2735,-7.69231 -4.27351,-7.69231c0.00001,0 -4.2735,-2.13675 -4.27351,-2.13676c0.00001,0.00001 -4.2735,2.56411 -4.27351,2.56411c0.00001,0 -1.28205,6.41027 -1.28205,6.41026c0,0.00001 6.83762,8.97438 6.83761,8.97437c0.00001,0.00001 5.12822,9.82908 5.12822,9.82908c0,0 4.27351,11.53848 4.27351,11.53847c0,0.00001 6.83762,9.82908 6.83761,9.82908c0.00001,0 2.13676,6.83762 1.70941,6.83762c-0.42735,0 -8.97437,-4.70086 -8.97437,-5.12821c0,-0.42735 -3.84616,-10.25643 -3.84616,-10.25643c0,0 -4.27351,-9.40172 -4.27351,-9.40173c0,0.00001 -4.27351,-5.9829 -4.27351,-5.98291c0,0.00001 -2.13675,6.41027 -2.13676,6.41026c0.00001,0.00001 -0.42734,8.11968 -0.42735,8.11967c0.00001,0.00001 2.99146,10.25644 2.99146,10.25643c0,0.00001 5.98292,8.54703 5.98291,8.54702c0.00001,0.00001 5.12822,6.41027 5.12821,6.41026c0.00001,0.00001 3.41882,6.83763 3.41881,6.83762c0.00001,0.00001 1.70941,6.83762 1.70941,6.83762c0,0 -6.41026,-8.54702 -6.41027,-8.54702c0.00001,0 -2.5641,-5.98291 -2.99145,-6.41026c-0.42735,-0.42735 -7.26497,-5.55556 -7.26497,-5.55557c0,0.00001 -0.42735,7.69232 -0.42735,7.69232c0,0 1.28205,9.40173 1.28205,9.40172c0,0.00001 5.98292,8.11968 5.98291,8.11967c0.00001,0.00001 6.41027,8.97438 6.41027,8.97437c0,0.00001 7.69232,6.41027 7.69232,6.41026c0,0.00001 4.27351,8.97438 4.27351,8.97437c0,0.00001 4.27351,8.11968 4.27351,8.11967c0,0.00001 7.69232,8.54703 7.69231,8.54702c0.00001,0.00001 7.26498,1.70942 7.26497,1.70941c0.00001,0.00001 7.69233,-2.13675 8.54703,-2.13675c0.8547,0 13.24788,-5.98291 13.24787,-5.98292c0.00001,0.00001 4.70087,-7.69231 4.70087,-8.11966c0,-0.42735 2.13676,-7.69232 2.13676,-8.54702c0,-0.8547 2.5641,-14.10258 2.56409,-14.10259c0.00001,0.00001 -2.13674,-17.94874 -2.13674,-18.37609c0,-0.42735 0.8547,-17.94874 0.8547,-18.37609c0,-0.42735 -3.84616,-19.2308 -3.84616,-19.65815c0,-0.42735 -2.99146,-21.36755 -2.99146,-21.36756l-1.28205,-9.40171z" id="svg_25"/>
  <path fill="#917054" stroke="#000" stroke-width="0.5" stroke-opacity="null" fill-opacity="null" d="m435.98326,827.19665l6.69456,1.67364l0,6.27615l-5.43933,2.09205l-4.60251,0.41841l-5.02092,-2.92887l1.67364,-3.76569l3.34728,-3.34728l3.34728,-0.41841z" id="svg_14"/>
  <path fill="#917054" stroke="#000" stroke-width="0.5" stroke-opacity="null" fill-opacity="null" d="m359.41423,738.91213l3.34728,2.51046l1.67364,3.76569l-1.25523,3.76569l-2.92887,1.25523l-4.1841,-2.09205l-0.41841,-3.76569l0,-4.60251l3.76569,-0.83682z" id="svg_15"/>
  <path fill="#aa8363" stroke-width="0.5" stroke-opacity="null" d="m423.2652,601.26092c0,0 12.59472,1.7234 12.27954,1.14894c0.31518,0.57446 -0.31455,16.65951 -0.62974,16.08505c0.31518,0.57446 6.61255,24.12757 6.29736,23.55311c0.31518,0.57446 16.68832,13.78718 16.37314,13.21272c0.31518,0.57446 31.17226,2.87232 30.85707,2.29786c0.31518,0.57446 11.65044,5.17019 11.33525,4.59573c0.31518,0.57446 -2.20376,12.06378 -2.51894,11.48932c0.31518,0.57446 -5.35244,21.25524 -5.66763,20.68078c0.31518,0.57446 -8.50112,22.97864 -8.81631,22.40418c0.31518,0.57446 -12.90927,13.78718 -13.22446,13.21272c0.31518,0.57446 -38.09872,-5.1702 -38.4139,-5.74466c0.31518,0.57446 -15.42822,-21.82972 -15.7434,-22.40418c0.31518,0.57446 -3.46323,-43.08497 -3.77842,-43.65943c0.31518,0.57446 9.13149,-35.61691 8.81631,-36.19137c0.31518,0.57446 2.83413,-20.68079 2.83413,-20.68079l0,0.00002z" id="svg_26" stroke="#000"/>
  <path fill="#c6ae9b" stroke="#000" stroke-width="0.5" stroke-opacity="null" d="m436.64749,588.35193l-3.69319,15.90909l-1.70454,17.04544l4.26136,17.89772l10.22727,11.64772l20.45453,8.23863l15.90908,-1.98864l11.64772,-1.98864l5.11363,-9.94318l5.96591,-12.2159l3.40909,-7.38636l5.68181,-10.22727l5.39772,-9.0909l0,-13.35227l3.40909,-8.52272l-0.85227,-7.95454l1.13636,-11.64772l-2.27273,-10.79545l-2.27273,-8.23863l-4.54545,-2.55682l-4.54545,-2.55682l-3.125,-5.11363l-6.81818,-4.82954l-8.52272,-1.42045l-9.65909,-2.27273l-10.51136,-1.98864l-5.68181,8.80681l-7.38636,11.93181l-6.81818,12.49999l-4.82954,9.0909l-7.38636,15.3409l-1.98863,5.6818l0.00002,0.00004z" id="svg_27"/>
  <path fill="#332d29" stroke="#000" stroke-width="0.5" stroke-opacity="null" d="m452.55657,589.4883c0,0 0.56818,10.22727 0.56817,9.94319c0.00001,0.28408 4.82955,7.95453 4.82954,7.67045c0.00001,0.28408 4.82955,10.79544 4.82954,10.51136c0.00001,0.28408 8.52273,9.94317 8.52272,9.65909c0.00001,0.28408 6.5341,0.56817 6.53409,0.28409c0.00001,0.28408 0.85228,-5.11364 0.85227,-5.39772c0.00001,0.28408 0.00001,-9.37501 0,-9.65909c0.00001,0.28408 -2.8409,-7.95455 -2.84091,-8.23863c0.00001,0.28408 -1.42044,-4.82955 -1.42045,-5.11363c0.00001,0.28408 -4.82953,-5.68183 -4.82954,-5.96591c0.00001,0.28408 -3.40908,-5.11364 -3.40909,-5.39772c0.00001,0.28408 -4.26135,-1.70456 -4.26136,-1.98864c0.00001,0.28408 -5.68181,0.28408 -5.68181,0c0.00001,0.28408 -3.69317,3.69317 -3.69317,3.69317l0,-0.00001z" id="svg_32"/>
  <path fill="#ad8f79" stroke="#000" stroke-width="0.5" stroke-opacity="null" d="m490.05222,573.82181c0,0 -2.6178,6.02094 -2.6178,5.75918c0,0.26176 -1.83246,11.25652 -1.83246,10.99476c0,0.26176 -3.66492,3.92668 -3.66492,3.66492c0,0.26176 -5.49738,-3.92672 -5.49738,-4.18848c0,0.26176 -2.09424,-3.40316 -2.09424,-3.66492c0,0.26176 -6.28272,-4.1885 -6.28272,-4.45026c0,0.26176 -2.35602,-3.92672 -2.35602,-4.18848c0,0.26176 3.9267,-5.75918 3.9267,-6.02094c0,0.26176 8.37696,-3.40316 8.37696,-3.66492c0,0.26176 7.8534,-0.00002 7.8534,-0.26178c0,0.26176 6.02094,1.83244 6.02094,1.57068c0,0.26176 -1.83246,4.45024 -1.83246,4.45024z" id="svg_34"/>
  <path fill="#4f4b48" stroke="#000" stroke-width="0.5" stroke-opacity="null" fill-opacity="null" d="m471.98939,579.05741l2.6178,-2.356l-2.09424,-2.6178l-2.6178,0.52356l-0.52356,3.14136l2.6178,1.30888z" id="svg_37"/>
  <path fill="#4f4b48" stroke="#000" stroke-width="0.5" stroke-opacity="null" d="m480.72698,584.52364c0,0 -1.83246,-2.87958 -1.83246,-3.14134c0,0.26176 -1.57068,4.18846 -1.57068,3.9267c0,0.26176 1.04712,4.71202 1.04712,4.45026c0,0.26176 3.66492,1.83244 3.66492,1.57068c0,0.26176 2.6178,-2.61782 2.6178,-2.87958c0,0.26176 -3.9267,-3.92672 -3.9267,-3.92672z" id="svg_35"/>
  <path fill="#a38f80" stroke="#000" stroke-width="0.5" stroke-opacity="null" d="m434.09067,583.80648c0,0 3.40909,3.97727 3.40908,3.69319c0.00001,0.28408 5.68182,-4.26137 5.68181,-4.54545c0.00001,0.28408 3.69319,-9.37501 3.69318,-9.65909c0.00001,0.28408 5.68182,-8.52273 5.68181,-8.80681c0.00001,0.28408 1.13637,-8.52273 1.13636,-8.80681c0.00001,0.28408 -0.85226,-2.55683 -1.13635,-2.55683c-0.28409,0 -3.97727,-1.70454 -3.97728,-1.98862c0.00001,0.28408 -4.82953,1.70453 -4.82954,1.42045c0.00001,0.28408 -4.54544,7.67044 -4.54545,7.38636c0.00001,0.28408 -3.40908,9.94316 -3.40909,9.65909c0.00001,0.28408 -1.42044,5.96589 -1.42044,6.24999c0,0.28409 -0.28409,7.95454 -0.28409,7.95454l0,-0.00001z" id="svg_29"/>
  <path fill="#a38f80" stroke="#000" stroke-width="0.5" stroke-opacity="null" d="m508.52245,624.99964l-5.96591,6.25001l-4.54546,11.07954l-5.68181,9.0909l1.70454,7.95454c0.00001,0.28408 5.39774,-0.00001 5.68183,-0.00001c0.28409,0 8.80681,-5.68181 9.0909,-6.25c0.28409,-0.56818 4.82955,-13.63635 4.82954,-13.92043c0.00001,0.28408 -0.56817,-7.10228 -0.56819,-7.38636c0.00002,0.28408 -0.56817,-5.39774 -1.42044,-5.68183l-3.125,-1.13636z" id="svg_30"/>
  <path fill="#bfb8b3" stroke="#000" stroke-width="0.5" stroke-opacity="null" d="m456.54437,595.28777l-1.3089,-4.71202l6.28272,-1.3089l4.71204,4.71204l2.35602,5.49738l2.87958,4.97382l2.35602,4.71204l1.57068,4.18848l1.57068,5.2356l-0.78534,4.71204l-3.40314,1.3089l-1.04712,-4.45026l-0.26178,-6.28272l-1.3089,-3.9267c0,0.26176 -3.14136,-3.66494 -3.14136,-3.92672c0,-0.26178 -3.40314,-4.71204 -3.40314,-4.9738c0,0.26176 -2.87958,-3.40316 -2.87958,-3.66492c0,0.26176 -3.40314,2.356 -3.40314,2.09424l-0.78534,-4.1885z" id="svg_33"/>
  <path fill="#70655d" stroke="#000" stroke-width="0" stroke-opacity="null" d="m459.62705,574.76468c0,0 -5.75916,3.9267 -5.75916,3.66494c0,0.26176 -5.2356,3.92668 -5.2356,3.66492c0,0.26176 -3.9267,5.49736 -3.9267,5.2356c0,0.26176 -3.14136,9.16228 -3.14136,8.90052c0,0.26176 -0.52356,4.9738 -0.52356,4.71204c0,0.26176 2.35602,-3.40316 2.35602,-3.66492c0,0.26176 2.09424,-5.23562 2.09424,-5.49738c0,0.26176 4.45026,-6.02096 4.45026,-6.28272c0,0.26176 6.28272,-2.8796 6.28272,-3.14136c0,0.26176 3.40314,-7.59164 3.40314,-7.59164z" id="svg_42"/>
  <path fill="#6b5449" stroke="#000" stroke-width="0.5" stroke-opacity="null" d="m485.0784,558.63856c0,0 -5.75916,-7.59162 -5.75916,-7.85338c0,0.26176 -7.32984,-2.61782 -7.32984,-2.87958c0,0.26176 -3.14136,1.57066 -3.14136,1.3089c0,0.26176 4.71204,4.71202 4.71204,4.45026c0,0.26176 4.18848,4.71202 4.18848,4.45026c0,0.26176 4.97382,1.83244 4.97382,1.57068c0,0.26176 2.35602,-1.04714 2.35602,-1.04714z" id="svg_38"/>
  <path fill="#6b5449" stroke="#000" stroke-width="0.5" stroke-opacity="null" fill-opacity="null" d="m495.20974,573.79119l9.68586,6.54452l2.87958,6.28272l1.04712,4.45026l-6.5445,-2.87958c0,0.26176 -1.04712,-3.40316 -1.3089,-3.40316c-0.26178,0 -4.45026,-5.2356 -4.45026,-5.49736c0,0.26176 -1.83246,-2.8796 -2.09424,-2.8796l0.78534,-2.6178z" id="svg_40"/>
  <path fill="#1c1a19" stroke-width="0.5" stroke-opacity="null" d="m451.43634,546.14895l-5.68904,4.72014l4.91327,4.19566l3.10311,2.36006l2.58593,-5.24457l0,-4.98234c0,0.26221 7.2406,-0.52448 7.2406,-0.26225c0,0.26223 1.55156,-3.93343 1.55156,-4.19564c0,0.26221 7.4992,-1.04893 7.49919,-1.31114c0.00001,0.26221 0.00001,-5.50682 0,-5.76903c0.00001,0.26221 2.32735,-3.93345 2.32734,-4.19566c0.00001,0.26221 2.58594,8.91575 2.58593,8.65354c0.00001,0.26221 3.36172,-2.09785 3.36172,-2.36006c0,0.26221 5.17186,-3.93345 5.17186,-4.19566c0,0.26221 1.03437,7.34238 1.03437,7.08017c0,0.26221 6.20623,-2.88453 6.20623,-3.14674c0,0.26221 2.06874,5.24455 2.06874,4.98234c0,0.26221 6.72342,-0.78671 6.72342,-1.04891c0,0.26221 2.32734,6.5557 2.32734,6.29349c0,0.26221 7.75779,2.88449 7.75779,2.62229c0,0.26221 1.55156,4.19564 1.55156,4.45787c0,0.26223 2.06874,12.32475 2.06874,12.06255c0,0.2622 6.46482,-1.83563 6.46482,-2.09784c0,0.26221 -1.81015,6.03125 -1.81015,5.76904c0,0.26221 -4.13749,7.86684 -4.13749,7.60463c0,0.26221 5.94764,4.7201 5.94764,4.45789c0,0.26221 -2.84452,6.81792 -2.84452,6.55572c0,0.26221 -4.39608,8.65352 -4.39608,8.39132c0,0.26221 0,8.65352 0,8.39132c0,0.26221 -5.68904,4.7201 -5.68904,4.45789c0,0.26221 -0.77578,6.5557 -0.77578,6.29349c0,0.26221 -1.81015,8.91575 -1.81015,8.65354c0,0.26221 2.06874,3.93341 2.06874,3.6712c0,0.26221 3.6203,7.86684 3.6203,7.60463c0,0.26221 5.17186,-2.62231 5.17186,-2.88451c0,0.26221 0.25859,-7.86688 0.25859,-8.12909c0,0.26221 7.2406,-2.88453 7.2406,-3.14674c0,0.26221 4.91327,-4.45791 4.91327,-4.72012c0,0.26221 1.55156,-7.60465 1.55156,-7.86686c0,0.26221 -4.65467,-6.55574 -4.91327,-6.81796c-0.25859,-0.26223 4.39608,-4.19566 4.39608,-4.45787c0,0.26221 5.43045,-3.14676 5.43045,-3.40897c0,0.26221 -0.51719,-9.17802 -0.51719,-9.44025c0,-0.26223 -3.10311,-6.03126 -3.10311,-6.29349c0,-0.26223 5.68904,-5.24457 5.68904,-5.50678c0,0.26221 -6.72342,-9.44026 -6.72342,-9.70247c0,0.26221 1.55156,-4.98236 1.55156,-5.24457c0,0.26221 -7.75779,-11.53808 -7.75779,-11.80029c0,0.26221 1.55156,-5.50682 1.55156,-5.76903c0,0.26221 -1.55156,-10.48917 -1.55156,-10.75137c0,0.26221 -2.84452,-9.70248 -2.84452,-9.96469c0,0.26221 -5.68904,-1.57339 -5.68904,-1.8356c0,0.26221 -0.51719,-8.65356 -0.51719,-8.91577c0,0.26221 -14.99839,-4.19568 -14.99839,-4.45789c0,0.26221 -5.94764,-2.36008 -5.94764,-2.62229c0,0.26221 -8.79216,4.98232 -8.79216,4.72012c0,0.26221 -12.67105,-1.31116 -12.67106,-1.57337c0.00001,0.26221 -6.20623,6.5557 -6.20623,6.29349c0,0.26221 -10.60231,11.01358 -10.60231,10.75137c0,0.26221 -3.10311,12.32473 -3.10311,12.06252l-2.84452,11.01358l-0.00001,-0.00004z" id="svg_41" stroke="#000"/>
  <path fill="#917054" stroke="#000" stroke-width="1.5" stroke-opacity="null" fill-opacity="null" id="svg_12"/>
  <path fill="#14277a" stroke="#000" stroke-width="0.5" stroke-opacity="null" d="m466.76647,894.61078l-12.27545,23.35329l3.59281,26.34731l11.37725,-10.77844l3.59281,-25.1497l-6.28742,-13.77245l0,-0.00001z" id="svg_44"/>
  <path fill="#14277a" stroke="#000" stroke-width="0.5" stroke-opacity="null" fill-opacity="null" d="m436.82635,973.65269l-11.67665,23.95209l2.39521,15.56886l6.58683,-17.36527l2.69461,-22.15569l0,0.00001z" id="svg_45"/>
  <path fill="#14277a" stroke="#000" stroke-width="0.5" stroke-opacity="null" fill-opacity="null" d="m332.03593,832.33533l11.07784,22.75449l-17.36527,-7.78443l6.28743,-14.97006z" id="svg_46"/>
  <path fill="#1c1a1a" stroke="#000" stroke-width="0" stroke-opacity="null" d="m509.38063,512.35545c0.22883,0 11.89928,3.66132 11.89927,3.66131c0.00001,0.00001 11.67045,6.63614 11.67045,6.86498c0,0.22883 -1.60183,12.81461 -1.60183,12.8146c0.00001,0.00001 1.14417,12.35695 1.14416,12.35694c0.00001,0.00001 6.17848,11.44162 6.17847,11.44161c0.00001,0.00001 -0.45766,9.61096 -0.45766,9.61096c0.00001,0.00001 -5.49197,10.98396 -5.49197,10.98395c0.00001,0.00001 2.746,9.38213 2.74599,9.38212c0.00001,0.00001 -1.37299,10.52629 -1.37299,10.52628c0.00001,0.00001 0.45767,5.72082 0.45766,5.72081c0.00001,0.00001 -6.17846,4.57665 -6.17847,4.57665c0.00001,0.00001 -6.86496,0.00001 -6.86497,0c0.00001,0.00001 -11.89927,-8.23795 -11.89928,-8.23796c0.00001,0.00001 6.17848,-8.46678 6.17847,-8.46679c0.00001,0.00001 9.61096,-2.74598 9.61096,-2.74599c0.00001,0.00001 1.373,-7.09379 1.37299,-7.0938c0.00001,0.00001 -1.60182,-7.55146 -1.83065,-8.00912c-0.22883,-0.45766 -8.69563,-0.22883 -8.69563,-0.22884c0.00001,0.00001 4.80549,-10.29744 4.80549,-10.75511c0,-0.45766 -0.22883,-9.61096 -0.22884,-9.61096c0.00001,0.00001 -4.80547,-6.86496 -4.80548,-6.86497c0.00001,0.00001 -4.34781,-13.95876 -4.34781,-13.95877c0.00001,0.00001 -17.16241,6.63614 -17.16242,6.63614c0.00001,0.00001 1.373,13.50111 1.37299,13.5011c0.00001,0.00001 -10.75511,-14.64526 -10.75512,-14.64527c0.00001,0.00001 -3.66131,-9.61095 -3.66132,-9.61096c0.00001,0.00001 -14.87409,16.70476 -14.8741,16.70476c0.00001,0.00001 -3.89014,-8.92445 -3.89015,-8.92446c0.00001,0.00001 -6.86496,4.34782 -6.86497,4.34781c0.00001,0.00001 -0.22883,14.41644 -0.22883,14.41643c0.00001,0.00001 -9.61095,-5.94963 -9.61096,-5.94964c0.00001,0.00001 0.45767,-11.4416 0.45766,-11.44161c0.00001,0.00001 5.26315,-14.18759 5.26314,-14.1876c0.00001,0.00001 14.41644,0.00001 14.41644,0.22884c0,0.22883 8.00913,-8.00913 8.00912,-8.00914c0.00001,0.00001 12.12812,0.22884 12.12811,0.22883c0.00001,0.00001 11.89929,-6.86496 12.12812,-6.86496c0.22883,0 12.81461,1.83066 12.8146,1.83065c0.00001,0.00001 -2.05948,-0.22882 -1.83065,-0.22882l0.00001,0z" id="svg_47"/>
  <path fill="#a08478" stroke-width="0" stroke-opacity="null" d="m441.73556,612.49421l5.3437,8.99869l13.09205,13.77926l6.9468,3.0933l3.74059,-2.8121l-6.9468,-1.40605l-6.67962,-5.06176c0.26718,0.00002 -5.3437,-8.15505 -5.61089,-8.43627c-0.26718,-0.2812 -6.14525,-8.43627 -6.41242,-8.43629c0.26717,0.00002 -4.27496,-5.62417 -4.54214,-5.62419l1.06873,5.90541z" id="svg_48" transform="rotate(0.7948822975158691 455.76275634765983,622.4771728515627) " stroke="#000"/>
  <path fill="#b28a65" stroke="#000" stroke-width="0" stroke-opacity="null" fill-opacity="null" d="m422.43575,603.84596c0,0 -8.01282,80.44869 -8.33332,80.12818c0.3205,0.32051 8.33332,-80.12818 8.33332,-80.12818z" id="svg_50"/>
  <path fill="#b28a65" stroke-width="0.5" stroke-opacity="null" fill-opacity="null" d="m421.94258,603.43381c0,0 7.90432,2.47373 7.43937,1.97898c0.46495,0.49475 -3.71969,29.68458 -4.18464,29.18985c0.46495,0.49473 -16.2736,54.42173 -16.73854,53.927c0.46495,0.49473 -19.06335,8.90537 -19.5283,8.41064c0.46495,0.49473 13.01887,-19.78974 12.55391,-20.28447c0.46496,0.49473 3.71968,-35.12678 3.25472,-35.62151l17.20349,-37.60049l-0.00001,0z" id="svg_51" stroke="#000"/>
  <path fill="#b2907c" stroke="#000" stroke-width="0" d="m366.6651,787.49666l5.55553,-0.46298l12.96291,11.11106l3.24073,6.01849l-9.25922,2.31481l-10.18514,-4.16665l-8.79626,-9.72218l6.48145,-5.09255z" id="svg_52"/>
  <path fill="#b2907c" stroke="#000" stroke-width="0" stroke-opacity="null" d="m400.92421,805.55214l-6.94441,-2.31483l-7.40738,2.77777l9.25922,8.3333l10.6481,4.62961l8.3333,-1.38888l-2.77777,-6.48145l-11.11106,-5.55551l0,-0.00001z" id="svg_53"/>
  <path fill="#b2907c" stroke="#000" stroke-width="0" stroke-opacity="null" d="m360.64661,799.99661l5.55553,-0.46298l12.96291,11.11106l3.24073,6.01849l-9.25922,2.31481l-10.18514,-4.16665l-8.79626,-9.72218l6.48145,-5.09255z" id="svg_54"/>
  <path fill="#b2907c" stroke-width="0" stroke-opacity="null" d="m396.82018,817.18819l-8.82295,-2.57834l-9.41115,3.09398l11.76394,9.28193l13.52854,5.15663l10.58753,-1.54699l-3.52917,-7.21928l-14.11673,-6.18793l-0.00001,0z" id="svg_55" stroke="#000"/>
  <path fill="#b2907c" stroke-width="0" d="m355.37298,816.32357l5.55553,-0.35526l12.96291,8.52601l3.24073,4.61825l-9.25922,1.77626l-10.18514,-3.19725l-8.79626,-7.46026l6.48145,-3.90774l0,-0.00001z" id="svg_56" stroke="#494949"/>
  <path fill="#b2907c" stroke-width="0" d="m390.54341,828.5882l-8.01896,-2.55439l-8.55356,3.06525l10.69194,9.19573l12.29575,5.10874l9.62274,-1.53261l-3.20757,-7.15223l-12.83034,-6.13047l0,-0.00002z" id="svg_57" stroke="#686868"/>
  <path id="svg_2" d="m287.50008,1021.87456c-7.5,14.99999 -13.125,20.62499 -13.1252,20.62498c0.0002,0.00001 -6.8748,8.75001 -6.8748,8.75001c0,0 -9.99999,9.99999 -9.99999,9.99999c0,0 -2.5,10 -1.25,10c1.25,0 11.24999,0.625 11.24979,0.62499c0.0002,0.00001 -0.6248,4.37501 -0.625,4.375c0.0002,0.00001 10.6252,-1.24999 10.62499,-1.25c0.00021,0.00001 0.00021,6.875 0,6.875c0.00021,0 11.8752,-0.625 11.875,-0.625c0.0002,0 1.2502,5 1.25,4.99999c0.0002,0.00001 6.8752,-3.74999 6.875,-3.75c0.0002,0.00001 9.3752,-4.99998 9.37499,-4.99999c0.00021,0.00001 5.6252,-11.87499 5.625,-11.875c0.0002,0.00001 0.6252,-8.12499 0.625,-8.12499c0.0002,0 -0.6248,-16.87499 -0.625,-16.875l-24.99978,-18.74998z" stroke-width="1.5" stroke="#000" fill="#b28a65"/>
  <path fill="#14277a" stroke="#000" d="m302.77782,904.99982l3.88879,42.22222l12.77777,19.44445l3.88889,12.77777l18.88889,6.11111l-5.55556,37.22222l-16.1111,39.44443l-37.22222,1.66667l-16.66666,-23.33333l-2.77778,-40.55555c0.00009,0.55555 12.77787,-45 12.77787,-45.55555c0,-0.55556 17.77777,-58.33333 17.77768,-58.88887c0.00009,0.55554 5.00009,-16.66668 5,-17.22222l3.33343,26.66665z" id="svg_65"/>
  <path fill="#14277a" stroke="#000" stroke-width="0.5" stroke-opacity="null" d="m301.43319,955.27743l-12.27545,23.35329l3.59281,26.34731l11.37725,-10.77845l3.59281,-25.1497l-6.28742,-13.77245z" id="svg_66"/>
 </g>
 <g>
  <title>Layer 2</title>
 </g>
</svg>