<svg xmlns="http://www.w3.org/2000/svg" xmlns:xlink="http://www.w3.org/1999/xlink" height="1500px" width="1000px" viewBox="0 0 1500 2000"><defs><style>@font-face{font-family: Microsoft YaHei UI;src: url('/fonts/YaHei.ttf');}.cls-1{isolation:isolate;}.cls-2{fill:rgb(175, 156, 134);}.cls-3{fill:rgb(116, 93, 64);}.cls-4,.cls-5,.cls-6,.cls-7{fill:none;}.cls-16,.cls-17,.cls-4,.cls-7{stroke:rgb(68, 68, 68);}.cls-16,.cls-17,.cls-4,.cls-5,.cls-6,.cls-7{stroke-miterlimit:10;}.cls-4{stroke-width:8px;}.cls-5{stroke:#fff;stroke-width:3px;}.cls-6{stroke:white;stroke-width:2px;}.cls-7{stroke-width:6px;}.cls-8{opacity:0.75;mix-blend-mode:screen;}.cls-9{fill:url(#linear-gradient);}.cls-10{font-size:130px;fill:#e6e7e8;letter-spacing:0.07em;}.cls-10,.cls-12{font-family:MicrosoftYaHeiUI-Bold, Microsoft YaHei UI;font-weight:700;}.cls-11{letter-spacing:0.1em;}.cls-12{font-size:100px;letter-spacing:0.1em;}.cls-12,.cls-22{fill:#c59617;}.cls-13,.cls-99{fill:rgb(10, 16, 71);}.cls-14,.cls-17{fill:#fff;}.cls-15{fill:#abadb0;}.cls-16{fill:#1E1A1B;}.cls-18{fill:#cbccce;}.cls-19{fill:#a7a9ac;}.cls-20{fill:#deb210;}.cls-21{fill:#58595b;}</style><linearGradient id="linear-gradient" x1="784.04" y1="485.55" x2="803.58" y2="1288.13" gradientUnits="userSpaceOnUse"><stop offset="0" stop-color="#fff"/><stop offset="0.08" stop-color="#fafafa"/><stop offset="0.18" stop-color="#ececec"/><stop offset="0.29" stop-color="#d5d5d5"/><stop offset="0.39" stop-color="#b5b5b5"/><stop offset="0.5" stop-color="#8b8b8b"/><stop offset="0.62" stop-color="#595959"/><stop offset="0.73" stop-color="#1e1e1e"/><stop offset="0.78"/></linearGradient></defs><g class="cls-1"><g id="Layer_1" data-name="Layer 1"><rect class="cls-2" width="1501.24" height="2000"/><polygon class="cls-3" points="101.07 0 36.28 135.51 239.1 245.37 540 596.07 616.56 724.24 1500 1422.83 1501.24 2000 0 2000 0 0 101.07 0"/><path class="cls-4" d="M350.37,0c336.43,253.79,388.68,449.3,378,574.51q-.25,3-.57,6.07"/><path class="cls-5" d="M630.65,620C345.26,601.81,92.84,740.93,0,959.45c-68.49,161.21-29.32,316.63-10.2,377.47"/><path class="cls-6" d="M489.8,815.79C186.69,1387.41,134.21,1868.26,325,2014.38c41.09,31.47,123.7,70.57,291.55,35.21"/><path class="cls-4" d="M650.37,1077.93c157.75,390.86,578.27,528.79,849.63,365.13,209.72-126.48,322-428.06,247.55-727.27"/><path class="cls-7" d="M898.25,1096.7c386.3-39.61,677.15-351.28,700-704.29C1623.86-4.1,1298.87-259.38,1280-273.72"/><path class="cls-7" d="M1047.55,807.34C1464.34,576,1638,237.28,1505-5.48,1478-54.87,1408.85-153.9,1224.52-237.73"/><path class="cls-7" d="M926.42,635.51C948.93,507.16,996.77,148.63,799.66-8.15a308,308,0,0,0-32.39-22.54"/><circle class="cls-9" cx="791.56" cy="794.66" r="318.66"/><text class="cls-10" transform="translate(233.21 1648.5)">J<tspan class="cls-11" x="70" y="0">AMES BOND</tspan></text><text class="cls-12" transform="translate(635.37 1758.81)">007</text><path class="cls-13" d="M715.86,710.77,669.38,784l32.39,45.08L706,871.33l-11.27,62-7.54,128.8L704.59,1315H756.7l7-109.86L777.83,1315H837.4l9.45-259.15,7-43,67.6-110.57V744.57l-7-19.72-53.52-35.21L837.4,665.7s-13.09,28.16-21.54,43.66-38,32.39-38,32.39l-10.56,14.09L756.7,730.48l10.57-33.8Z"/><polyline class="cls-14" points="621.67 747.55 616.56 736.73 665.86 725.46 662.34 735.93"/><polygon class="cls-141" points="775.72 751 841.91 673.53 827.83 659.45 775.72 694.66 767.27 687.62 767.27 698.89 775.72 705.23 786.28 711.56 775.72 751"/><polygon class="cls-15" points="618.56 734.51 618.56 721.83 612.93 689.44 618.56 676.76 625.61 671.13 635.47 658.45 645.32 666.9 655.02 666.9 673.49 676.76 673.49 690.85 662.23 711.97 655.02 727.47 618.56 734.51"/><polyline class="cls-16" points="638.21 656.11 638.21 644.85 645.25 644.85 641.73 615.27 659.34 601.18 666.38 646.25 672.01 675.83 655.11 667.38 638.21 663.15"/><polygon class="cls-161" points="690.22 1043.96 712.34 1043.96 742.48 943.02 748.05 924.39 750.62 915.79 772.9 784.8 767.27 755.84 791.56 755.84 767.27 870.72 740.89 977.67 761.99 1043.96 804.59 1043.96 812.34 1000 805.49 1056.63 690.22 1070.72 690.22 1043.96"/><rect class="cls-17" x="798.51" y="780.58" width="39.55" height="8.45"/><polygon class="cls-18" points="867.25 851.19 867.25 890.63 877.11 877.95 867.25 851.19"/><polygon class="cls-141" points="822.56 963.38 853.55 992.96 846.92 1000 822.56 963.38"/><polygon class="cls-19" points="765.04 693.48 765.04 670.94 754.36 648.41 745.32 648.41 732.64 617.42 741.09 617.42 739.68 601.93 748.84 572.35 772.08 554.82 796.54 562.49 814.92 568.13 831.65 583.62 831.65 611.79 838.27 614.61 838.27 632.91 831.65 642.77 824.19 658.27 813.44 675.17 782.64 693.48 765.04 693.48"/><polygon class="cls-20" points="771.85 687.62 785.93 677.76 796.49 696.07 784.17 703.11 784.17 745.37 761.99 767.9 761.99 715.79 771.85 698.89 771.85 687.62"/><polyline class="cls-161" points="786.93 777.75 860.93 689.64 837.4 665.7 767.27 755.84 756.7 730.48 767.27 698.89 736.08 705.23 743.32 744.92 772.9 784.8"/><polyline class="cls-21" points="738.08 607.75 750.84 571.35 774.08 553.82 824.28 573.94 833.65 582.62 814.34 579.58 793.56 573.94 763.99 579.58 741.68 600.93"/><polygon class="cls-161" points="704.59 1360.06 704.59 1376.35 665.86 1381.99 655.11 1397.48 655.11 1412.97 665.86 1412.97 704.59 1412.97 750 1400.3 756.7 1360.06 704.59 1360.06"/><polygon class="cls-161" points="790.25 1360.06 790.25 1376.35 751.51 1381.99 740.77 1397.48 740.77 1412.97 751.51 1412.97 790.25 1412.97 835.65 1400.3 842.36 1360.06 790.25 1360.06"/><rect class="cls-13" x="704.59" y="1314.99" width="52.11" height="45.07"/><rect class="cls-13" x="779.24" y="1308.04" width="59.15" height="52.02"/><polyline class="cls-22" points="855.93 1683.91 848.55 1705.11 867.18 1705.11 872.11 1694.51 893.25 1694.51 893.25 1683.91"/><polygon class="cls-22" points="846.55 1711.56 865.18 1711.56 860.25 1724.24 843.93 1724.24 846.55 1711.56"/><polyline class="cls-99" points="696.66 821.95 665.86 851.19 643.21 851.19 612.93 751 669.38 733.51 675.72 774.94"/></g></g></svg>