<svg viewBox="0 1 900 1200" xmlns="http://www.w3.org/2000/svg" xmlns:xlink="http://www.w3.org/1999/xlink">
 <!-- Created with Method Draw - http://github.com/duopixel/Method-Draw/ -->
 <defs>
  <linearGradient id="svg_1" x1="1" y1="1" x2="1" y2="0" spreadMethod="pad">
   <stop stop-color="#00559b" offset="0"/>
   <stop stop-color="#ffaa64" offset="1"/>
  </linearGradient>
  <linearGradient y2="0" x2="1" y1="1" x1="1" id="svg_700">
   <stop offset="0" stop-color="#303030"/>
   <stop offset="1" stop-color="#cfcfcf"/>
  </linearGradient>
 </defs>
 <g>
  <title>background</title>
  <rect fill="#fff" id="canvas_background" height="1202" width="902" y="-1" x="-1"/>
 </g>
 <g>
  <title>Layer 1</title>

  <rect stroke="url(#svg_1)" id="svg_59" height="1200.00002" width="903.07691" y="1.13683" x="-1.53846" stroke-opacity="null" stroke-width="0" fill="url(#svg_700)"/>
  <path id="sword" d="m257.32565,613.88973l-75.99831,262.35038l-68.19028,255.06286l6.24643,8.84913l12.49288,-3.64376l73.91618,-269.63787l27.06789,-100.98407l42.16345,-137.42162l-3.12322,-8.32858l-14.57503,-6.24645l0.00001,-0.00002z" stroke-opacity="null" stroke-width="0.5" fill="#bf0000" transform="rotate(4.125174045562744 194.08047485351761,877.0208740234376) " stroke="#000000"/>
  <path id="svg_66" d="m280.40167,607.03443c0,0 -18.09043,32.16076 -18.59293,31.65827c0.5025,0.50249 14.57284,12.56278 14.07033,12.06029c0.5025,0.50249 19.59796,9.54771 19.09545,9.04522c0.5025,0.50249 8.04018,-25.12562 7.53768,-25.62811c0.5025,0.50249 -2.51257,-25.62813 -3.01507,-26.13062c0.5025,0.50249 -19.09546,-1.00504 -19.09546,-1.00504l0,-0.00001z" stroke-opacity="null" stroke-width="0.5" stroke="#000000" fill="#606060"/>
  <path id="svg_7" d="m553.8463,178.46116c0,0 78.46161,40.00004 76.9235,38.46211c1.53811,1.53793 50.76893,96.92263 49.23082,95.38471c1.53811,1.53792 13.84581,76.92261 12.3077,75.38468c1.53811,1.53793 23.07659,139.9996 21.53848,138.46166c1.53811,1.53794 27.69198,123.07651 26.15387,121.53857c1.53811,1.53794 15.38428,130.76883 16.92274,130.76883c1.53847,0 27.69234,155.38476 26.15422,153.84682c1.53812,1.53794 9.23043,133.84576 10.76889,133.84576c1.53847,0 9.23078,96.92317 7.69267,95.38521c1.53811,1.53796 -50.76963,-3.07743 -52.30774,-4.61539c1.53811,1.53796 -21.53883,9.23028 -23.07695,7.69232c1.53812,1.53796 -46.15424,4.61488 -47.69235,3.07692c1.53811,1.53796 -70.76965,-4.61589 -72.30776,-6.15385c1.53811,1.53796 -58.46194,-12.30821 -60.00005,-13.84616c1.53811,1.53795 -33.84654,-10.76975 -35.38465,-12.30771c1.53811,1.53796 -63.07734,-0.0005 -64.61544,-1.53846c1.5381,1.53796 -78.46197,-13.84667 -80.00007,-15.38463c1.5381,1.53796 -44.61579,-18.46206 -46.15389,-20.00002c1.5381,1.53796 27.69197,-269.23153 26.15387,-270.76947c1.5381,1.53794 -12.30807,-192.30839 -13.84617,-193.84633c1.5381,1.53794 24.61505,-123.07757 24.61505,-123.07757c0,0 -13.84617,-147.69244 -15.38427,-149.23037c1.5381,1.53793 -18.46192,4.61485 -20.00002,3.07692c1.5381,1.53793 23.07658,-98.46216 21.53848,-100.00009c1.5381,1.53793 63.07662,-44.61596 61.53852,-46.15388c1.5381,1.53792 19.99966,-29.23134 19.99966,-29.23134l129.23089,-10.76924z" stroke-width="0.5" stroke="#232323" fill="#191919"/>
  <path id="svg_8" d="m332.9277,364.29137l1.7983,16.54675l-12.23021,20.14388l-10.07194,32.37408l-15.1079,32.37408l-5.03597,30.21581l-12.94963,35.25178l-15.82733,42.44602l-5.7554,50.35968l8.63309,17.9856l15.82733,-31.65466l14.38848,13.66906c0.35998,0.71942 -1.07887,23.74099 -0.35945,23.74099c0.71943,0 27.56975,-1.477 23.0243,-2.95401l9.58603,-48.91503l10.03044,-41.5723l10.24895,-32.26655l6.4625,-17.45749c0.35998,0.71942 11.87076,-21.58273 11.51079,-22.30215c0.35997,0.71942 25.53981,-107.91361 25.17984,-108.63303l-59.35222,-9.35251z" stroke-width="0.5" stroke="#000000" fill="#1e1e1e"/>
  <path id="svg_9" d="m360.07751,571.31787c0,0 -12.4031,36.43411 -12.79065,35.65893c0.38755,0.77518 3.48832,75.96898 3.10078,75.19381c0.38755,0.77518 15.89143,92.24806 15.50388,91.47288c0.38755,0.77518 12.79065,86.8217 13.56585,86.8217c0.77519,0 3.87597,27.13179 3.48842,26.35661c0.38755,0.77518 29.84492,16.27905 29.45737,15.50388c0.38755,0.77518 32.1705,-12.40312 31.78295,-13.1783c0.38755,0.77518 14.34104,-37.20932 13.95349,-37.9845c0.38755,0.77518 12.79065,-76.74421 12.4031,-77.51939c0.38755,0.77518 -5.814,-59.68995 -6.20155,-60.46512c0.38755,0.77518 4.26352,-34.88374 3.87597,-35.65892c0.38755,0.77518 23.64337,16.27905 23.25582,15.50388c0.38755,0.77518 24.41856,84.49612 24.03101,83.72094c0.38755,0.77518 36.82166,75.19379 36.43411,74.41861c0.38755,0.77518 27.51933,-10.07754 27.13179,-10.85271c0.38755,0.77518 -33.72098,-168.21709 -34.10853,-168.99227c0.38755,0.77518 -39.14734,-100.00003 -39.53489,-100.7752c0.38755,0.77518 -37.59695,-3.10079 -37.9845,-3.87597c0.38755,0.77518 -107.3644,4.65115 -107.3644,4.65115l-0.00002,-0.00001z" stroke-width="0.5" stroke="#000000" fill="#353535"/>
  <path id="svg_11" d="m561.62792,844.96131l-12.79065,8.52715l0.77519,17.82946l17.82946,33.33334l7.75194,18.60465l8.52713,44.18605l11.62791,53.48838l10.07752,37.9845l12.4031,47.28683l-3.10077,29.45737l-20.93024,19.37984l-17.05426,31.78295l93.79846,3.10078c0.38755,0.77517 9.68987,-15.5039 9.68987,-16.27909c0,-0.7752 5.42636,-30.23256 5.03881,-31.00774c0.38755,0.77518 -27.51943,-50.38762 -27.90698,-51.1628c0.38755,0.77518 -0.38764,-95.34886 -0.77519,-96.12404c0.38755,0.77518 -61.62796,-134.88375 -62.01551,-135.65893l-32.94579,-14.7287z" stroke-opacity="null" stroke-width="0.5" stroke="#000000" fill="#5e5e5e"/>
  <path id="svg_10" d="m372.48061,856.58922l34.49618,26.35661l44.96125,0l7.75194,65.11629l4.65116,68.21706l-13.1783,91.47288l3.87597,30.23256l-37.9845,9.30233l-30.23256,0l-29.45737,6.97674l-34.10853,-0.77519l-31.00776,-3.10078l-6.20155,-6.97674l21.70543,-17.82946l39.53489,-20.93023l31.78295,-27.13179l5.42636,-58.91473l-10.85271,-118.60466l-1.16284,-43.41087l-0.00001,-0.00002z" stroke-opacity="null" stroke-width="0.5" stroke="#000000" fill="#5e5e5e"/>
  <path id="svg_12" d="m455.42636,489.92252l111.24037,-15.50386l39.53489,2.32558l54.26357,183.72095l0.77519,372.86826l-44.18605,-16.27907l-50.3876,-169.76746l-53.48838,-117.82947l-32.55814,-103.87598l-25.19385,-135.65895z" stroke-opacity="null" stroke-width="0.5" stroke="#000000" fill="#424242"/>
  <path id="svg_14" d="m615.1163,1088.37219c0,0.77519 33.33334,0 32.94579,-0.77518c0.38755,0.77518 24.41856,26.35657 24.03101,25.5814c0.38755,0.77518 10.46507,37.20929 10.07752,36.43411c0.38755,0.77518 -2.71323,37.20929 -3.10078,36.43411c0.38755,0.77518 -32.17059,7.75192 -32.55814,6.97674c0.38755,0.77518 -60.85277,0.77518 -61.24032,0c0.38755,0.77518 -5.814,-7.75196 -6.20155,-8.52713c0.38755,0.77518 11.24026,-21.70545 10.85271,-22.48062c0.38755,0.77518 14.34104,-12.40312 13.95349,-13.1783c0.38755,0.77518 11.24026,-61.24033 11.24026,-60.46514l0.00001,0.00001z" stroke-opacity="null" stroke-width="0.5" stroke="#000000" fill="#1c1c1c"/>
  <path id="svg_13" d="m454.65116,1142.63576l1.16284,-78.29456l-25.5814,-13.95349l-18.60465,44.96124l-22.48063,-23.25581l-47.28682,34.88372l-31.00776,12.4031l-28.68217,17.82946l4.65116,16.27907l57.36435,4.65117l77.51939,-6.20155l32.94569,-9.30235z" stroke-opacity="null" stroke-width="0.5" stroke="#000000" fill="#1c1c1c"/>
  <path id="svg_15" d="m573.88033,301.4919l11.19305,81.34311l16.41788,53.73123l6.7164,61.1939l-3.73133,36.56708l-15.67161,8.20894l-9.70147,57.46257l14.17907,4.4776c0.00096,0.74626 6.71736,-31.34322 5.97109,-32.08949c-0.74626,-0.74626 7.46267,17.16415 7.46172,16.41788c0.00095,0.74627 -13.43185,23.88054 -13.43281,23.13428c0.00096,0.74626 11.94123,8.9552 11.94028,8.20894c0.00095,0.74626 9.70242,-5.97014 9.70147,-6.71641c0.00095,0.74627 -3.73038,14.17908 -3.73134,13.43281c0.00096,0.74627 12.6875,-1.49253 14.18003,-1.49253c1.49254,0 14.17908,-3.73134 15.67161,-3.73134c1.49253,0 23.88055,-25.37308 23.87959,-26.11935c0.00096,0.74627 0.74722,-41.04469 0.74627,-41.79095c0.00095,0.74626 4.47856,-73.13418 4.4776,-73.88044c0.00096,0.74626 -6.71545,-41.04469 -6.7164,-41.79096c0.00095,0.74627 -13.43186,-57.46256 -13.43281,-58.20883c0.00095,0.74627 -21.64079,-64.17897 -21.64175,-64.92524l-54.47654,-13.4328z" stroke-opacity="null" stroke-width="0.5" stroke="#000000" fill="#2d2b2b"/>
  <path id="svg_16" d="m330.59727,464.92438c0,0 23.13428,-10.44774 22.38801,-10.44774c-0.74627,0 41.79096,0.74627 41.79,0c0.00096,0.74627 36.56804,-7.46267 36.56709,-8.20894c0.00096,0.74627 73.8814,-3.73134 73.88044,-4.4776c0.00096,0.74627 66.41872,4.4776 66.41777,3.73134c0.00096,0.74627 1.49349,36.56709 1.49253,35.82082c0.00096,0.74627 -67.90935,11.19401 -67.9103,10.44774c0.00096,0.74627 -106.71524,7.46267 -106.71619,6.7164c0.00096,0.74627 -48.5064,16.41787 -48.50736,15.67161c0.00096,0.74627 -21.64079,0 -21.64175,-0.74627c0.00096,0.74627 2.23976,-48.50736 2.23976,-48.50736z" stroke-opacity="null" stroke-width="0.5" stroke="#000000" fill="#474747"/>
  <path id="svg_20" d="m372.38822,507.46161c0,0 5.22387,-49.9999 5.22292,-50.74616c0.00095,0.74626 -27.61093,-1.49254 -27.61188,-2.2388c0.00095,0.74626 -22.38706,10.44773 -22.38802,9.70147c0.00096,0.74626 -2.23784,44.77602 -2.2388,44.02976c0.00096,0.74626 17.91137,10.44773 17.91041,9.70147c0.00096,0.74626 29.10537,-10.44774 29.10537,-10.44774z" stroke-opacity="null" stroke-width="0.5" stroke="#000000" fill="#4f3c3c"/>
  <path id="svg_18" d="m434.32839,447.01398l-52.98592,7.46267l2.98507,49.25363l50.74616,-8.20894l-0.74531,-48.50736z" stroke-opacity="null" stroke-width="0.5" stroke="#000000" fill="#442727"/>
  <rect transform="rotate(-9.579910278320312 407.8359069824222,476.11840820312534) " id="svg_28" height="13.43281" width="29.10442" y="469.40199" x="393.2837" stroke-opacity="null" stroke-width="0.5" stroke="#000000" fill="#686363"/>
  <path id="svg_17" d="m523.88044,487.3124c-0.74627,0 -2.98507,-52.98496 -2.98602,-53.73123c0.00095,0.74627 -66.41682,4.4776 -66.41777,3.73133c0.00095,0.74627 2.98602,59.70137 2.98507,58.9551c0.00095,0.74627 67.16499,-8.9552 66.41872,-8.9552z" stroke-opacity="null" stroke-width="0.5" stroke="#000000" fill="#4c4343"/>
  <path id="svg_29" d="m572.3878,297.01429c0,0 6.7164,45.5223 6.71545,44.77603c0.00095,0.74627 -2.98412,58.9551 -2.98507,58.20883c0.00095,0.74627 -13.43185,54.4775 -13.43281,53.73123c0.00096,0.74627 -41.04373,-0.74627 -41.04469,-1.49253c0.00096,0.74626 0.00096,-17.91041 0,-18.65668c0.00096,0.74627 -68.65561,3.73133 -68.65657,2.98507c0.00096,0.74626 -0.74531,23.13428 -0.74626,22.38801c0.00095,0.74627 -11.93932,0 -11.94028,-0.74627c0.00096,0.74627 -5.96918,-10.44774 -5.97013,-11.194c0.00095,0.74626 -49.99894,7.46267 -49.9999,6.7164c0.00096,0.74627 -28.35719,2.2388 -28.35815,1.49253c0.00096,0.74627 -8.20798,-57.46256 -8.20893,-58.20883c0.00095,0.74627 -3.73038,-55.22376 -3.73134,-55.97003c0.00096,0.74627 3.73229,-34.32828 3.73134,-35.07455c0.00095,0.74627 63.43365,-10.44774 63.4327,-11.19401c0.00095,0.74627 70.89632,-14.92534 70.89537,-15.67161c0.00095,0.74627 54.47845,-12.68654 54.47749,-13.4328c0.00096,0.74626 8.2099,-15.67161 8.20894,-16.41788c0.00096,0.74627 2.98603,38.80589 2.98507,38.05962l24.62777,9.70147z" stroke-opacity="null" stroke-width="0.5" stroke="#000000" fill="#232323"/>
  <path id="svg_30" d="m461.19401,299.2531l1.49158,93.28338l-79.10431,17.91041l-13.43281,-11.94027l2.2388,-85.82071l88.80674,-13.43281z" stroke-opacity="null" stroke-width="0.5" stroke="#000000" fill="#3d3a3a"/>
  <path id="svg_31" d="m441.79106,300.74563c0,0 0.74627,81.34311 0.74531,80.59684c0.00096,0.74627 -71.64068,13.43281 -71.64164,12.68654c0.00096,0.74627 2.23976,-78.35804 2.23881,-79.10431c0.00095,0.74627 68.65752,-14.17907 68.65752,-14.17907z" stroke-opacity="null" stroke-width="0.5" stroke="#000000" fill="#6b5e5e"/>
  <path id="svg_42" d="m383.33263,358.16259l0.34012,25.17002c0.00001,0 47.95911,-6.12244 47.95911,-6.12244c0,0 0,-27.55097 -0.00002,-27.55097l-48.29921,8.50339z" stroke-opacity="null" stroke-width="0.5" stroke="#000000" fill="#7c7c7c"/>
  <path id="svg_19" d="m373.13449,507.46161c0,0 2.98507,-51.49243 2.98411,-52.23869l-2.98411,52.23869z" stroke-opacity="null" stroke-width="0.5" stroke="#000000" fill="#4f4f4f"/>
  <path id="svg_43" d="m618.51843,306.34912c0,0 1.0582,-13.22751 1.05818,-13.75658c0.00002,0.52907 1.05822,-12.16934 1.0582,-12.69841c0.00002,0.52907 -27.5132,-63.49209 -27.51322,-64.02115c0.00002,0.52906 -17.9894,-7.93654 -17.98942,-8.46561c0.00002,0.52907 -49.73542,-12.69845 -49.73544,-13.22751c0.00002,0.52906 -26.9841,-6.34924 -26.98412,-6.87831c0.00002,0.52907 -22.2222,-5.29104 -22.22222,-5.8201c0.00002,0.52906 -39.68252,12.16927 -39.68253,11.64021c0.00001,0.52906 -25.92591,15.34388 -25.92592,14.81481c0.00001,0.52907 -15.873,19.57668 -15.87301,19.04762c0.00001,0.52906 -25.92591,24.33858 -25.92593,23.80952c0.00002,0.52906 -21.164,17.98938 -21.16401,17.46031c0.00001,0.52907 -14.8148,34.3915 -14.81482,33.86243c0.00002,0.52907 1.58732,9.52377 1.58731,8.99471c0.00001,0.52906 -10.582,33.86239 -10.58201,33.33332c0.00001,0.52907 19.57672,-15.34394 19.57671,-15.87301c0.00001,0.52907 10.05292,-22.75135 10.05291,-23.28042c0.00001,0.52907 30.15874,-2.11643 30.15873,-2.6455c0.00001,0.52907 21.69313,-8.99474 21.69311,-9.52381c0.00002,0.52907 16.93123,1.05817 16.93122,0.5291c0.00001,0.52907 39.68255,-7.40744 39.68253,-7.9365c0.00002,0.52906 16.40213,-8.46565 16.93123,-8.46565c0.5291,0 41.26984,-6.3492 41.26982,-6.87827c0.00002,0.52907 27.51324,-3.70373 27.51322,-4.2328c0.00002,0.52907 0.52912,26.45499 0.5291,25.92592c0.00002,0.52907 25.92594,4.76187 25.92592,4.2328c0.00002,0.52907 25.39684,1.58727 25.39682,1.05821c0.00002,0.52906 19.04764,8.99467 19.04764,8.99467z" stroke-opacity="null" stroke-width="0.5" stroke="#000000" fill="#606060"/>
  <path id="svg_46" d="m384.65603,241.79886l-6.87832,16.93125l-12.16931,32.80423l-3.7037,11.64021l-9.52381,0l6.87831,-20.63492l10.58201,-29.62962l14.81482,-11.11114l0,-0.00001z" stroke-opacity="null" stroke-width="0.5" stroke="#000000" fill="#191919"/>
  <path id="svg_45" d="m426.45497,210.58194l-13.22752,52.38098l-12.69841,29.62962l-4.7619,7.93651l-17.46031,2.6455l2.1164,-17.46031l14.81481,-36.50793l6.34921,-22.75132l24.86773,-15.87305l-0.00001,0z" stroke-opacity="null" stroke-width="0.5" stroke="#000000" fill="#191919"/>
  <path id="svg_47" d="m521.16395,194.17982l-22.75134,12.16935l-22.22222,24.86772l-12.16931,18.51852l-11.64021,26.45502l-7.40741,9.52381l-17.98941,5.291l-10.58201,2.1164l15.87301,-47.08994l11.11111,-19.57672l10.05291,-19.57672l6.34921,-6.87831l43.38624,-7.93651l17.98943,2.11636l0,0.00002z" stroke-opacity="null" stroke-width="0.5" stroke="#000000" fill="#191919"/>
  <path id="svg_44" d="m546.56077,198.94173c0,-0.5291 -29.10052,18.51852 -29.10054,17.98945c0.00002,0.52906 -34.92061,40.2116 -34.92063,39.68253c0.00002,0.52907 -8.99469,20.63488 -8.99471,20.10582c0.00002,0.52907 21.69313,-2.64554 21.69312,-3.1746c0.00002,0.52907 28.04234,-42.85717 28.04232,-43.38624c0.00002,0.52906 29.10054,-24.86776 29.10052,-25.39682c0.00002,0.52906 9.52383,-1.05824 9.52381,-1.5873c0.00002,0.52906 -15.3439,-3.70374 -15.3439,-4.23284l0.00001,0z" stroke-opacity="null" stroke-width="0.5" stroke="#000000" fill="#191919"/>
  <path id="svg_4" d="m428.18089,202.72684l2.27273,-15.90906l-14.54542,-10.90907l-29.09085,1.36364l-23.63631,14.09088c0.45454,0 -27.27268,39.54537 -27.27268,39.09083c0,-0.45455 -11.36361,37.72719 -11.81815,37.72718c0.45454,0.00001 -10.45453,37.7272 -10.90906,37.72719c0.45453,0.00001 8.63633,43.18174 8.1818,43.18173c0.45453,0.00001 14.99996,-6.81816 14.54542,-6.81817l0.22968,-27.4497l2.95213,-15.27748c0.45454,0.00001 11.36361,-10.90906 10.90907,-10.90907c0.45454,0.00001 -0.45455,-12.27269 -0.90909,-12.2727c0.45454,0.00001 9.54543,-12.72724 9.09089,-12.72724l16.00998,-18.60268l18.98994,-12.76089l34.99992,-29.54539z" stroke-opacity="null" stroke-width="0.5" stroke="#000" fill="#212121"/>
  <path id="svg_49" d="m519.01339,16.19715c0,0 -18.66195,-10.56337 -18.66195,-10.91547c0,0.3521 -69.71821,2.81689 -69.71821,2.81689c0,0 -18.66195,14.4366 -18.66195,14.0845c0,0.3521 -14.08449,52.4647 -14.08449,52.11261c0,0.35209 0.35211,17.9577 0.35211,17.60561c0,0.35209 -21.83095,63.02807 -21.83095,62.67597c0,0.3521 -4.57746,13.73236 -4.57746,13.38026c0,0.3521 7.74647,9.50702 7.74647,9.15492c0,0.3521 28.52109,8.45068 28.52109,8.09858c0,0.3521 11.97181,-0.00001 11.97181,-0.35211c0,0.3521 -3.87323,14.43658 -3.87323,14.43658c0,0 34.50699,-0.35211 34.50699,-0.70421c0,0.3521 37.67601,-7.74648 37.67601,-8.09858c0,0.3521 38.02812,-9.50704 38.02812,-9.85914c0,0.3521 24.29574,-4.22536 24.29574,-4.57746c0,0.3521 13.38026,-2.81691 13.38026,-3.16901c0,0.3521 7.74647,-10.91549 7.74647,-11.26759c0,0.3521 -9.85914,-19.7183 -9.85914,-20.07039c0,0.35209 -11.6197,-37.32391 -11.97182,-37.32391c-0.35211,0 -9.85914,-22.18307 -9.85914,-22.53517c0,0.3521 -3.87323,-29.92955 -3.87323,-30.28165c0,0.3521 -10.21126,-25.35209 -10.21126,-25.70419c0,0.3521 -7.04224,-9.50704 -7.04224,-9.50704z" stroke-opacity="null" stroke-width="0.5" stroke="#000000" fill="#141414"/>
  <path id="svg_50" d="m561.97108,156.3378c0,0 8.80281,8.80281 8.80281,8.80281c0,0 -13.38026,-40.84502 -13.38026,-41.19711c0,0.3521 -14.4366,-31.338 -14.4366,-31.6901c0,0.3521 -3.87323,-24.99998 -3.87323,-25.35208c0,0.3521 -10.21125,-36.9718 -10.21125,-37.32389c0,0.3521 -15.84505,-18.66196 -15.84505,-19.01406c0,0.3521 -16.90139,-4.57747 -16.90139,-4.92957c0,0.3521 -59.85907,0.3521 -59.85907,0c0,0.3521 -24.29574,17.6056 -24.29574,17.2535c0,0.3521 -13.38026,45.07035 -13.38026,44.71825c0,0.3521 -1.40845,22.88728 -1.40845,22.88728c0,0 -26.76053,74.29568 -26.76053,74.29568c0,0 5.6338,2.46479 5.6338,2.11269c0,0.3521 10.91548,-22.5352 10.91548,-22.88731c0,-0.35211 14.78871,-41.54924 14.78871,-41.90134c0,0.3521 19.36617,-22.88731 19.36617,-23.23941c0,0.3521 32.04221,-3.87325 32.04221,-4.22535c0,0.3521 21.83096,2.46477 21.83096,2.11267c0,0.3521 14.08449,-3.87325 14.08449,-4.22535c0,0.3521 25.70419,1.76055 25.35208,1.76055c-0.35211,0 9.85914,9.50703 9.85914,9.15493c0,0.3521 20.0704,32.74642 20.0704,32.39432c0,0.3521 9.85914,27.46474 9.85914,27.11264c0,0.3521 7.74647,13.38025 7.74647,13.38025l-0.00003,0z" stroke-opacity="null" stroke-width="0.5" stroke="#000000" fill="#161616"/>
  <path id="svg_48" d="m518.76311,159.0856l-22.58093,4.83871l-5.64515,24.99999l38.70965,7.25806l49.19352,14.51612l27.41934,32.25805l12.09677,46.77416l23.38708,62.90319l12.90322,49.19352l12.90322,70.9677l0.80645,44.35481l-8.06451,73.38706l2.41935,57.25803l-2.41935,191.93537l-1.61291,64.51609l-0.80645,108.87091l5.64516,112.90316l80.64512,8.06451l0,-41.93546l-3.22581,-107.258l-5.64516,-136.29025l-5.64515,-109.67735l-4.83871,-73.38706c0.00029,0.00001 2.41965,-82.25801 2.41965,-83.06446c0,-0.80645 -16.12903,-102.4193 -16.12932,-102.4193c0.00029,0 -18.54808,-105.6451 -18.54838,-106.45155c0.0003,0.80645 -18.54808,-79.03222 -18.54837,-79.83866l-37.09676,-73.38706c6.52497,1.89947 -51.61258,-29.03225 -51.61287,-29.83869l-66.1287,-31.4516z" stroke-opacity="null" stroke-width="0.5" stroke="#000000" fill="#1c1c1c"/>
  <path id="svg_51" d="m516.19649,151.40823c45.77459,4.92957 15.14083,-13.73237 15.14083,-14.08448c0,-0.35212 -2.8169,-29.57743 -2.8169,-29.92954c0,-0.35211 -10.21125,-22.53518 -10.21125,-22.88728c0,0.3521 -12.32393,-7.39437 -12.32393,-7.74647c0,0.3521 -14.78871,-0.00001 -14.78871,-0.35211c0,0.3521 -12.32393,3.87322 -12.32393,3.52112c0,0.3521 -16.19716,-1.05635 -16.19716,-1.40845c0,0.3521 -14.4366,-1.76057 -14.4366,-2.11267c0,0.3521 -17.95773,3.87322 -17.95773,3.52112c0,0.3521 -11.26759,13.73236 -11.26759,13.73236c0,0 -7.04224,24.64786 -7.04224,24.64786c0,0 1.40845,19.01406 1.40845,18.66196c0,0.3521 9.50703,16.90137 9.50703,16.54927c0,0.3521 14.4366,1.76055 14.4366,1.40845c0,0.3521 20.77462,21.47883 20.77462,21.12673c0,0.3521 13.38026,6.69012 13.38026,6.33802c0,0.3521 17.2535,-9.50704 17.2535,-9.85914c0,0.3521 23.59152,-17.60562 23.59152,-17.95772l3.87323,-3.16903z" stroke-opacity="null" stroke-width="0.5" stroke="#000000" fill="#2d2d2d"/>
  <path id="svg_52" d="m460.21065,82.74635l-13.38026,-4.57744l-10.56337,-0.70422c0,0.35209 -10.91548,9.85912 -10.91548,9.85912c0,0 -4.92957,20.0704 -4.92957,19.7183c0,0.3521 9.85914,10.21124 9.85914,10.21124c0,0 24.64786,-3.87323 24.64786,-4.22533c0,0.3521 12.67604,-9.15493 12.67604,-9.50703c0,0.3521 -0.35211,-12.32394 -0.35211,-12.67604l-7.04225,-8.0986z" stroke-opacity="null" stroke-width="0.5" stroke="#000000" fill="#333333"/>
  <path id="svg_53" d="m518.30917,102.81675l-0.70422,-11.61969l-13.02815,-13.73238l-13.38026,1.40845l-14.4366,3.16901l-1.40845,9.15492l1.76056,14.4366l8.09858,4.92957l20.0704,1.05634l9.85914,-4.57746l3.16901,-4.22536l-0.00001,0z" stroke-opacity="null" stroke-width="0.5" stroke="#000000" fill="#333333"/>
  <path id="svg_56" d="m514.08382,100.70408c0,-0.35211 -10.21125,-14.78871 -10.21125,-15.14081c0,0.3521 -17.95772,-1.40846 -17.95772,-1.76056c0,0.3521 -7.04224,13.73236 -7.04224,13.38026c0,0.3521 11.97182,10.91546 11.97181,10.56337c0,0.3521 19.01406,-1.76058 19.01406,-2.11267c0,0.3521 4.22535,-4.57747 4.22535,-4.92959l-0.00001,0z" stroke-opacity="null" stroke-width="0.5" stroke="#000000" fill="#3f3f3f"/>
  <path id="svg_57" d="m427.46422,121.4787c0,-0.35211 10.21125,27.11264 10.21125,27.11264c0,0 6.69013,4.92957 6.69013,4.57747c0,0.3521 13.73238,-21.12675 13.73238,-21.47884c0,0.3521 6.69013,-15.14084 6.69013,-15.49294c0,0.3521 9.85914,-1.76058 9.85914,-2.11267c0,0.3521 3.16901,14.43659 3.16901,14.08449c0,0.3521 21.12673,27.11263 21.47884,27.11263c0.35211,0 8.09858,-3.87323 8.09858,-4.22533c0,0.3521 8.80281,-24.64787 8.80281,-24.99997c0,0.3521 0,-8.09859 0,-8.45069c0,0.3521 -16.54927,-1.05635 -16.54927,-1.40845c0,0.3521 -15.14082,-4.57747 -15.14082,-4.92957c0,0.3521 -22.88729,0.70421 -22.88729,0.70421c0,0 -34.15488,9.85914 -34.15488,9.50703l-0.00001,-0.00001z" stroke-opacity="null" stroke-width="0.5" stroke="#000000" fill="#302f2f"/>
  <path id="svg_58" d="m476.75993,117.25335l-7.04224,-4.92956l-9.15492,6.33802l-0.70422,9.15492l8.09858,0l7.39436,-0.35211l2.8169,-6.33802l-1.40845,-3.87325l-0.00001,0z" stroke-opacity="null" stroke-width="0.5" stroke="#000000" fill="#424242"/>
  <path id="svg_60" d="m442.95715,156.68992l0.70422,-4.92956l-4.92957,-1.05634l-2.46479,2.8169l1.40845,3.16901l5.28168,-0.00001l0.00001,0z" stroke-opacity="null" stroke-width="0.5" stroke="#000000" fill="#777777"/>
  <path id="svg_59" d="m504.9289,154.92936c0,0 -3.87323,-2.11267 -3.87323,-2.46477c0,0.3521 -4.22535,5.98589 -4.22535,5.6338c0,0.3521 5.98591,3.87322 5.98591,3.52112c0,0.3521 5.28168,-3.87325 5.28168,-4.22535c0,0.3521 -3.16901,-2.4648 -3.16901,-2.4648z" stroke-opacity="null" stroke-width="0.5" stroke="#000000" fill="#777777"/>
  <path id="svg_61" d="m460.17185,127.22062l-12.89399,25.78795l3.72493,7.44986l14.61318,1.43266l26.07449,-0.8596l8.30945,-1.43266l-1.7192,-6.87679l-11.17478,-12.60745l-7.44986,-11.74785l-11.46132,-0.28653l-8.02291,-0.85959l0.00001,0z" stroke-opacity="null" stroke-width="0.5" stroke="#000000" fill="#444444"/>
  <path id="svg_62" d="m455.87385,137.5358l0.28653,17.19197l4.58453,-0.57307c0,0.00001 -0.28653,-21.20343 -0.28653,-21.20343l-4.58453,4.58453z" stroke-opacity="null" stroke-width="0.5" stroke="#000000" fill="#2b2b2b"/>
  <path id="svg_63" d="m464.75638,153.29511l-0.85961,-21.77651l4.01146,-2.00573l1.14613,24.64183l-4.29799,-0.85959l0.00001,0z" stroke-opacity="null" stroke-width="0.5" stroke="#000000" fill="#2b2b2b"/>
  <path id="svg_64" d="m473.6389,129.22635l-0.28654,25.50142l6.30372,-0.28653l-1.43266,-20.9169l-4.58452,-4.29799z" stroke-opacity="null" stroke-width="0.5" stroke="#000000" fill="#2b2b2b"/>
  <path id="svg_65" d="m483.66755,153.58164c-0.28653,0 0.28653,-15.47278 0.28652,-15.47278c0.00001,0.00001 5.1576,6.0172 5.15759,6.01719c0.00001,0.00001 -0.85959,10.02866 -0.8596,10.02865c0.00001,0.00001 -4.29799,-0.57306 -4.58452,-0.57306l0.00001,0z" stroke-opacity="null" stroke-width="0.5" stroke="#000000" fill="#2b2b2b"/>
  <path transform="rotate(-25.940441131591797 443.6900939941407,95.79422760009771) " id="svg_68" d="m461.29571,100.70408c0,-0.35212 -10.21125,-14.78872 -10.21125,-15.14081c0,0.35209 -17.95773,-1.40847 -17.95773,-1.76057c0,0.3521 -7.04224,13.73237 -7.04224,13.38027c0,0.3521 11.97181,10.91546 11.97181,10.56336c0,0.3521 19.01406,-1.76057 19.01406,-2.11267c0,0.3521 4.22535,-4.57747 4.22535,-4.92958z" stroke-opacity="null" stroke-width="0.5" stroke="#000000" fill="#3f3f3f"/>
 </g>
<g id="redbuttons" fill="#700202">
    <rect id="svg_26" height="9.70147" width="19.40294" y="471.64079" x="467.16414" stroke-opacity="null" stroke-width="0.5" stroke="#000000" />
    <rect id="svg_27" height="9.70147" width="19.40294" y="494.77507" x="339.55247" stroke-opacity="null" stroke-width="0.5" stroke="#000000" />
</g>
<g id="greenbuttons" fill="#027229">
    <ellipse ry="3.73134" rx="6.7164" id="svg_21" cy="479.84973" cx="344.03008" stroke-opacity="null" stroke-width="0.5" stroke="#000000" />
    <ellipse ry="4.10447" rx="4.85074" id="svg_25" cy="473.50646" cx="500.37303" stroke-opacity="null" stroke-width="0.5" stroke="#000000" />
    <ellipse ry="4.10447" rx="4.85074" id="svg_24" cy="448.87964" cx="495.89542" stroke-opacity="null" stroke-width="0.5" stroke="#000000" />
    <ellipse ry="4.10447" rx="4.85074" id="svg_23" cy="451.11844" cx="473.50741" stroke-opacity="null" stroke-width="0.5" stroke="#000000" />
</g>
<g id="purplebuttons" fill="#d8008c">
    <rect stroke="#000000" id="svg_41" height="4.83884" width="13.94555" y="315.56168" x="388.58748" stroke-opacity="null" stroke-width="0.5" />
    <rect stroke="#000000" id="svg_40" height="4.83884" width="13.94555" y="328.14669" x="389.26775" stroke-opacity="null" stroke-width="0.5" />
    <rect stroke="#000000" transform="rotate(-5.275230884552002 396.2405395507824,344.85180664062483) " id="svg_39" height="4.83884" width="13.94555" y="342.43238" x="389.26775" stroke-opacity="null" stroke-width="0.5"/>
</g>
<g id="bluebuttons" fill="#004cbf">
    <rect transform="rotate(-5.275230884552002 422.27813720703176,331.97216796874966) " id="svg_37" height="8.16325" width="13.94555" y="327.89054" x="415.30536" stroke-opacity="null" stroke-width="0.5" stroke="#000000"/>
    <rect transform="rotate(-5.792145729064941 421.25772094726597,315.30554199218744) " id="svg_36" height="8.16325" width="13.94555" y="311.2239" x="414.28495" stroke-opacity="null" stroke-width="0.5" stroke="#000000" />
</g>

</svg>